M48
; DRILL file {KiCad 9.0.3} date 2025-07-20T22:32:53-0600
; FORMAT={-:-/ absolute / inch / decimal}
; #@! TF.CreationDate,2025-07-20T22:32:53-06:00
; #@! TF.GenerationSoftware,Kicad,Pcbnew,9.0.3
; #@! TF.FileFunction,Plated,1,4,PTH
FMAT,2
INCH
; #@! TA.AperFunction,Plated,PTH,ViaDrill
T1C0.0118
; #@! TA.AperFunction,Plated,PTH,ComponentDrill
T2C0.0157
; #@! TA.AperFunction,Plated,PTH,ComponentDrill
T3C0.0236
; #@! TA.AperFunction,Plated,PTH,ComponentDrill
T4C0.0400
%
G90
G05
T1
X4.8445Y-3.9657
X4.8458Y-3.9006
X4.8543Y-3.7689
X4.8543Y-4.1626
X4.8765Y-3.9072
X4.9528Y-3.9953
X4.9823Y-4.0543
X4.9921Y-3.7098
X5.061Y-3.4441
X5.0906Y-3.9953
X5.1988Y-3.8378
X5.1988Y-3.948
X5.1988Y-3.9756
X5.2048Y-4.1319
X5.2087Y-3.7787
X5.2185Y-4.1035
X5.2362Y-3.7787
X5.248Y-3.6705
X5.2677Y-4.3004
X5.2677Y-4.5661
X5.2776Y-4.4185
X5.3169Y-3.572
X5.3268Y-3.6311
X5.3268Y-3.6311
X5.3268Y-3.6311
X5.3366Y-3.7787
X5.3563Y-3.6606
X5.3661Y-3.6311
X5.3661Y-3.6311
X5.3661Y-3.6311
X5.3661Y-3.6311
X5.3661Y-3.6311
X5.3661Y-3.6311
X5.3661Y-3.6311
X5.3782Y-4.0024
X5.403Y-4.0013
X5.4154Y-3.7787
X5.4252Y-3.7984
X5.4252Y-4.1134
X5.4547Y-3.4736
X5.526Y-3.797
X5.5433Y-3.8476
X5.5531Y-3.4736
X5.6122Y-4.074
X5.6811Y-3.7197
X5.7402Y-3.8083
X5.7402Y-4.015
X5.75Y-3.6114
X5.75Y-4.4579
X5.7872Y-4.1708
X5.7894Y-4.2512
X5.7992Y-3.8575
X5.8125Y-3.9809
X5.8125Y-4.0839
X5.8189Y-4.1331
X5.9075Y-3.7984
X5.9075Y-3.8969
X5.9121Y-3.7643
X5.9764Y-4.2413
X6.0256Y-3.5524
X6.0453Y-3.6016
X6.0748Y-3.7295
X6.0748Y-4.1713
X6.1142Y-3.4244
X6.1142Y-3.6114
X6.1142Y-4.0543
X6.1535Y-4.3201
X6.2028Y-4.2413
X6.3602Y-3.8965
X6.4291Y-3.7098
X6.4291Y-4.0839
X6.5276Y-3.9559
X6.5472Y-3.7591
X6.5571Y-4.1035
T2
X4.7445Y-3.7667
X4.7445Y-3.8002
X4.7445Y-3.8337
X4.7445Y-3.8671
X4.7445Y-3.9006
X4.7445Y-3.9341
X4.7445Y-3.9675
X4.7445Y-4.001
X4.7976Y-3.7667
X4.7976Y-3.8002
X4.7976Y-3.8337
X4.7976Y-3.8671
X4.7976Y-3.9006
X4.7976Y-3.9341
X4.7976Y-3.9675
X4.7976Y-4.001
T4
X6.6303Y-3.7063
X6.6303Y-3.8063
X6.6303Y-3.9063
X6.6303Y-4.0063
X6.6303Y-4.1063
X6.7303Y-3.7063
X6.7303Y-3.8063
X6.7303Y-3.9063
X6.7303Y-4.0063
X6.7303Y-4.1063
T3
G00X4.6417Y-3.7136
M15
G01X4.6102Y-3.7136
M16
G05
G00X4.6417Y-4.0541
M15
G01X4.6102Y-4.0541
M16
G05
G00X4.7886Y-3.7136
M15
G01X4.7295Y-3.7136
M16
G05
G00X4.7886Y-4.0541
M15
G01X4.7295Y-4.0541
M16
G05
M30
