%TF.GenerationSoftware,KiCad,Pcbnew,9.0.3*%
%TF.CreationDate,2025-07-20T22:32:55-06:00*%
%TF.ProjectId,bare_mega_1284,62617265-5f6d-4656-9761-5f313238342e,rev?*%
%TF.SameCoordinates,Original*%
%TF.FileFunction,Paste,Top*%
%TF.FilePolarity,Positive*%
%FSLAX46Y46*%
G04 Gerber Fmt 4.6, Leading zero omitted, Abs format (unit mm)*
G04 Created by KiCad (PCBNEW 9.0.3) date 2025-07-20 22:32:55*
%MOMM*%
%LPD*%
G01*
G04 APERTURE LIST*
G04 Aperture macros list*
%AMRoundRect*
0 Rectangle with rounded corners*
0 $1 Rounding radius*
0 $2 $3 $4 $5 $6 $7 $8 $9 X,Y pos of 4 corners*
0 Add a 4 corners polygon primitive as box body*
4,1,4,$2,$3,$4,$5,$6,$7,$8,$9,$2,$3,0*
0 Add four circle primitives for the rounded corners*
1,1,$1+$1,$2,$3*
1,1,$1+$1,$4,$5*
1,1,$1+$1,$6,$7*
1,1,$1+$1,$8,$9*
0 Add four rect primitives between the rounded corners*
20,1,$1+$1,$2,$3,$4,$5,0*
20,1,$1+$1,$4,$5,$6,$7,0*
20,1,$1+$1,$6,$7,$8,$9,0*
20,1,$1+$1,$8,$9,$2,$3,0*%
G04 Aperture macros list end*
%ADD10R,1.749196X1.102398*%
%ADD11R,0.812800X1.143000*%
%ADD12R,0.660400X0.990600*%
%ADD13R,1.102398X1.749196*%
%ADD14R,1.140000X1.470000*%
%ADD15RoundRect,0.250000X0.312500X0.625000X-0.312500X0.625000X-0.312500X-0.625000X0.312500X-0.625000X0*%
%ADD16R,0.280000X1.560000*%
%ADD17R,1.560000X0.280000*%
%ADD18R,0.800100X0.457200*%
%ADD19R,0.508000X1.473200*%
%ADD20R,1.473200X0.508000*%
%ADD21RoundRect,0.250000X1.075000X-0.362500X1.075000X0.362500X-1.075000X0.362500X-1.075000X-0.362500X0*%
%ADD22RoundRect,0.250000X-0.350000X-0.450000X0.350000X-0.450000X0.350000X0.450000X-0.350000X0.450000X0*%
%ADD23R,1.000000X0.700000*%
%ADD24R,3.500000X1.200000*%
%ADD25RoundRect,0.250000X-0.362500X-1.075000X0.362500X-1.075000X0.362500X1.075000X-0.362500X1.075000X0*%
G04 APERTURE END LIST*
D10*
%TO.C,C7*%
X138500000Y-89398802D03*
X138500000Y-92001198D03*
%TD*%
D11*
%TO.C,R1*%
X125449300Y-103000000D03*
X123950700Y-103000000D03*
%TD*%
D12*
%TO.C,LED1*%
X150473700Y-90100000D03*
X152226300Y-90100000D03*
%TD*%
D13*
%TO.C,C2*%
X155951198Y-107480000D03*
X153348802Y-107480000D03*
%TD*%
D10*
%TO.C,C4*%
X163300000Y-95448802D03*
X163300000Y-98051198D03*
%TD*%
%TO.C,C5*%
X163300000Y-102651198D03*
X163300000Y-100048802D03*
%TD*%
%TO.C,C1*%
X145750000Y-100751198D03*
X145750000Y-98148802D03*
%TD*%
%TO.C,C3*%
X155200000Y-88148802D03*
X155200000Y-90751198D03*
%TD*%
%TO.C,C6*%
X141200000Y-89298802D03*
X141200000Y-91901198D03*
%TD*%
%TO.C,C8*%
X128550000Y-88748802D03*
X128550000Y-91351198D03*
%TD*%
D14*
%TO.C,FL1*%
X142940000Y-94450000D03*
X141160000Y-94450000D03*
%TD*%
D11*
%TO.C,R2*%
X125549300Y-94300000D03*
X124050700Y-94300000D03*
%TD*%
D15*
%TO.C,R3*%
X124337500Y-96650000D03*
X127262500Y-96650000D03*
%TD*%
%TO.C,R4*%
X124337500Y-100650000D03*
X127262500Y-100650000D03*
%TD*%
D16*
%TO.C,U2*%
X132150000Y-94470000D03*
X132650000Y-94470000D03*
X133150000Y-94470000D03*
X133650000Y-94470000D03*
X134150000Y-94470000D03*
X134650000Y-94470000D03*
X135150000Y-94470000D03*
X135650000Y-94470000D03*
X136150000Y-94470000D03*
X136650000Y-94470000D03*
X137150000Y-94470000D03*
X137650000Y-94470000D03*
D17*
X139080000Y-95900000D03*
X139080000Y-96400000D03*
X139080000Y-96900000D03*
X139080000Y-97400000D03*
X139080000Y-97900000D03*
X139080000Y-98400000D03*
X139080000Y-98900000D03*
X139080000Y-99400000D03*
X139080000Y-99900000D03*
X139080000Y-100400000D03*
X139080000Y-100900000D03*
X139080000Y-101400000D03*
D16*
X137650000Y-102830000D03*
X137150000Y-102830000D03*
X136650000Y-102830000D03*
X136150000Y-102830000D03*
X135650000Y-102830000D03*
X135150000Y-102830000D03*
X134650000Y-102830000D03*
X134150000Y-102830000D03*
X133650000Y-102830000D03*
X133150000Y-102830000D03*
X132650000Y-102830000D03*
X132150000Y-102830000D03*
D17*
X130720000Y-101400000D03*
X130720000Y-100900000D03*
X130720000Y-100400000D03*
X130720000Y-99900000D03*
X130720000Y-99400000D03*
X130720000Y-98900000D03*
X130720000Y-98400000D03*
X130720000Y-97900000D03*
X130720000Y-97400000D03*
X130720000Y-96900000D03*
X130720000Y-96400000D03*
X130720000Y-95900000D03*
%TD*%
D18*
%TO.C,U3*%
X131399050Y-91600001D03*
X131399050Y-89699999D03*
X133900950Y-89699999D03*
X133900950Y-90650000D03*
X133900950Y-91600001D03*
%TD*%
D19*
%TO.C,U1*%
X150400000Y-93109600D03*
X151200001Y-93109600D03*
X152000000Y-93109600D03*
X152800001Y-93109600D03*
X153599999Y-93109600D03*
X154400000Y-93109600D03*
X155200001Y-93109600D03*
X155999999Y-93109600D03*
X156800000Y-93109600D03*
X157599999Y-93109600D03*
X158400000Y-93109600D03*
D20*
X160140400Y-94850000D03*
X160140400Y-95650001D03*
X160140400Y-96450000D03*
X160140400Y-97250001D03*
X160140400Y-98049999D03*
X160140400Y-98850000D03*
X160140400Y-99650001D03*
X160140400Y-100449999D03*
X160140400Y-101250000D03*
X160140400Y-102049999D03*
X160140400Y-102850000D03*
D19*
X158400000Y-104590400D03*
X157599999Y-104590400D03*
X156800000Y-104590400D03*
X155999999Y-104590400D03*
X155200001Y-104590400D03*
X154400000Y-104590400D03*
X153599999Y-104590400D03*
X152800001Y-104590400D03*
X152000000Y-104590400D03*
X151200001Y-104590400D03*
X150400000Y-104590400D03*
D20*
X148659600Y-102850000D03*
X148659600Y-102049999D03*
X148659600Y-101250000D03*
X148659600Y-100449999D03*
X148659600Y-99650001D03*
X148659600Y-98850000D03*
X148659600Y-98049999D03*
X148659600Y-97250001D03*
X148659600Y-96450000D03*
X148659600Y-95650001D03*
X148659600Y-94850000D03*
%TD*%
D21*
%TO.C,R5*%
X142500000Y-97375000D03*
X142500000Y-102000000D03*
%TD*%
D22*
%TO.C,R6*%
X148200000Y-90050000D03*
X146200000Y-90050000D03*
%TD*%
D23*
%TO.C,S1*%
X131800000Y-115830000D03*
X125800000Y-115830000D03*
X131800000Y-112130000D03*
X125800000Y-112130000D03*
%TD*%
D24*
%TO.C,Y1*%
X147300000Y-109230000D03*
X141800000Y-109230000D03*
%TD*%
D13*
%TO.C,C10*%
X154351198Y-109730000D03*
X151748802Y-109730000D03*
%TD*%
D25*
%TO.C,R7*%
X125800000Y-108230000D03*
X121175000Y-108230000D03*
%TD*%
D13*
%TO.C,C9*%
X135248802Y-109230000D03*
X137851198Y-109230000D03*
%TD*%
M02*
