%TF.GenerationSoftware,KiCad,Pcbnew,9.0.3*%
%TF.CreationDate,2025-07-20T22:32:54-06:00*%
%TF.ProjectId,bare_mega_1284,62617265-5f6d-4656-9761-5f313238342e,rev?*%
%TF.SameCoordinates,Original*%
%TF.FileFunction,Copper,L2,Inr*%
%TF.FilePolarity,Positive*%
%FSLAX46Y46*%
G04 Gerber Fmt 4.6, Leading zero omitted, Abs format (unit mm)*
G04 Created by KiCad (PCBNEW 9.0.3) date 2025-07-20 22:32:54*
%MOMM*%
%LPD*%
G01*
G04 APERTURE LIST*
%TA.AperFunction,ComponentPad*%
%ADD10C,0.650000*%
%TD*%
%TA.AperFunction,ComponentPad*%
%ADD11O,1.700000X0.900000*%
%TD*%
%TA.AperFunction,ComponentPad*%
%ADD12O,2.400000X0.900000*%
%TD*%
%TA.AperFunction,ComponentPad*%
%ADD13C,1.524000*%
%TD*%
%TA.AperFunction,ViaPad*%
%ADD14C,0.600000*%
%TD*%
G04 APERTURE END LIST*
D10*
%TO.N,GND*%
%TO.C,J1*%
X121860000Y-95675000D03*
%TO.N,+5V*%
X121860000Y-96525000D03*
%TO.N,Net-(J1-CC1)*%
X121860000Y-97375000D03*
%TO.N,/D_P*%
X121860000Y-98225000D03*
%TO.N,/D_N*%
X121860000Y-99075000D03*
%TO.N,unconnected-(J1-SBU1-PadA8)*%
X121860000Y-99925000D03*
%TO.N,+5V*%
X121860000Y-100775000D03*
%TO.N,GND*%
X121860000Y-101625000D03*
X120510000Y-101625000D03*
%TO.N,+5V*%
X120510000Y-100775000D03*
%TO.N,Net-(J1-CC2)*%
X120510000Y-99925000D03*
%TO.N,/D_P*%
X120510000Y-99075000D03*
%TO.N,/D_N*%
X120510000Y-98225000D03*
%TO.N,unconnected-(J1-SBU2-PadB8)*%
X120510000Y-97375000D03*
%TO.N,+5V*%
X120510000Y-96525000D03*
%TO.N,GND*%
X120510000Y-95675000D03*
D11*
X117500000Y-94325000D03*
X117500000Y-102975000D03*
D12*
X120880000Y-94325000D03*
X120880000Y-102975000D03*
%TD*%
D13*
%TO.N,GND*%
%TO.C,CON1*%
X168410000Y-94140000D03*
%TO.N,/MISO*%
X170950000Y-94140000D03*
%TO.N,GND*%
X168410000Y-96680000D03*
%TO.N,/SCK*%
X170950000Y-96680000D03*
%TO.N,unconnected-(CON1-Pad6)*%
X168410000Y-99220000D03*
%TO.N,/RES*%
X170950000Y-99220000D03*
%TO.N,unconnected-(CON1-Pad4)*%
X168410000Y-101760000D03*
%TO.N,unconnected-(CON1-Pad3)*%
X170950000Y-101760000D03*
%TO.N,+5V*%
X168410000Y-104300000D03*
%TO.N,/MOSI*%
X170950000Y-104300000D03*
%TD*%
D14*
%TO.N,Net-(U2-RESET#)*%
X140800000Y-97730000D03*
X140359999Y-96442812D03*
%TO.N,+5V*%
X136050000Y-92980000D03*
X136300000Y-92230000D03*
X136300000Y-92230000D03*
X136300000Y-92230000D03*
X136300000Y-92230000D03*
X136300000Y-92230000D03*
X136300000Y-92230000D03*
X136300000Y-92230000D03*
X135300000Y-92230000D03*
X135300000Y-92230000D03*
X135300000Y-92230000D03*
X166550000Y-104230000D03*
%TO.N,Net-(U1-(PCINT26{slash}RXD1{slash}INT0)_PD2)*%
X146050000Y-113230000D03*
%TO.N,/MISO*%
X150166835Y-95613165D03*
X166300000Y-95480000D03*
%TO.N,/SCK*%
X150050000Y-96480000D03*
X165800000Y-100480000D03*
%TO.N,Net-(U1-(PCINT26{slash}RXD1{slash}INT0)_PD2)*%
X147800000Y-104980000D03*
%TO.N,/TXD*%
X147636835Y-101114010D03*
X132202760Y-104950713D03*
%TO.N,/RXD*%
X132550000Y-104230000D03*
X147636835Y-103730000D03*
%TO.N,/XTAL2*%
X147050000Y-107980000D03*
X146994153Y-105937318D03*
%TO.N,Net-(J1-CC1)*%
X125800000Y-101480000D03*
%TO.N,+5V*%
X123300000Y-95730000D03*
X123050000Y-100730000D03*
X146050000Y-91730000D03*
X153550000Y-91480000D03*
X155300000Y-91730000D03*
X144300000Y-94480000D03*
X145800000Y-96730000D03*
X147300000Y-97980000D03*
X154300000Y-105950802D03*
X151800000Y-107730000D03*
X123300000Y-105730000D03*
X129300000Y-101480000D03*
X137800000Y-104480000D03*
X142550000Y-103480000D03*
X133300000Y-93230000D03*
%TO.N,GND*%
X126800000Y-94230000D03*
X126550000Y-102980000D03*
X157551000Y-107730000D03*
X156300000Y-109730000D03*
X133800000Y-109230000D03*
X133800000Y-115980000D03*
X134050000Y-112230000D03*
X133000003Y-95980000D03*
X132300000Y-95980000D03*
X132050000Y-97480000D03*
X132050000Y-100279997D03*
X132050000Y-100980000D03*
X136605297Y-101661942D03*
X137235671Y-101631975D03*
X137800000Y-96480000D03*
X137550000Y-95980000D03*
X135550000Y-95980000D03*
X145800000Y-101980000D03*
X154300000Y-94730000D03*
X150050000Y-98980000D03*
X155300000Y-102980000D03*
X161550000Y-98970000D03*
X163300000Y-103730000D03*
X163300000Y-94230000D03*
X155300000Y-86980000D03*
X153050000Y-90230000D03*
X141050000Y-88230000D03*
X138550000Y-88230000D03*
X135050000Y-90730000D03*
X128550000Y-87480000D03*
%TO.N,/D_P*%
X123864232Y-99243871D03*
%TO.N,/D_N*%
X123082256Y-99075000D03*
%TD*%
%TA.AperFunction,Conductor*%
%TO.N,+5V*%
G36*
X134154166Y-90835492D02*
G01*
X134221020Y-90855784D01*
X134266293Y-90909002D01*
X134274652Y-90935292D01*
X134280262Y-90963494D01*
X134280264Y-90963501D01*
X134340602Y-91109172D01*
X134340609Y-91109185D01*
X134428210Y-91240288D01*
X134428213Y-91240292D01*
X134539707Y-91351786D01*
X134539711Y-91351789D01*
X134670814Y-91439390D01*
X134670827Y-91439397D01*
X134816498Y-91499735D01*
X134816503Y-91499737D01*
X134971153Y-91530499D01*
X134971156Y-91530500D01*
X134971158Y-91530500D01*
X135128844Y-91530500D01*
X135128845Y-91530499D01*
X135283497Y-91499737D01*
X135429179Y-91439394D01*
X135560289Y-91351789D01*
X135671789Y-91240289D01*
X135759394Y-91109179D01*
X135819737Y-90963497D01*
X135822108Y-90951575D01*
X135854488Y-90889667D01*
X135915202Y-90855090D01*
X135944841Y-90851771D01*
X152833385Y-91005303D01*
X152856429Y-91007678D01*
X152952388Y-91026766D01*
X152971157Y-91030500D01*
X152971158Y-91030500D01*
X153128844Y-91030500D01*
X153150755Y-91026141D01*
X153224537Y-91011464D01*
X153249833Y-91009089D01*
X167056394Y-91134603D01*
X167123252Y-91154896D01*
X167168525Y-91208114D01*
X167179258Y-91260129D01*
X167134511Y-94884610D01*
X167114000Y-94951401D01*
X167060635Y-94996501D01*
X166991359Y-95005590D01*
X166928167Y-94975782D01*
X166922839Y-94970760D01*
X166810292Y-94858213D01*
X166810288Y-94858210D01*
X166679185Y-94770609D01*
X166679172Y-94770602D01*
X166533501Y-94710264D01*
X166533489Y-94710261D01*
X166378845Y-94679500D01*
X166378842Y-94679500D01*
X166221158Y-94679500D01*
X166221155Y-94679500D01*
X166066510Y-94710261D01*
X166066498Y-94710264D01*
X165920827Y-94770602D01*
X165920814Y-94770609D01*
X165789711Y-94858210D01*
X165789707Y-94858213D01*
X165678213Y-94969707D01*
X165678210Y-94969711D01*
X165590609Y-95100814D01*
X165590602Y-95100827D01*
X165530264Y-95246498D01*
X165530261Y-95246510D01*
X165499500Y-95401153D01*
X165499500Y-95558846D01*
X165530261Y-95713489D01*
X165530264Y-95713501D01*
X165590602Y-95859172D01*
X165590609Y-95859185D01*
X165678210Y-95990288D01*
X165678213Y-95990292D01*
X165789707Y-96101786D01*
X165789711Y-96101789D01*
X165920814Y-96189390D01*
X165920827Y-96189397D01*
X166066498Y-96249735D01*
X166066503Y-96249737D01*
X166221153Y-96280499D01*
X166221156Y-96280500D01*
X166221158Y-96280500D01*
X166378844Y-96280500D01*
X166378845Y-96280499D01*
X166533497Y-96249737D01*
X166650616Y-96201225D01*
X166679172Y-96189397D01*
X166679172Y-96189396D01*
X166679179Y-96189394D01*
X166810289Y-96101789D01*
X166907917Y-96004160D01*
X166969238Y-95970677D01*
X167038930Y-95975661D01*
X167094864Y-96017532D01*
X167119281Y-96082996D01*
X167119588Y-96093374D01*
X166930619Y-111399841D01*
X166910108Y-111466632D01*
X166856743Y-111511732D01*
X166807128Y-111522309D01*
X134655893Y-111651951D01*
X134588775Y-111632537D01*
X134567712Y-111615633D01*
X134560292Y-111608213D01*
X134560288Y-111608210D01*
X134429185Y-111520609D01*
X134429172Y-111520602D01*
X134283501Y-111460264D01*
X134283489Y-111460261D01*
X134128845Y-111429500D01*
X134128842Y-111429500D01*
X133971158Y-111429500D01*
X133971155Y-111429500D01*
X133816510Y-111460261D01*
X133816498Y-111460264D01*
X133670827Y-111520602D01*
X133670814Y-111520609D01*
X133539714Y-111608208D01*
X133539712Y-111608209D01*
X133527381Y-111620540D01*
X133466056Y-111654021D01*
X133440205Y-111656852D01*
X122674500Y-111700263D01*
X122607382Y-111680849D01*
X122561414Y-111628230D01*
X122550000Y-111576264D01*
X122550000Y-109151153D01*
X132999500Y-109151153D01*
X132999500Y-109308846D01*
X133030261Y-109463489D01*
X133030264Y-109463501D01*
X133090602Y-109609172D01*
X133090609Y-109609185D01*
X133178210Y-109740288D01*
X133178213Y-109740292D01*
X133289707Y-109851786D01*
X133289711Y-109851789D01*
X133420814Y-109939390D01*
X133420827Y-109939397D01*
X133566498Y-109999735D01*
X133566503Y-109999737D01*
X133721153Y-110030499D01*
X133721156Y-110030500D01*
X133721158Y-110030500D01*
X133878844Y-110030500D01*
X133878845Y-110030499D01*
X134033497Y-109999737D01*
X134179179Y-109939394D01*
X134310289Y-109851789D01*
X134421789Y-109740289D01*
X134481348Y-109651153D01*
X155499500Y-109651153D01*
X155499500Y-109808846D01*
X155530261Y-109963489D01*
X155530264Y-109963501D01*
X155590602Y-110109172D01*
X155590609Y-110109185D01*
X155678210Y-110240288D01*
X155678213Y-110240292D01*
X155789707Y-110351786D01*
X155789711Y-110351789D01*
X155920814Y-110439390D01*
X155920827Y-110439397D01*
X156066498Y-110499735D01*
X156066503Y-110499737D01*
X156221153Y-110530499D01*
X156221156Y-110530500D01*
X156221158Y-110530500D01*
X156378844Y-110530500D01*
X156378845Y-110530499D01*
X156533497Y-110499737D01*
X156679179Y-110439394D01*
X156810289Y-110351789D01*
X156921789Y-110240289D01*
X157009394Y-110109179D01*
X157069737Y-109963497D01*
X157100500Y-109808842D01*
X157100500Y-109651158D01*
X157100500Y-109651155D01*
X157100499Y-109651153D01*
X157069738Y-109496510D01*
X157069737Y-109496503D01*
X157056062Y-109463489D01*
X157009397Y-109350827D01*
X157009390Y-109350814D01*
X156921789Y-109219711D01*
X156921786Y-109219707D01*
X156810292Y-109108213D01*
X156810288Y-109108210D01*
X156679185Y-109020609D01*
X156679172Y-109020602D01*
X156533501Y-108960264D01*
X156533489Y-108960261D01*
X156378845Y-108929500D01*
X156378842Y-108929500D01*
X156221158Y-108929500D01*
X156221155Y-108929500D01*
X156066510Y-108960261D01*
X156066498Y-108960264D01*
X155920827Y-109020602D01*
X155920814Y-109020609D01*
X155789711Y-109108210D01*
X155789707Y-109108213D01*
X155678213Y-109219707D01*
X155678210Y-109219711D01*
X155590609Y-109350814D01*
X155590602Y-109350827D01*
X155530264Y-109496498D01*
X155530261Y-109496510D01*
X155499500Y-109651153D01*
X134481348Y-109651153D01*
X134509394Y-109609179D01*
X134569737Y-109463497D01*
X134600500Y-109308842D01*
X134600500Y-109151158D01*
X134600500Y-109151155D01*
X134600499Y-109151153D01*
X134574531Y-109020606D01*
X134569737Y-108996503D01*
X134569735Y-108996498D01*
X134509397Y-108850827D01*
X134509390Y-108850814D01*
X134421789Y-108719711D01*
X134421786Y-108719707D01*
X134310292Y-108608213D01*
X134310288Y-108608210D01*
X134179185Y-108520609D01*
X134179172Y-108520602D01*
X134033501Y-108460264D01*
X134033489Y-108460261D01*
X133878845Y-108429500D01*
X133878842Y-108429500D01*
X133721158Y-108429500D01*
X133721155Y-108429500D01*
X133566510Y-108460261D01*
X133566498Y-108460264D01*
X133420827Y-108520602D01*
X133420814Y-108520609D01*
X133289711Y-108608210D01*
X133289707Y-108608213D01*
X133178213Y-108719707D01*
X133178210Y-108719711D01*
X133090609Y-108850814D01*
X133090602Y-108850827D01*
X133030264Y-108996498D01*
X133030261Y-108996510D01*
X132999500Y-109151153D01*
X122550000Y-109151153D01*
X122550000Y-107901153D01*
X146249500Y-107901153D01*
X146249500Y-108058846D01*
X146280261Y-108213489D01*
X146280264Y-108213501D01*
X146340602Y-108359172D01*
X146340609Y-108359185D01*
X146428210Y-108490288D01*
X146428213Y-108490292D01*
X146539707Y-108601786D01*
X146539711Y-108601789D01*
X146670814Y-108689390D01*
X146670827Y-108689397D01*
X146744013Y-108719711D01*
X146816503Y-108749737D01*
X146971153Y-108780499D01*
X146971156Y-108780500D01*
X146971158Y-108780500D01*
X147128844Y-108780500D01*
X147128845Y-108780499D01*
X147283497Y-108749737D01*
X147429179Y-108689394D01*
X147560289Y-108601789D01*
X147671789Y-108490289D01*
X147759394Y-108359179D01*
X147819737Y-108213497D01*
X147850500Y-108058842D01*
X147850500Y-107901158D01*
X147850500Y-107901155D01*
X147850499Y-107901153D01*
X147819738Y-107746510D01*
X147819737Y-107746503D01*
X147780242Y-107651153D01*
X156750500Y-107651153D01*
X156750500Y-107808846D01*
X156781261Y-107963489D01*
X156781264Y-107963501D01*
X156841602Y-108109172D01*
X156841609Y-108109185D01*
X156929210Y-108240288D01*
X156929213Y-108240292D01*
X157040707Y-108351786D01*
X157040711Y-108351789D01*
X157171814Y-108439390D01*
X157171827Y-108439397D01*
X157317498Y-108499735D01*
X157317503Y-108499737D01*
X157472153Y-108530499D01*
X157472156Y-108530500D01*
X157472158Y-108530500D01*
X157629844Y-108530500D01*
X157629845Y-108530499D01*
X157784497Y-108499737D01*
X157930179Y-108439394D01*
X158061289Y-108351789D01*
X158172789Y-108240289D01*
X158260394Y-108109179D01*
X158320737Y-107963497D01*
X158351500Y-107808842D01*
X158351500Y-107651158D01*
X158351500Y-107651155D01*
X158351499Y-107651153D01*
X158320738Y-107496510D01*
X158320737Y-107496503D01*
X158320735Y-107496498D01*
X158260397Y-107350827D01*
X158260390Y-107350814D01*
X158172789Y-107219711D01*
X158172786Y-107219707D01*
X158061292Y-107108213D01*
X158061288Y-107108210D01*
X157930185Y-107020609D01*
X157930172Y-107020602D01*
X157784501Y-106960264D01*
X157784489Y-106960261D01*
X157629845Y-106929500D01*
X157629842Y-106929500D01*
X157472158Y-106929500D01*
X157472155Y-106929500D01*
X157317510Y-106960261D01*
X157317498Y-106960264D01*
X157171827Y-107020602D01*
X157171814Y-107020609D01*
X157040711Y-107108210D01*
X157040707Y-107108213D01*
X156929213Y-107219707D01*
X156929210Y-107219711D01*
X156841609Y-107350814D01*
X156841602Y-107350827D01*
X156781264Y-107496498D01*
X156781261Y-107496510D01*
X156750500Y-107651153D01*
X147780242Y-107651153D01*
X147779933Y-107650408D01*
X147759397Y-107600827D01*
X147759390Y-107600814D01*
X147671789Y-107469711D01*
X147671786Y-107469707D01*
X147560292Y-107358213D01*
X147560288Y-107358210D01*
X147429185Y-107270609D01*
X147429172Y-107270602D01*
X147283501Y-107210264D01*
X147283489Y-107210261D01*
X147128845Y-107179500D01*
X147128842Y-107179500D01*
X146971158Y-107179500D01*
X146971155Y-107179500D01*
X146816510Y-107210261D01*
X146816498Y-107210264D01*
X146670827Y-107270602D01*
X146670814Y-107270609D01*
X146539711Y-107358210D01*
X146539707Y-107358213D01*
X146428213Y-107469707D01*
X146428210Y-107469711D01*
X146340609Y-107600814D01*
X146340602Y-107600827D01*
X146280264Y-107746498D01*
X146280261Y-107746510D01*
X146249500Y-107901153D01*
X122550000Y-107901153D01*
X122550000Y-105858471D01*
X146193653Y-105858471D01*
X146193653Y-106016164D01*
X146224414Y-106170807D01*
X146224417Y-106170819D01*
X146284755Y-106316490D01*
X146284762Y-106316503D01*
X146372363Y-106447606D01*
X146372366Y-106447610D01*
X146483860Y-106559104D01*
X146483864Y-106559107D01*
X146614967Y-106646708D01*
X146614980Y-106646715D01*
X146760651Y-106707053D01*
X146760656Y-106707055D01*
X146915306Y-106737817D01*
X146915309Y-106737818D01*
X146915311Y-106737818D01*
X147072997Y-106737818D01*
X147072998Y-106737817D01*
X147227650Y-106707055D01*
X147373332Y-106646712D01*
X147504442Y-106559107D01*
X147615942Y-106447607D01*
X147703547Y-106316497D01*
X147763890Y-106170815D01*
X147794653Y-106016160D01*
X147794653Y-105899010D01*
X147814338Y-105831971D01*
X147867142Y-105786216D01*
X147894462Y-105777393D01*
X147901635Y-105775966D01*
X148033497Y-105749737D01*
X148179179Y-105689394D01*
X148310289Y-105601789D01*
X148421789Y-105490289D01*
X148509394Y-105359179D01*
X148521523Y-105329898D01*
X148569735Y-105213501D01*
X148569737Y-105213497D01*
X148600500Y-105058842D01*
X148600500Y-104901158D01*
X148600500Y-104901155D01*
X148600499Y-104901153D01*
X148569738Y-104746510D01*
X148569737Y-104746503D01*
X148557604Y-104717211D01*
X148509397Y-104600827D01*
X148509390Y-104600814D01*
X148421789Y-104469711D01*
X148421786Y-104469707D01*
X148305982Y-104353903D01*
X148307487Y-104352397D01*
X148273579Y-104302629D01*
X148271701Y-104232785D01*
X148288471Y-104195618D01*
X148346229Y-104109179D01*
X148406572Y-103963497D01*
X148437335Y-103808842D01*
X148437335Y-103651158D01*
X148437335Y-103651155D01*
X148437334Y-103651153D01*
X148411366Y-103520606D01*
X148406572Y-103496503D01*
X148403998Y-103490288D01*
X148346232Y-103350827D01*
X148346225Y-103350814D01*
X148258624Y-103219711D01*
X148258621Y-103219707D01*
X148147127Y-103108213D01*
X148147123Y-103108210D01*
X148016020Y-103020609D01*
X148016008Y-103020602D01*
X147989509Y-103009627D01*
X147870336Y-102960264D01*
X147870324Y-102960261D01*
X147715680Y-102929500D01*
X147715677Y-102929500D01*
X147557993Y-102929500D01*
X147557990Y-102929500D01*
X147403345Y-102960261D01*
X147403333Y-102960264D01*
X147257662Y-103020602D01*
X147257649Y-103020609D01*
X147126546Y-103108210D01*
X147126542Y-103108213D01*
X147015048Y-103219707D01*
X147015045Y-103219711D01*
X146927444Y-103350814D01*
X146927437Y-103350827D01*
X146867099Y-103496498D01*
X146867096Y-103496510D01*
X146836335Y-103651153D01*
X146836335Y-103808846D01*
X146867096Y-103963489D01*
X146867099Y-103963501D01*
X146927437Y-104109172D01*
X146927444Y-104109185D01*
X147015045Y-104240288D01*
X147015048Y-104240292D01*
X147130853Y-104356097D01*
X147129349Y-104357600D01*
X147163261Y-104407392D01*
X147165127Y-104477236D01*
X147148362Y-104514381D01*
X147090608Y-104600816D01*
X147090602Y-104600827D01*
X147030264Y-104746498D01*
X147030261Y-104746510D01*
X146999500Y-104901153D01*
X146999500Y-105018307D01*
X146979815Y-105085346D01*
X146927011Y-105131101D01*
X146899692Y-105139924D01*
X146760661Y-105167579D01*
X146760651Y-105167582D01*
X146614980Y-105227920D01*
X146614967Y-105227927D01*
X146483864Y-105315528D01*
X146483860Y-105315531D01*
X146372366Y-105427025D01*
X146372363Y-105427029D01*
X146284762Y-105558132D01*
X146284755Y-105558145D01*
X146224417Y-105703816D01*
X146224414Y-105703828D01*
X146193653Y-105858471D01*
X122550000Y-105858471D01*
X122550000Y-104871866D01*
X131402260Y-104871866D01*
X131402260Y-105029559D01*
X131433021Y-105184202D01*
X131433024Y-105184214D01*
X131493362Y-105329885D01*
X131493369Y-105329898D01*
X131580970Y-105461001D01*
X131580973Y-105461005D01*
X131692467Y-105572499D01*
X131692471Y-105572502D01*
X131823574Y-105660103D01*
X131823587Y-105660110D01*
X131969258Y-105720448D01*
X131969263Y-105720450D01*
X132116488Y-105749735D01*
X132123913Y-105751212D01*
X132123916Y-105751213D01*
X132123918Y-105751213D01*
X132281604Y-105751213D01*
X132384392Y-105730767D01*
X132384392Y-105730766D01*
X132436257Y-105720450D01*
X132581939Y-105660107D01*
X132713049Y-105572502D01*
X132824549Y-105461002D01*
X132912154Y-105329892D01*
X132918103Y-105315531D01*
X132972495Y-105184214D01*
X132972497Y-105184210D01*
X133003260Y-105029555D01*
X133003260Y-104956173D01*
X133022945Y-104889134D01*
X133055700Y-104855789D01*
X133055585Y-104855649D01*
X133056892Y-104854575D01*
X133058372Y-104853069D01*
X133060289Y-104851789D01*
X133171789Y-104740289D01*
X133259394Y-104609179D01*
X133262854Y-104600827D01*
X133298660Y-104514381D01*
X133319737Y-104463497D01*
X133350500Y-104308842D01*
X133350500Y-104151158D01*
X133350500Y-104151155D01*
X133350499Y-104151153D01*
X133319738Y-103996510D01*
X133319737Y-103996503D01*
X133275197Y-103888973D01*
X133259397Y-103850827D01*
X133259390Y-103850814D01*
X133171789Y-103719711D01*
X133171786Y-103719707D01*
X133060292Y-103608213D01*
X133060288Y-103608210D01*
X132929185Y-103520609D01*
X132929172Y-103520602D01*
X132783501Y-103460264D01*
X132783489Y-103460261D01*
X132628845Y-103429500D01*
X132628842Y-103429500D01*
X132471158Y-103429500D01*
X132471155Y-103429500D01*
X132316510Y-103460261D01*
X132316498Y-103460264D01*
X132170827Y-103520602D01*
X132170814Y-103520609D01*
X132039711Y-103608210D01*
X132039707Y-103608213D01*
X131928213Y-103719707D01*
X131928210Y-103719711D01*
X131840609Y-103850814D01*
X131840602Y-103850827D01*
X131780264Y-103996498D01*
X131780261Y-103996510D01*
X131749500Y-104151153D01*
X131749500Y-104224538D01*
X131729815Y-104291577D01*
X131697064Y-104324920D01*
X131697179Y-104325060D01*
X131695885Y-104326121D01*
X131694399Y-104327635D01*
X131692472Y-104328922D01*
X131692467Y-104328926D01*
X131580973Y-104440420D01*
X131580970Y-104440424D01*
X131493369Y-104571527D01*
X131493362Y-104571540D01*
X131433024Y-104717211D01*
X131433021Y-104717223D01*
X131402260Y-104871866D01*
X122550000Y-104871866D01*
X122550000Y-103234161D01*
X122552383Y-103209969D01*
X122580500Y-103068618D01*
X122580500Y-102881383D01*
X122580499Y-102881380D01*
X122552383Y-102740029D01*
X122550000Y-102715838D01*
X122550000Y-102115817D01*
X122569685Y-102048778D01*
X122570899Y-102046925D01*
X122591543Y-102016029D01*
X122591544Y-102016026D01*
X122591548Y-102016021D01*
X122593562Y-102011160D01*
X122633595Y-101914510D01*
X122653776Y-101865789D01*
X122664157Y-101813598D01*
X122685500Y-101706307D01*
X122685500Y-101543692D01*
X122660748Y-101419258D01*
X122657146Y-101401153D01*
X124999500Y-101401153D01*
X124999500Y-101558846D01*
X125030261Y-101713489D01*
X125030264Y-101713501D01*
X125090602Y-101859172D01*
X125090609Y-101859185D01*
X125178210Y-101990288D01*
X125178213Y-101990292D01*
X125289707Y-102101786D01*
X125289711Y-102101789D01*
X125420814Y-102189390D01*
X125420827Y-102189397D01*
X125554178Y-102244632D01*
X125566503Y-102249737D01*
X125721153Y-102280499D01*
X125721156Y-102280500D01*
X125822650Y-102280500D01*
X125889689Y-102300185D01*
X125935444Y-102352989D01*
X125945388Y-102422147D01*
X125925752Y-102473391D01*
X125840609Y-102600814D01*
X125840602Y-102600827D01*
X125780264Y-102746498D01*
X125780261Y-102746510D01*
X125749500Y-102901153D01*
X125749500Y-103058846D01*
X125780261Y-103213489D01*
X125780264Y-103213501D01*
X125840602Y-103359172D01*
X125840609Y-103359185D01*
X125928210Y-103490288D01*
X125928213Y-103490292D01*
X126039707Y-103601786D01*
X126039711Y-103601789D01*
X126170814Y-103689390D01*
X126170827Y-103689397D01*
X126244013Y-103719711D01*
X126316503Y-103749737D01*
X126471153Y-103780499D01*
X126471156Y-103780500D01*
X126471158Y-103780500D01*
X126628844Y-103780500D01*
X126628845Y-103780499D01*
X126783497Y-103749737D01*
X126929179Y-103689394D01*
X127060289Y-103601789D01*
X127171789Y-103490289D01*
X127259394Y-103359179D01*
X127262854Y-103350827D01*
X127273067Y-103326166D01*
X127319737Y-103213497D01*
X127350500Y-103058842D01*
X127350500Y-102901158D01*
X127350500Y-102901155D01*
X127350499Y-102901153D01*
X154499500Y-102901153D01*
X154499500Y-103058846D01*
X154530261Y-103213489D01*
X154530264Y-103213501D01*
X154590602Y-103359172D01*
X154590609Y-103359185D01*
X154678210Y-103490288D01*
X154678213Y-103490292D01*
X154789707Y-103601786D01*
X154789711Y-103601789D01*
X154920814Y-103689390D01*
X154920827Y-103689397D01*
X154994013Y-103719711D01*
X155066503Y-103749737D01*
X155221153Y-103780499D01*
X155221156Y-103780500D01*
X155221158Y-103780500D01*
X155378844Y-103780500D01*
X155378845Y-103780499D01*
X155533497Y-103749737D01*
X155679179Y-103689394D01*
X155736411Y-103651153D01*
X162499500Y-103651153D01*
X162499500Y-103808846D01*
X162530261Y-103963489D01*
X162530264Y-103963501D01*
X162590602Y-104109172D01*
X162590609Y-104109185D01*
X162678210Y-104240288D01*
X162678213Y-104240292D01*
X162789707Y-104351786D01*
X162789711Y-104351789D01*
X162920814Y-104439390D01*
X162920827Y-104439397D01*
X162994013Y-104469711D01*
X163066503Y-104499737D01*
X163221153Y-104530499D01*
X163221156Y-104530500D01*
X163221158Y-104530500D01*
X163378844Y-104530500D01*
X163378845Y-104530499D01*
X163533497Y-104499737D01*
X163646166Y-104453067D01*
X163679172Y-104439397D01*
X163679172Y-104439396D01*
X163679179Y-104439394D01*
X163810289Y-104351789D01*
X163921789Y-104240289D01*
X164009394Y-104109179D01*
X164069737Y-103963497D01*
X164100500Y-103808842D01*
X164100500Y-103651158D01*
X164100500Y-103651155D01*
X164100499Y-103651153D01*
X164074531Y-103520606D01*
X164069737Y-103496503D01*
X164067163Y-103490288D01*
X164009397Y-103350827D01*
X164009390Y-103350814D01*
X163921789Y-103219711D01*
X163921786Y-103219707D01*
X163810292Y-103108213D01*
X163810288Y-103108210D01*
X163679185Y-103020609D01*
X163679172Y-103020602D01*
X163533501Y-102960264D01*
X163533489Y-102960261D01*
X163378845Y-102929500D01*
X163378842Y-102929500D01*
X163221158Y-102929500D01*
X163221155Y-102929500D01*
X163066510Y-102960261D01*
X163066498Y-102960264D01*
X162920827Y-103020602D01*
X162920814Y-103020609D01*
X162789711Y-103108210D01*
X162789707Y-103108213D01*
X162678213Y-103219707D01*
X162678210Y-103219711D01*
X162590609Y-103350814D01*
X162590602Y-103350827D01*
X162530264Y-103496498D01*
X162530261Y-103496510D01*
X162499500Y-103651153D01*
X155736411Y-103651153D01*
X155810289Y-103601789D01*
X155831170Y-103580908D01*
X155854694Y-103557385D01*
X155921786Y-103490292D01*
X155921789Y-103490289D01*
X156009394Y-103359179D01*
X156012854Y-103350827D01*
X156023067Y-103326166D01*
X156069737Y-103213497D01*
X156100500Y-103058842D01*
X156100500Y-102901158D01*
X156100500Y-102901155D01*
X156100499Y-102901153D01*
X156069738Y-102746510D01*
X156069737Y-102746503D01*
X156009794Y-102601786D01*
X156009397Y-102600827D01*
X156009390Y-102600814D01*
X155921789Y-102469711D01*
X155921786Y-102469707D01*
X155810292Y-102358213D01*
X155810288Y-102358210D01*
X155679185Y-102270609D01*
X155679172Y-102270602D01*
X155533501Y-102210264D01*
X155533489Y-102210261D01*
X155378845Y-102179500D01*
X155378842Y-102179500D01*
X155221158Y-102179500D01*
X155221155Y-102179500D01*
X155066510Y-102210261D01*
X155066498Y-102210264D01*
X154920827Y-102270602D01*
X154920814Y-102270609D01*
X154789711Y-102358210D01*
X154789707Y-102358213D01*
X154678213Y-102469707D01*
X154678210Y-102469711D01*
X154590609Y-102600814D01*
X154590602Y-102600827D01*
X154530264Y-102746498D01*
X154530261Y-102746510D01*
X154499500Y-102901153D01*
X127350499Y-102901153D01*
X127319738Y-102746510D01*
X127319737Y-102746503D01*
X127259794Y-102601786D01*
X127259397Y-102600827D01*
X127259390Y-102600814D01*
X127171789Y-102469711D01*
X127171786Y-102469707D01*
X127060292Y-102358213D01*
X127060288Y-102358210D01*
X126929185Y-102270609D01*
X126929172Y-102270602D01*
X126783501Y-102210264D01*
X126783489Y-102210261D01*
X126628845Y-102179500D01*
X126628842Y-102179500D01*
X126527350Y-102179500D01*
X126460311Y-102159815D01*
X126414556Y-102107011D01*
X126404612Y-102037853D01*
X126424248Y-101986609D01*
X126509390Y-101859185D01*
X126509390Y-101859184D01*
X126509394Y-101859179D01*
X126569737Y-101713497D01*
X126600500Y-101558842D01*
X126600500Y-101401158D01*
X126600500Y-101401155D01*
X126600499Y-101401153D01*
X126576951Y-101282769D01*
X126569737Y-101246503D01*
X126564551Y-101233982D01*
X126509397Y-101100827D01*
X126509390Y-101100814D01*
X126421789Y-100969711D01*
X126421786Y-100969707D01*
X126310292Y-100858213D01*
X126310288Y-100858210D01*
X126179185Y-100770609D01*
X126179172Y-100770602D01*
X126033501Y-100710264D01*
X126033489Y-100710261D01*
X125878845Y-100679500D01*
X125878842Y-100679500D01*
X125721158Y-100679500D01*
X125721155Y-100679500D01*
X125566510Y-100710261D01*
X125566498Y-100710264D01*
X125420827Y-100770602D01*
X125420814Y-100770609D01*
X125289711Y-100858210D01*
X125289707Y-100858213D01*
X125178213Y-100969707D01*
X125178210Y-100969711D01*
X125090609Y-101100814D01*
X125090602Y-101100827D01*
X125030264Y-101246498D01*
X125030261Y-101246510D01*
X124999500Y-101401153D01*
X122657146Y-101401153D01*
X122653777Y-101384216D01*
X122653776Y-101384215D01*
X122653776Y-101384211D01*
X122591548Y-101233979D01*
X122591542Y-101233970D01*
X122570897Y-101203071D01*
X122550020Y-101136394D01*
X122550000Y-101134182D01*
X122550000Y-100415817D01*
X122561122Y-100364489D01*
X122565295Y-100355310D01*
X122591548Y-100316021D01*
X122639129Y-100201150D01*
X131249500Y-100201150D01*
X131249500Y-100358843D01*
X131280260Y-100513485D01*
X131280263Y-100513495D01*
X131308865Y-100582546D01*
X131316334Y-100652015D01*
X131308868Y-100677442D01*
X131280263Y-100746503D01*
X131280262Y-100746507D01*
X131280261Y-100746510D01*
X131280260Y-100746511D01*
X131249500Y-100901153D01*
X131249500Y-101058846D01*
X131280261Y-101213489D01*
X131280264Y-101213501D01*
X131340602Y-101359172D01*
X131340609Y-101359185D01*
X131428210Y-101490288D01*
X131428213Y-101490292D01*
X131539707Y-101601786D01*
X131539711Y-101601789D01*
X131670814Y-101689390D01*
X131670827Y-101689397D01*
X131782846Y-101735796D01*
X131816503Y-101749737D01*
X131971153Y-101780499D01*
X131971156Y-101780500D01*
X131971158Y-101780500D01*
X132128844Y-101780500D01*
X132128845Y-101780499D01*
X132283497Y-101749737D01*
X132429179Y-101689394D01*
X132560289Y-101601789D01*
X132578983Y-101583095D01*
X135804797Y-101583095D01*
X135804797Y-101740788D01*
X135835558Y-101895431D01*
X135835561Y-101895443D01*
X135895899Y-102041114D01*
X135895906Y-102041127D01*
X135983507Y-102172230D01*
X135983510Y-102172234D01*
X136095004Y-102283728D01*
X136095008Y-102283731D01*
X136226111Y-102371332D01*
X136226124Y-102371339D01*
X136371795Y-102431677D01*
X136371800Y-102431679D01*
X136526450Y-102462441D01*
X136526453Y-102462442D01*
X136526455Y-102462442D01*
X136684141Y-102462442D01*
X136684142Y-102462441D01*
X136838794Y-102431679D01*
X136909207Y-102402512D01*
X136978672Y-102395044D01*
X136996265Y-102400211D01*
X136996347Y-102399944D01*
X137002163Y-102401707D01*
X137002174Y-102401712D01*
X137152817Y-102431677D01*
X137156824Y-102432474D01*
X137156827Y-102432475D01*
X137156829Y-102432475D01*
X137314515Y-102432475D01*
X137314516Y-102432474D01*
X137469168Y-102401712D01*
X137614850Y-102341369D01*
X137745960Y-102253764D01*
X137857460Y-102142264D01*
X137945065Y-102011154D01*
X137990629Y-101901153D01*
X144999500Y-101901153D01*
X144999500Y-102058846D01*
X145030261Y-102213489D01*
X145030264Y-102213501D01*
X145090602Y-102359172D01*
X145090609Y-102359185D01*
X145178210Y-102490288D01*
X145178213Y-102490292D01*
X145289707Y-102601786D01*
X145289711Y-102601789D01*
X145420814Y-102689390D01*
X145420827Y-102689397D01*
X145558683Y-102746498D01*
X145566503Y-102749737D01*
X145721153Y-102780499D01*
X145721156Y-102780500D01*
X145721158Y-102780500D01*
X145878844Y-102780500D01*
X145878845Y-102780499D01*
X146033497Y-102749737D01*
X146179179Y-102689394D01*
X146310289Y-102601789D01*
X146421789Y-102490289D01*
X146509394Y-102359179D01*
X146569737Y-102213497D01*
X146600500Y-102058842D01*
X146600500Y-101901158D01*
X146600500Y-101901155D01*
X146600499Y-101901153D01*
X146593402Y-101865476D01*
X146569737Y-101746503D01*
X146554956Y-101710819D01*
X146509397Y-101600827D01*
X146509390Y-101600814D01*
X146421789Y-101469711D01*
X146421786Y-101469707D01*
X146310292Y-101358213D01*
X146310288Y-101358210D01*
X146179185Y-101270609D01*
X146179172Y-101270602D01*
X146033501Y-101210264D01*
X146033489Y-101210261D01*
X145878845Y-101179500D01*
X145878842Y-101179500D01*
X145721158Y-101179500D01*
X145721155Y-101179500D01*
X145566510Y-101210261D01*
X145566498Y-101210264D01*
X145420827Y-101270602D01*
X145420814Y-101270609D01*
X145289711Y-101358210D01*
X145289707Y-101358213D01*
X145178213Y-101469707D01*
X145178210Y-101469711D01*
X145090609Y-101600814D01*
X145090602Y-101600827D01*
X145030264Y-101746498D01*
X145030261Y-101746510D01*
X144999500Y-101901153D01*
X137990629Y-101901153D01*
X138005408Y-101865472D01*
X138036171Y-101710817D01*
X138036171Y-101553133D01*
X138036171Y-101553130D01*
X138036170Y-101553128D01*
X138034293Y-101543692D01*
X138005408Y-101398478D01*
X137999501Y-101384216D01*
X137945068Y-101252802D01*
X137945061Y-101252789D01*
X137857460Y-101121686D01*
X137857457Y-101121682D01*
X137770938Y-101035163D01*
X146836335Y-101035163D01*
X146836335Y-101192856D01*
X146867096Y-101347499D01*
X146867099Y-101347511D01*
X146927437Y-101493182D01*
X146927444Y-101493195D01*
X147015045Y-101624298D01*
X147015048Y-101624302D01*
X147126542Y-101735796D01*
X147126546Y-101735799D01*
X147257649Y-101823400D01*
X147257662Y-101823407D01*
X147403333Y-101883745D01*
X147403338Y-101883747D01*
X147557988Y-101914509D01*
X147557991Y-101914510D01*
X147557993Y-101914510D01*
X147715679Y-101914510D01*
X147715680Y-101914509D01*
X147870332Y-101883747D01*
X148016014Y-101823404D01*
X148147124Y-101735799D01*
X148258624Y-101624299D01*
X148346229Y-101493189D01*
X148355956Y-101469707D01*
X148402138Y-101358211D01*
X148406572Y-101347507D01*
X148437335Y-101192852D01*
X148437335Y-101035168D01*
X148437335Y-101035165D01*
X148437334Y-101035163D01*
X148432366Y-101010186D01*
X148406572Y-100880513D01*
X148399002Y-100862237D01*
X148346232Y-100734837D01*
X148346225Y-100734824D01*
X148258624Y-100603721D01*
X148258621Y-100603717D01*
X148147129Y-100492225D01*
X148147122Y-100492219D01*
X148016020Y-100404619D01*
X148016007Y-100404612D01*
X148007656Y-100401153D01*
X164999500Y-100401153D01*
X164999500Y-100558846D01*
X165030261Y-100713489D01*
X165030264Y-100713501D01*
X165090602Y-100859172D01*
X165090609Y-100859185D01*
X165178210Y-100990288D01*
X165178213Y-100990292D01*
X165289707Y-101101786D01*
X165289711Y-101101789D01*
X165420814Y-101189390D01*
X165420827Y-101189397D01*
X165558683Y-101246498D01*
X165566503Y-101249737D01*
X165695358Y-101275368D01*
X165721153Y-101280499D01*
X165721156Y-101280500D01*
X165721158Y-101280500D01*
X165878844Y-101280500D01*
X165878845Y-101280499D01*
X166033497Y-101249737D01*
X166179179Y-101189394D01*
X166310289Y-101101789D01*
X166421789Y-100990289D01*
X166509394Y-100859179D01*
X166569737Y-100713497D01*
X166600500Y-100558842D01*
X166600500Y-100401158D01*
X166600500Y-100401155D01*
X166600499Y-100401153D01*
X166569737Y-100246503D01*
X166569735Y-100246498D01*
X166509397Y-100100827D01*
X166509390Y-100100814D01*
X166421789Y-99969711D01*
X166421786Y-99969707D01*
X166310292Y-99858213D01*
X166310288Y-99858210D01*
X166179185Y-99770609D01*
X166179172Y-99770602D01*
X166033501Y-99710264D01*
X166033489Y-99710261D01*
X165878845Y-99679500D01*
X165878842Y-99679500D01*
X165721158Y-99679500D01*
X165721155Y-99679500D01*
X165566510Y-99710261D01*
X165566498Y-99710264D01*
X165420827Y-99770602D01*
X165420814Y-99770609D01*
X165289711Y-99858210D01*
X165289707Y-99858213D01*
X165178213Y-99969707D01*
X165178210Y-99969711D01*
X165090609Y-100100814D01*
X165090602Y-100100827D01*
X165030264Y-100246498D01*
X165030261Y-100246510D01*
X164999500Y-100401153D01*
X148007656Y-100401153D01*
X147870336Y-100344274D01*
X147870324Y-100344271D01*
X147715680Y-100313510D01*
X147715677Y-100313510D01*
X147557993Y-100313510D01*
X147557990Y-100313510D01*
X147403345Y-100344271D01*
X147403333Y-100344274D01*
X147257662Y-100404612D01*
X147257649Y-100404619D01*
X147126546Y-100492220D01*
X147126542Y-100492223D01*
X147015048Y-100603717D01*
X147015045Y-100603721D01*
X146927444Y-100734824D01*
X146927437Y-100734837D01*
X146867099Y-100880508D01*
X146867096Y-100880520D01*
X146836335Y-101035163D01*
X137770938Y-101035163D01*
X137745963Y-101010188D01*
X137745959Y-101010185D01*
X137614856Y-100922584D01*
X137614843Y-100922577D01*
X137469172Y-100862239D01*
X137469160Y-100862236D01*
X137314516Y-100831475D01*
X137314513Y-100831475D01*
X137156829Y-100831475D01*
X137156826Y-100831475D01*
X137002182Y-100862235D01*
X137002177Y-100862237D01*
X137002175Y-100862237D01*
X137002174Y-100862238D01*
X136958037Y-100880520D01*
X136931760Y-100891404D01*
X136862291Y-100898871D01*
X136844697Y-100893705D01*
X136844617Y-100893972D01*
X136838785Y-100892202D01*
X136684142Y-100861442D01*
X136684139Y-100861442D01*
X136526455Y-100861442D01*
X136526452Y-100861442D01*
X136371807Y-100892203D01*
X136371795Y-100892206D01*
X136226124Y-100952544D01*
X136226111Y-100952551D01*
X136095008Y-101040152D01*
X136095004Y-101040155D01*
X135983510Y-101151649D01*
X135983507Y-101151653D01*
X135895906Y-101282756D01*
X135895899Y-101282769D01*
X135835561Y-101428440D01*
X135835558Y-101428452D01*
X135804797Y-101583095D01*
X132578983Y-101583095D01*
X132671789Y-101490289D01*
X132759394Y-101359179D01*
X132819737Y-101213497D01*
X132850500Y-101058842D01*
X132850500Y-100901158D01*
X132850500Y-100901155D01*
X132850499Y-100901153D01*
X132824531Y-100770606D01*
X132819737Y-100746503D01*
X132791133Y-100677448D01*
X132783665Y-100607982D01*
X132791130Y-100582554D01*
X132819737Y-100513494D01*
X132850500Y-100358839D01*
X132850500Y-100201155D01*
X132850500Y-100201152D01*
X132850499Y-100201150D01*
X132819738Y-100046507D01*
X132819737Y-100046500D01*
X132803088Y-100006305D01*
X132759397Y-99900824D01*
X132759390Y-99900811D01*
X132671789Y-99769708D01*
X132671786Y-99769704D01*
X132560292Y-99658210D01*
X132560288Y-99658207D01*
X132429185Y-99570606D01*
X132429172Y-99570599D01*
X132283501Y-99510261D01*
X132283489Y-99510258D01*
X132128845Y-99479497D01*
X132128842Y-99479497D01*
X131971158Y-99479497D01*
X131971155Y-99479497D01*
X131816510Y-99510258D01*
X131816498Y-99510261D01*
X131670827Y-99570599D01*
X131670814Y-99570606D01*
X131539711Y-99658207D01*
X131539707Y-99658210D01*
X131428213Y-99769704D01*
X131428210Y-99769708D01*
X131340609Y-99900811D01*
X131340602Y-99900824D01*
X131280264Y-100046495D01*
X131280261Y-100046507D01*
X131249500Y-100201150D01*
X122639129Y-100201150D01*
X122653776Y-100165789D01*
X122684047Y-100013609D01*
X122685500Y-100006307D01*
X122685500Y-99962407D01*
X122705185Y-99895368D01*
X122757989Y-99849613D01*
X122827147Y-99839669D01*
X122845503Y-99843749D01*
X122848754Y-99844735D01*
X122848759Y-99844737D01*
X122848763Y-99844737D01*
X122848764Y-99844738D01*
X123003409Y-99875499D01*
X123003412Y-99875500D01*
X123003414Y-99875500D01*
X123161100Y-99875500D01*
X123161101Y-99875499D01*
X123210582Y-99865657D01*
X123270676Y-99853704D01*
X123340267Y-99859931D01*
X123363758Y-99872219D01*
X123485046Y-99953261D01*
X123485059Y-99953268D01*
X123630730Y-100013606D01*
X123630735Y-100013608D01*
X123775803Y-100042464D01*
X123785385Y-100044370D01*
X123785388Y-100044371D01*
X123785390Y-100044371D01*
X123943076Y-100044371D01*
X123943077Y-100044370D01*
X124097729Y-100013608D01*
X124243411Y-99953265D01*
X124374521Y-99865660D01*
X124486021Y-99754160D01*
X124573626Y-99623050D01*
X124633969Y-99477368D01*
X124664732Y-99322713D01*
X124664732Y-99165029D01*
X124664732Y-99165026D01*
X124664731Y-99165024D01*
X124655902Y-99120639D01*
X124633969Y-99010374D01*
X124633967Y-99010369D01*
X124605863Y-98942518D01*
X124588729Y-98901153D01*
X149249500Y-98901153D01*
X149249500Y-99058846D01*
X149280261Y-99213489D01*
X149280264Y-99213501D01*
X149340602Y-99359172D01*
X149340609Y-99359185D01*
X149428210Y-99490288D01*
X149428213Y-99490292D01*
X149539707Y-99601786D01*
X149539711Y-99601789D01*
X149670814Y-99689390D01*
X149670827Y-99689397D01*
X149792363Y-99739738D01*
X149816503Y-99749737D01*
X149971153Y-99780499D01*
X149971156Y-99780500D01*
X149971158Y-99780500D01*
X150128844Y-99780500D01*
X150128845Y-99780499D01*
X150283497Y-99749737D01*
X150429179Y-99689394D01*
X150560289Y-99601789D01*
X150671789Y-99490289D01*
X150759394Y-99359179D01*
X150819737Y-99213497D01*
X150850500Y-99058842D01*
X150850500Y-98901158D01*
X150848510Y-98891153D01*
X160749500Y-98891153D01*
X160749500Y-99048846D01*
X160780261Y-99203489D01*
X160780264Y-99203501D01*
X160840602Y-99349172D01*
X160840609Y-99349185D01*
X160928210Y-99480288D01*
X160928213Y-99480292D01*
X161039707Y-99591786D01*
X161039711Y-99591789D01*
X161170814Y-99679390D01*
X161170827Y-99679397D01*
X161245348Y-99710264D01*
X161316503Y-99739737D01*
X161467156Y-99769704D01*
X161471153Y-99770499D01*
X161471156Y-99770500D01*
X161471158Y-99770500D01*
X161628844Y-99770500D01*
X161628845Y-99770499D01*
X161783497Y-99739737D01*
X161896166Y-99693067D01*
X161929172Y-99679397D01*
X161929172Y-99679396D01*
X161929179Y-99679394D01*
X162060289Y-99591789D01*
X162171789Y-99480289D01*
X162259394Y-99349179D01*
X162270357Y-99322713D01*
X162319735Y-99203501D01*
X162319737Y-99203497D01*
X162350500Y-99048842D01*
X162350500Y-98891158D01*
X162350500Y-98891155D01*
X162350499Y-98891153D01*
X162345236Y-98864694D01*
X162319737Y-98736503D01*
X162318527Y-98733582D01*
X162259397Y-98590827D01*
X162259390Y-98590814D01*
X162171789Y-98459711D01*
X162171786Y-98459707D01*
X162060292Y-98348213D01*
X162060288Y-98348210D01*
X161929185Y-98260609D01*
X161929172Y-98260602D01*
X161783501Y-98200264D01*
X161783489Y-98200261D01*
X161628845Y-98169500D01*
X161628842Y-98169500D01*
X161471158Y-98169500D01*
X161471155Y-98169500D01*
X161316510Y-98200261D01*
X161316498Y-98200264D01*
X161170827Y-98260602D01*
X161170814Y-98260609D01*
X161039711Y-98348210D01*
X161039707Y-98348213D01*
X160928213Y-98459707D01*
X160928210Y-98459711D01*
X160840609Y-98590814D01*
X160840602Y-98590827D01*
X160780264Y-98736498D01*
X160780261Y-98736510D01*
X160749500Y-98891153D01*
X150848510Y-98891153D01*
X150819737Y-98746503D01*
X150793839Y-98683979D01*
X150759397Y-98600827D01*
X150759390Y-98600814D01*
X150671789Y-98469711D01*
X150671786Y-98469707D01*
X150560292Y-98358213D01*
X150560288Y-98358210D01*
X150429185Y-98270609D01*
X150429172Y-98270602D01*
X150283501Y-98210264D01*
X150283489Y-98210261D01*
X150128845Y-98179500D01*
X150128842Y-98179500D01*
X149971158Y-98179500D01*
X149971155Y-98179500D01*
X149816510Y-98210261D01*
X149816498Y-98210264D01*
X149670827Y-98270602D01*
X149670814Y-98270609D01*
X149539711Y-98358210D01*
X149539707Y-98358213D01*
X149428213Y-98469707D01*
X149428210Y-98469711D01*
X149340609Y-98600814D01*
X149340602Y-98600827D01*
X149280264Y-98746498D01*
X149280261Y-98746510D01*
X149249500Y-98901153D01*
X124588729Y-98901153D01*
X124573627Y-98864694D01*
X124573622Y-98864685D01*
X124486021Y-98733582D01*
X124486018Y-98733578D01*
X124374524Y-98622084D01*
X124374520Y-98622081D01*
X124243417Y-98534480D01*
X124243404Y-98534473D01*
X124097733Y-98474135D01*
X124097721Y-98474132D01*
X123943077Y-98443371D01*
X123943074Y-98443371D01*
X123785390Y-98443371D01*
X123785387Y-98443371D01*
X123675811Y-98465167D01*
X123606220Y-98458940D01*
X123582729Y-98446652D01*
X123461441Y-98365609D01*
X123461428Y-98365602D01*
X123315757Y-98305264D01*
X123315745Y-98305261D01*
X123161101Y-98274500D01*
X123161098Y-98274500D01*
X123003414Y-98274500D01*
X123003411Y-98274500D01*
X122848761Y-98305261D01*
X122845491Y-98306254D01*
X122843694Y-98306269D01*
X122842784Y-98306451D01*
X122842749Y-98306278D01*
X122775624Y-98306875D01*
X122716513Y-98269625D01*
X122686924Y-98206330D01*
X122685500Y-98187592D01*
X122685500Y-98143692D01*
X122653777Y-97984216D01*
X122653776Y-97984215D01*
X122653776Y-97984211D01*
X122597128Y-97847452D01*
X122589660Y-97777983D01*
X122597129Y-97752547D01*
X122613307Y-97713489D01*
X122653776Y-97615789D01*
X122685500Y-97456305D01*
X122685500Y-97401153D01*
X131249500Y-97401153D01*
X131249500Y-97558846D01*
X131280261Y-97713489D01*
X131280264Y-97713501D01*
X131340602Y-97859172D01*
X131340609Y-97859185D01*
X131428210Y-97990288D01*
X131428213Y-97990292D01*
X131539707Y-98101786D01*
X131539711Y-98101789D01*
X131670814Y-98189390D01*
X131670827Y-98189397D01*
X131816498Y-98249735D01*
X131816503Y-98249737D01*
X131971153Y-98280499D01*
X131971156Y-98280500D01*
X131971158Y-98280500D01*
X132128844Y-98280500D01*
X132128845Y-98280499D01*
X132283497Y-98249737D01*
X132429179Y-98189394D01*
X132560289Y-98101789D01*
X132671789Y-97990289D01*
X132759394Y-97859179D01*
X132819737Y-97713497D01*
X132850500Y-97558842D01*
X132850500Y-97401158D01*
X132850500Y-97401155D01*
X132850499Y-97401153D01*
X132829124Y-97293695D01*
X132819737Y-97246503D01*
X132819735Y-97246498D01*
X132759397Y-97100827D01*
X132759390Y-97100814D01*
X132671789Y-96969711D01*
X132671786Y-96969707D01*
X132662723Y-96960644D01*
X132629238Y-96899321D01*
X132634222Y-96829629D01*
X132676094Y-96773696D01*
X132741558Y-96749279D01*
X132774594Y-96751345D01*
X132804804Y-96757355D01*
X132921158Y-96780500D01*
X132921161Y-96780500D01*
X133078847Y-96780500D01*
X133078848Y-96780499D01*
X133233500Y-96749737D01*
X133379182Y-96689394D01*
X133510292Y-96601789D01*
X133621792Y-96490289D01*
X133709397Y-96359179D01*
X133769740Y-96213497D01*
X133800503Y-96058842D01*
X133800503Y-95901158D01*
X133800503Y-95901155D01*
X133800502Y-95901153D01*
X134749500Y-95901153D01*
X134749500Y-96058846D01*
X134780261Y-96213489D01*
X134780264Y-96213501D01*
X134840602Y-96359172D01*
X134840609Y-96359185D01*
X134928210Y-96490288D01*
X134928213Y-96490292D01*
X135039707Y-96601786D01*
X135039711Y-96601789D01*
X135170814Y-96689390D01*
X135170827Y-96689397D01*
X135315397Y-96749279D01*
X135316503Y-96749737D01*
X135465432Y-96779361D01*
X135471153Y-96780499D01*
X135471156Y-96780500D01*
X135471158Y-96780500D01*
X135628844Y-96780500D01*
X135628845Y-96780499D01*
X135783497Y-96749737D01*
X135929179Y-96689394D01*
X136060289Y-96601789D01*
X136171789Y-96490289D01*
X136259394Y-96359179D01*
X136319737Y-96213497D01*
X136350500Y-96058842D01*
X136350500Y-95901158D01*
X136350500Y-95901155D01*
X136350499Y-95901153D01*
X136749500Y-95901153D01*
X136749500Y-96058846D01*
X136780261Y-96213489D01*
X136780264Y-96213501D01*
X136840602Y-96359172D01*
X136840609Y-96359185D01*
X136928210Y-96490288D01*
X136928213Y-96490292D01*
X136973580Y-96535658D01*
X137007066Y-96596981D01*
X137007517Y-96599149D01*
X137030261Y-96713489D01*
X137030264Y-96713501D01*
X137090602Y-96859172D01*
X137090609Y-96859185D01*
X137178210Y-96990288D01*
X137178213Y-96990292D01*
X137289707Y-97101786D01*
X137289711Y-97101789D01*
X137420814Y-97189390D01*
X137420827Y-97189397D01*
X137494013Y-97219711D01*
X137566503Y-97249737D01*
X137721153Y-97280499D01*
X137721156Y-97280500D01*
X137721158Y-97280500D01*
X137878844Y-97280500D01*
X137878845Y-97280499D01*
X138033497Y-97249737D01*
X138179179Y-97189394D01*
X138310289Y-97101789D01*
X138421789Y-96990289D01*
X138509394Y-96859179D01*
X138513704Y-96848775D01*
X138544802Y-96773696D01*
X138569737Y-96713497D01*
X138600500Y-96558842D01*
X138600500Y-96401158D01*
X138600499Y-96401153D01*
X138596703Y-96382068D01*
X138596703Y-96382065D01*
X138593103Y-96363965D01*
X139559499Y-96363965D01*
X139559499Y-96521658D01*
X139590260Y-96676301D01*
X139590263Y-96676313D01*
X139650601Y-96821984D01*
X139650608Y-96821997D01*
X139738209Y-96953100D01*
X139738212Y-96953104D01*
X139849706Y-97064598D01*
X139849710Y-97064601D01*
X139980813Y-97152202D01*
X139980826Y-97152209D01*
X140031223Y-97173084D01*
X140085627Y-97216925D01*
X140107692Y-97283219D01*
X140093136Y-97346086D01*
X140090606Y-97350820D01*
X140030264Y-97496498D01*
X140030261Y-97496510D01*
X139999500Y-97651153D01*
X139999500Y-97808846D01*
X140030261Y-97963489D01*
X140030264Y-97963501D01*
X140090602Y-98109172D01*
X140090609Y-98109185D01*
X140178210Y-98240288D01*
X140178213Y-98240292D01*
X140289707Y-98351786D01*
X140289711Y-98351789D01*
X140420814Y-98439390D01*
X140420827Y-98439397D01*
X140516900Y-98479191D01*
X140566503Y-98499737D01*
X140721153Y-98530499D01*
X140721156Y-98530500D01*
X140721158Y-98530500D01*
X140878844Y-98530500D01*
X140878845Y-98530499D01*
X141033497Y-98499737D01*
X141179179Y-98439394D01*
X141310289Y-98351789D01*
X141421789Y-98240289D01*
X141509394Y-98109179D01*
X141569737Y-97963497D01*
X141600500Y-97808842D01*
X141600500Y-97651158D01*
X141600500Y-97651155D01*
X141600499Y-97651153D01*
X141582137Y-97558842D01*
X141569737Y-97496503D01*
X141569735Y-97496498D01*
X141509397Y-97350827D01*
X141509390Y-97350814D01*
X141421789Y-97219711D01*
X141421786Y-97219707D01*
X141310292Y-97108213D01*
X141310288Y-97108210D01*
X141179185Y-97020609D01*
X141179176Y-97020604D01*
X141128773Y-96999727D01*
X141074370Y-96955886D01*
X141052305Y-96889592D01*
X141066875Y-96826699D01*
X141069385Y-96822001D01*
X141069393Y-96821991D01*
X141129736Y-96676309D01*
X141160499Y-96521654D01*
X141160499Y-96401153D01*
X149249500Y-96401153D01*
X149249500Y-96558846D01*
X149280261Y-96713489D01*
X149280264Y-96713501D01*
X149340602Y-96859172D01*
X149340609Y-96859185D01*
X149428210Y-96990288D01*
X149428213Y-96990292D01*
X149539707Y-97101786D01*
X149539711Y-97101789D01*
X149670814Y-97189390D01*
X149670827Y-97189397D01*
X149744013Y-97219711D01*
X149816503Y-97249737D01*
X149971153Y-97280499D01*
X149971156Y-97280500D01*
X149971158Y-97280500D01*
X150128844Y-97280500D01*
X150128845Y-97280499D01*
X150283497Y-97249737D01*
X150429179Y-97189394D01*
X150560289Y-97101789D01*
X150671789Y-96990289D01*
X150759394Y-96859179D01*
X150763704Y-96848775D01*
X150794802Y-96773696D01*
X150819737Y-96713497D01*
X150850500Y-96558842D01*
X150850500Y-96401158D01*
X150850500Y-96401155D01*
X150850499Y-96401153D01*
X150819739Y-96246511D01*
X150819738Y-96246509D01*
X150819738Y-96246508D01*
X150819737Y-96246503D01*
X150801729Y-96203028D01*
X150794261Y-96133565D01*
X150813187Y-96086692D01*
X150876229Y-95992344D01*
X150885606Y-95969707D01*
X150918566Y-95890133D01*
X150936572Y-95846662D01*
X150967335Y-95692007D01*
X150967335Y-95534323D01*
X150967335Y-95534320D01*
X150967334Y-95534318D01*
X150962496Y-95509995D01*
X150936572Y-95379668D01*
X150891399Y-95270609D01*
X150876232Y-95233992D01*
X150876225Y-95233979D01*
X150788624Y-95102876D01*
X150788621Y-95102872D01*
X150677127Y-94991378D01*
X150677123Y-94991375D01*
X150546020Y-94903774D01*
X150546007Y-94903767D01*
X150400336Y-94843429D01*
X150400324Y-94843426D01*
X150245680Y-94812665D01*
X150245677Y-94812665D01*
X150087993Y-94812665D01*
X150087990Y-94812665D01*
X149933345Y-94843426D01*
X149933333Y-94843429D01*
X149787662Y-94903767D01*
X149787649Y-94903774D01*
X149656546Y-94991375D01*
X149656542Y-94991378D01*
X149545048Y-95102872D01*
X149545045Y-95102876D01*
X149457444Y-95233979D01*
X149457437Y-95233992D01*
X149397099Y-95379663D01*
X149397096Y-95379675D01*
X149366335Y-95534318D01*
X149366335Y-95692011D01*
X149397095Y-95846653D01*
X149397098Y-95846663D01*
X149415104Y-95890133D01*
X149422573Y-95959603D01*
X149403645Y-96006476D01*
X149340609Y-96100814D01*
X149340602Y-96100827D01*
X149280264Y-96246498D01*
X149280261Y-96246510D01*
X149249500Y-96401153D01*
X141160499Y-96401153D01*
X141160499Y-96363970D01*
X141160499Y-96363967D01*
X141160498Y-96363965D01*
X141150998Y-96316208D01*
X141129736Y-96209315D01*
X141098360Y-96133565D01*
X141069396Y-96063639D01*
X141069389Y-96063626D01*
X140981788Y-95932523D01*
X140981785Y-95932519D01*
X140870291Y-95821025D01*
X140870287Y-95821022D01*
X140739184Y-95733421D01*
X140739171Y-95733414D01*
X140593500Y-95673076D01*
X140593488Y-95673073D01*
X140438844Y-95642312D01*
X140438841Y-95642312D01*
X140281157Y-95642312D01*
X140281154Y-95642312D01*
X140126509Y-95673073D01*
X140126497Y-95673076D01*
X139980826Y-95733414D01*
X139980813Y-95733421D01*
X139849710Y-95821022D01*
X139849706Y-95821025D01*
X139738212Y-95932519D01*
X139738209Y-95932523D01*
X139650608Y-96063626D01*
X139650601Y-96063639D01*
X139590263Y-96209310D01*
X139590260Y-96209322D01*
X139559499Y-96363965D01*
X138593103Y-96363965D01*
X138569738Y-96246508D01*
X138569737Y-96246507D01*
X138569737Y-96246503D01*
X138554336Y-96209322D01*
X138509397Y-96100827D01*
X138509390Y-96100814D01*
X138421789Y-95969711D01*
X138421786Y-95969707D01*
X138376418Y-95924340D01*
X138342932Y-95863017D01*
X138342510Y-95860995D01*
X138319737Y-95746503D01*
X138289323Y-95673076D01*
X138259397Y-95600827D01*
X138259390Y-95600814D01*
X138171789Y-95469711D01*
X138171786Y-95469707D01*
X138060292Y-95358213D01*
X138060288Y-95358210D01*
X137929185Y-95270609D01*
X137929172Y-95270602D01*
X137783501Y-95210264D01*
X137783489Y-95210261D01*
X137628845Y-95179500D01*
X137628842Y-95179500D01*
X137471158Y-95179500D01*
X137471155Y-95179500D01*
X137316510Y-95210261D01*
X137316498Y-95210264D01*
X137170827Y-95270602D01*
X137170814Y-95270609D01*
X137039711Y-95358210D01*
X137039707Y-95358213D01*
X136928213Y-95469707D01*
X136928210Y-95469711D01*
X136840609Y-95600814D01*
X136840602Y-95600827D01*
X136780264Y-95746498D01*
X136780261Y-95746510D01*
X136749500Y-95901153D01*
X136350499Y-95901153D01*
X136319737Y-95746503D01*
X136314317Y-95733418D01*
X136259397Y-95600827D01*
X136259390Y-95600814D01*
X136171789Y-95469711D01*
X136171786Y-95469707D01*
X136060292Y-95358213D01*
X136060288Y-95358210D01*
X135929185Y-95270609D01*
X135929172Y-95270602D01*
X135783501Y-95210264D01*
X135783489Y-95210261D01*
X135628845Y-95179500D01*
X135628842Y-95179500D01*
X135471158Y-95179500D01*
X135471155Y-95179500D01*
X135316510Y-95210261D01*
X135316498Y-95210264D01*
X135170827Y-95270602D01*
X135170814Y-95270609D01*
X135039711Y-95358210D01*
X135039707Y-95358213D01*
X134928213Y-95469707D01*
X134928210Y-95469711D01*
X134840609Y-95600814D01*
X134840602Y-95600827D01*
X134780264Y-95746498D01*
X134780261Y-95746510D01*
X134749500Y-95901153D01*
X133800502Y-95901153D01*
X133769740Y-95746503D01*
X133764320Y-95733418D01*
X133709400Y-95600827D01*
X133709393Y-95600814D01*
X133621792Y-95469711D01*
X133621789Y-95469707D01*
X133510295Y-95358213D01*
X133510291Y-95358210D01*
X133379188Y-95270609D01*
X133379175Y-95270602D01*
X133233504Y-95210264D01*
X133233492Y-95210261D01*
X133078848Y-95179500D01*
X133078845Y-95179500D01*
X132921161Y-95179500D01*
X132921158Y-95179500D01*
X132766514Y-95210260D01*
X132766513Y-95210261D01*
X132766510Y-95210262D01*
X132766506Y-95210263D01*
X132697450Y-95238866D01*
X132627983Y-95246334D01*
X132602549Y-95238865D01*
X132533498Y-95210263D01*
X132533488Y-95210260D01*
X132378845Y-95179500D01*
X132378842Y-95179500D01*
X132221158Y-95179500D01*
X132221155Y-95179500D01*
X132066510Y-95210261D01*
X132066498Y-95210264D01*
X131920827Y-95270602D01*
X131920814Y-95270609D01*
X131789711Y-95358210D01*
X131789707Y-95358213D01*
X131678213Y-95469707D01*
X131678210Y-95469711D01*
X131590609Y-95600814D01*
X131590602Y-95600827D01*
X131530264Y-95746498D01*
X131530261Y-95746510D01*
X131499500Y-95901153D01*
X131499500Y-96058846D01*
X131530261Y-96213489D01*
X131530264Y-96213501D01*
X131590602Y-96359172D01*
X131590609Y-96359185D01*
X131678210Y-96490288D01*
X131678213Y-96490292D01*
X131743035Y-96555114D01*
X131776520Y-96616437D01*
X131771536Y-96686129D01*
X131729664Y-96742062D01*
X131702809Y-96757355D01*
X131670826Y-96770603D01*
X131670814Y-96770609D01*
X131539711Y-96858210D01*
X131539707Y-96858213D01*
X131428213Y-96969707D01*
X131428210Y-96969711D01*
X131340609Y-97100814D01*
X131340602Y-97100827D01*
X131280264Y-97246498D01*
X131280261Y-97246510D01*
X131249500Y-97401153D01*
X122685500Y-97401153D01*
X122685500Y-97293695D01*
X122685500Y-97293692D01*
X122653777Y-97134216D01*
X122653776Y-97134215D01*
X122653776Y-97134211D01*
X122591548Y-96983979D01*
X122591542Y-96983970D01*
X122570897Y-96953071D01*
X122550020Y-96886394D01*
X122550000Y-96884182D01*
X122550000Y-96165817D01*
X122569685Y-96098778D01*
X122570899Y-96096925D01*
X122591543Y-96066029D01*
X122591544Y-96066026D01*
X122591548Y-96066021D01*
X122653776Y-95915789D01*
X122665038Y-95859172D01*
X122685500Y-95756307D01*
X122685500Y-95593692D01*
X122653777Y-95434216D01*
X122653776Y-95434215D01*
X122653776Y-95434211D01*
X122591548Y-95283979D01*
X122585883Y-95275500D01*
X122570897Y-95253071D01*
X122550020Y-95186394D01*
X122550000Y-95184182D01*
X122550000Y-94584161D01*
X122552383Y-94559969D01*
X122580500Y-94418618D01*
X122580500Y-94231383D01*
X122580499Y-94231379D01*
X122568143Y-94169258D01*
X122564542Y-94151153D01*
X125999500Y-94151153D01*
X125999500Y-94308846D01*
X126030261Y-94463489D01*
X126030264Y-94463501D01*
X126090602Y-94609172D01*
X126090609Y-94609185D01*
X126178210Y-94740288D01*
X126178213Y-94740292D01*
X126289707Y-94851786D01*
X126289711Y-94851789D01*
X126420814Y-94939390D01*
X126420827Y-94939397D01*
X126566498Y-94999735D01*
X126566503Y-94999737D01*
X126721153Y-95030499D01*
X126721156Y-95030500D01*
X126721158Y-95030500D01*
X126878844Y-95030500D01*
X126878845Y-95030499D01*
X127033497Y-94999737D01*
X127179179Y-94939394D01*
X127310289Y-94851789D01*
X127421789Y-94740289D01*
X127481348Y-94651153D01*
X153499500Y-94651153D01*
X153499500Y-94808846D01*
X153530261Y-94963489D01*
X153530264Y-94963501D01*
X153590602Y-95109172D01*
X153590609Y-95109185D01*
X153678210Y-95240288D01*
X153678213Y-95240292D01*
X153789707Y-95351786D01*
X153789711Y-95351789D01*
X153920814Y-95439390D01*
X153920827Y-95439397D01*
X153994013Y-95469711D01*
X154066503Y-95499737D01*
X154221153Y-95530499D01*
X154221156Y-95530500D01*
X154221158Y-95530500D01*
X154378844Y-95530500D01*
X154378845Y-95530499D01*
X154533497Y-95499737D01*
X154679179Y-95439394D01*
X154810289Y-95351789D01*
X154921789Y-95240289D01*
X155009394Y-95109179D01*
X155012007Y-95102872D01*
X155041984Y-95030499D01*
X155069737Y-94963497D01*
X155100500Y-94808842D01*
X155100500Y-94651158D01*
X155100500Y-94651155D01*
X155100499Y-94651153D01*
X155069738Y-94496510D01*
X155069737Y-94496503D01*
X155056062Y-94463489D01*
X155009397Y-94350827D01*
X155009390Y-94350814D01*
X154921790Y-94219712D01*
X154921784Y-94219705D01*
X154853232Y-94151153D01*
X162499500Y-94151153D01*
X162499500Y-94308846D01*
X162530261Y-94463489D01*
X162530264Y-94463501D01*
X162590602Y-94609172D01*
X162590609Y-94609185D01*
X162678210Y-94740288D01*
X162678213Y-94740292D01*
X162789707Y-94851786D01*
X162789711Y-94851789D01*
X162920814Y-94939390D01*
X162920827Y-94939397D01*
X163066498Y-94999735D01*
X163066503Y-94999737D01*
X163221153Y-95030499D01*
X163221156Y-95030500D01*
X163221158Y-95030500D01*
X163378844Y-95030500D01*
X163378845Y-95030499D01*
X163533497Y-94999737D01*
X163679179Y-94939394D01*
X163810289Y-94851789D01*
X163921789Y-94740289D01*
X164009394Y-94609179D01*
X164069737Y-94463497D01*
X164100500Y-94308842D01*
X164100500Y-94151158D01*
X164100500Y-94151155D01*
X164100499Y-94151153D01*
X164088341Y-94090030D01*
X164069737Y-93996503D01*
X164069735Y-93996498D01*
X164009397Y-93850827D01*
X164009390Y-93850814D01*
X163921789Y-93719711D01*
X163921786Y-93719707D01*
X163810292Y-93608213D01*
X163810288Y-93608210D01*
X163679185Y-93520609D01*
X163679172Y-93520602D01*
X163533501Y-93460264D01*
X163533489Y-93460261D01*
X163378845Y-93429500D01*
X163378842Y-93429500D01*
X163221158Y-93429500D01*
X163221155Y-93429500D01*
X163066510Y-93460261D01*
X163066498Y-93460264D01*
X162920827Y-93520602D01*
X162920814Y-93520609D01*
X162789711Y-93608210D01*
X162789707Y-93608213D01*
X162678213Y-93719707D01*
X162678210Y-93719711D01*
X162590609Y-93850814D01*
X162590602Y-93850827D01*
X162530264Y-93996498D01*
X162530261Y-93996510D01*
X162499500Y-94151153D01*
X154853232Y-94151153D01*
X154810292Y-94108213D01*
X154810288Y-94108210D01*
X154679185Y-94020609D01*
X154679172Y-94020602D01*
X154533501Y-93960264D01*
X154533489Y-93960261D01*
X154378845Y-93929500D01*
X154378842Y-93929500D01*
X154221158Y-93929500D01*
X154221155Y-93929500D01*
X154066510Y-93960261D01*
X154066498Y-93960264D01*
X153920827Y-94020602D01*
X153920814Y-94020609D01*
X153789711Y-94108210D01*
X153789707Y-94108213D01*
X153678213Y-94219707D01*
X153678210Y-94219711D01*
X153590609Y-94350814D01*
X153590602Y-94350827D01*
X153530264Y-94496498D01*
X153530261Y-94496510D01*
X153499500Y-94651153D01*
X127481348Y-94651153D01*
X127509394Y-94609179D01*
X127569737Y-94463497D01*
X127600500Y-94308842D01*
X127600500Y-94151158D01*
X127600500Y-94151155D01*
X127600499Y-94151153D01*
X127588341Y-94090030D01*
X127569737Y-93996503D01*
X127569735Y-93996498D01*
X127509397Y-93850827D01*
X127509390Y-93850814D01*
X127421789Y-93719711D01*
X127421786Y-93719707D01*
X127310292Y-93608213D01*
X127310288Y-93608210D01*
X127179185Y-93520609D01*
X127179172Y-93520602D01*
X127033501Y-93460264D01*
X127033489Y-93460261D01*
X126878845Y-93429500D01*
X126878842Y-93429500D01*
X126721158Y-93429500D01*
X126721155Y-93429500D01*
X126566510Y-93460261D01*
X126566498Y-93460264D01*
X126420827Y-93520602D01*
X126420814Y-93520609D01*
X126289711Y-93608210D01*
X126289707Y-93608213D01*
X126178213Y-93719707D01*
X126178210Y-93719711D01*
X126090609Y-93850814D01*
X126090602Y-93850827D01*
X126030264Y-93996498D01*
X126030261Y-93996510D01*
X125999500Y-94151153D01*
X122564542Y-94151153D01*
X122552383Y-94090030D01*
X122550000Y-94065838D01*
X122550000Y-90855132D01*
X122569685Y-90788093D01*
X122622489Y-90742338D01*
X122675124Y-90731137D01*
X134154166Y-90835492D01*
G37*
%TD.AperFunction*%
%TD*%
M02*
