%TF.GenerationSoftware,KiCad,Pcbnew,9.0.3*%
%TF.CreationDate,2025-07-20T22:32:55-06:00*%
%TF.ProjectId,bare_mega_1284,62617265-5f6d-4656-9761-5f313238342e,rev?*%
%TF.SameCoordinates,Original*%
%TF.FileFunction,Copper,L3,Inr*%
%TF.FilePolarity,Positive*%
%FSLAX46Y46*%
G04 Gerber Fmt 4.6, Leading zero omitted, Abs format (unit mm)*
G04 Created by KiCad (PCBNEW 9.0.3) date 2025-07-20 22:32:55*
%MOMM*%
%LPD*%
G01*
G04 APERTURE LIST*
%TA.AperFunction,ComponentPad*%
%ADD10C,0.650000*%
%TD*%
%TA.AperFunction,ComponentPad*%
%ADD11O,1.700000X0.900000*%
%TD*%
%TA.AperFunction,ComponentPad*%
%ADD12O,2.400000X0.900000*%
%TD*%
%TA.AperFunction,ComponentPad*%
%ADD13C,1.524000*%
%TD*%
%TA.AperFunction,ViaPad*%
%ADD14C,0.600000*%
%TD*%
%TA.AperFunction,Conductor*%
%ADD15C,0.200000*%
%TD*%
G04 APERTURE END LIST*
D10*
%TO.N,GND*%
%TO.C,J1*%
X121860000Y-95675000D03*
%TO.N,+5V*%
X121860000Y-96525000D03*
%TO.N,Net-(J1-CC1)*%
X121860000Y-97375000D03*
%TO.N,/D_P*%
X121860000Y-98225000D03*
%TO.N,/D_N*%
X121860000Y-99075000D03*
%TO.N,unconnected-(J1-SBU1-PadA8)*%
X121860000Y-99925000D03*
%TO.N,+5V*%
X121860000Y-100775000D03*
%TO.N,GND*%
X121860000Y-101625000D03*
X120510000Y-101625000D03*
%TO.N,+5V*%
X120510000Y-100775000D03*
%TO.N,Net-(J1-CC2)*%
X120510000Y-99925000D03*
%TO.N,/D_P*%
X120510000Y-99075000D03*
%TO.N,/D_N*%
X120510000Y-98225000D03*
%TO.N,unconnected-(J1-SBU2-PadB8)*%
X120510000Y-97375000D03*
%TO.N,+5V*%
X120510000Y-96525000D03*
%TO.N,GND*%
X120510000Y-95675000D03*
D11*
X117500000Y-94325000D03*
X117500000Y-102975000D03*
D12*
X120880000Y-94325000D03*
X120880000Y-102975000D03*
%TD*%
D13*
%TO.N,GND*%
%TO.C,CON1*%
X168410000Y-94140000D03*
%TO.N,/MISO*%
X170950000Y-94140000D03*
%TO.N,GND*%
X168410000Y-96680000D03*
%TO.N,/SCK*%
X170950000Y-96680000D03*
%TO.N,unconnected-(CON1-Pad6)*%
X168410000Y-99220000D03*
%TO.N,/RES*%
X170950000Y-99220000D03*
%TO.N,unconnected-(CON1-Pad4)*%
X168410000Y-101760000D03*
%TO.N,unconnected-(CON1-Pad3)*%
X170950000Y-101760000D03*
%TO.N,+5V*%
X168410000Y-104300000D03*
%TO.N,/MOSI*%
X170950000Y-104300000D03*
%TD*%
D14*
%TO.N,Net-(U2-RESET#)*%
X140800000Y-97730000D03*
X140359999Y-96442812D03*
%TO.N,+5V*%
X136050000Y-92980000D03*
X136300000Y-92230000D03*
X136300000Y-92230000D03*
X136300000Y-92230000D03*
X136300000Y-92230000D03*
X136300000Y-92230000D03*
X136300000Y-92230000D03*
X136300000Y-92230000D03*
X135300000Y-92230000D03*
X135300000Y-92230000D03*
X135300000Y-92230000D03*
X166550000Y-104230000D03*
%TO.N,Net-(U1-(PCINT26{slash}RXD1{slash}INT0)_PD2)*%
X146050000Y-113230000D03*
%TO.N,/MISO*%
X150166835Y-95613165D03*
X166300000Y-95480000D03*
%TO.N,/SCK*%
X150050000Y-96480000D03*
X165800000Y-100480000D03*
%TO.N,Net-(U1-(PCINT26{slash}RXD1{slash}INT0)_PD2)*%
X147800000Y-104980000D03*
%TO.N,/TXD*%
X147636835Y-101114010D03*
X132202760Y-104950713D03*
%TO.N,/RXD*%
X132550000Y-104230000D03*
X147636835Y-103730000D03*
%TO.N,/XTAL2*%
X147050000Y-107980000D03*
X146994153Y-105937318D03*
%TO.N,Net-(J1-CC1)*%
X125800000Y-101480000D03*
%TO.N,+5V*%
X123300000Y-95730000D03*
X123050000Y-100730000D03*
X146050000Y-91730000D03*
X153550000Y-91480000D03*
X155300000Y-91730000D03*
X144300000Y-94480000D03*
X145800000Y-96730000D03*
X147300000Y-97980000D03*
X154300000Y-105950802D03*
X151800000Y-107730000D03*
X123300000Y-105730000D03*
X129300000Y-101480000D03*
X137800000Y-104480000D03*
X142550000Y-103480000D03*
X133300000Y-93230000D03*
%TO.N,GND*%
X126800000Y-94230000D03*
X126550000Y-102980000D03*
X157551000Y-107730000D03*
X156300000Y-109730000D03*
X133800000Y-109230000D03*
X133800000Y-115980000D03*
X134050000Y-112230000D03*
X133000003Y-95980000D03*
X132300000Y-95980000D03*
X132050000Y-97480000D03*
X132050000Y-100279997D03*
X132050000Y-100980000D03*
X136605297Y-101661942D03*
X137235671Y-101631975D03*
X137800000Y-96480000D03*
X137550000Y-95980000D03*
X135550000Y-95980000D03*
X145800000Y-101980000D03*
X154300000Y-94730000D03*
X150050000Y-98980000D03*
X155300000Y-102980000D03*
X161550000Y-98970000D03*
X163300000Y-103730000D03*
X163300000Y-94230000D03*
X155300000Y-86980000D03*
X153050000Y-90230000D03*
X141050000Y-88230000D03*
X138550000Y-88230000D03*
X135050000Y-90730000D03*
X128550000Y-87480000D03*
%TO.N,/D_P*%
X123864232Y-99243871D03*
%TO.N,/D_N*%
X123082256Y-99075000D03*
%TD*%
D15*
%TO.N,GND*%
X120880000Y-94325000D02*
X120880000Y-94695000D01*
%TD*%
%TA.AperFunction,Conductor*%
%TO.N,GND*%
G36*
X175006922Y-81481280D02*
G01*
X175097266Y-81491459D01*
X175124331Y-81497636D01*
X175203540Y-81525352D01*
X175228553Y-81537398D01*
X175299606Y-81582043D01*
X175321313Y-81599355D01*
X175380644Y-81658686D01*
X175397957Y-81680395D01*
X175442600Y-81751444D01*
X175454648Y-81776462D01*
X175482362Y-81855666D01*
X175488540Y-81882735D01*
X175498720Y-81973076D01*
X175499500Y-81986961D01*
X175499500Y-117473038D01*
X175498720Y-117486922D01*
X175498720Y-117486923D01*
X175488540Y-117577264D01*
X175482362Y-117604333D01*
X175454648Y-117683537D01*
X175442600Y-117708555D01*
X175397957Y-117779604D01*
X175380644Y-117801313D01*
X175321313Y-117860644D01*
X175299604Y-117877957D01*
X175228555Y-117922600D01*
X175203537Y-117934648D01*
X175124333Y-117962362D01*
X175097264Y-117968540D01*
X175017075Y-117977576D01*
X175006921Y-117978720D01*
X174993038Y-117979500D01*
X116806962Y-117979500D01*
X116793078Y-117978720D01*
X116780553Y-117977308D01*
X116702735Y-117968540D01*
X116675666Y-117962362D01*
X116596462Y-117934648D01*
X116571444Y-117922600D01*
X116500395Y-117877957D01*
X116478686Y-117860644D01*
X116419355Y-117801313D01*
X116402042Y-117779604D01*
X116357399Y-117708555D01*
X116345351Y-117683537D01*
X116317637Y-117604333D01*
X116311459Y-117577263D01*
X116301280Y-117486922D01*
X116300500Y-117473038D01*
X116300500Y-113151153D01*
X145249500Y-113151153D01*
X145249500Y-113308846D01*
X145280261Y-113463489D01*
X145280264Y-113463501D01*
X145340602Y-113609172D01*
X145340609Y-113609185D01*
X145428210Y-113740288D01*
X145428213Y-113740292D01*
X145539707Y-113851786D01*
X145539711Y-113851789D01*
X145670814Y-113939390D01*
X145670827Y-113939397D01*
X145816498Y-113999735D01*
X145816503Y-113999737D01*
X145971153Y-114030499D01*
X145971156Y-114030500D01*
X145971158Y-114030500D01*
X146128844Y-114030500D01*
X146128845Y-114030499D01*
X146283497Y-113999737D01*
X146429179Y-113939394D01*
X146560289Y-113851789D01*
X146671789Y-113740289D01*
X146759394Y-113609179D01*
X146819737Y-113463497D01*
X146850500Y-113308842D01*
X146850500Y-113151158D01*
X146850500Y-113151155D01*
X146850499Y-113151153D01*
X146819738Y-112996510D01*
X146819737Y-112996503D01*
X146819735Y-112996498D01*
X146759397Y-112850827D01*
X146759390Y-112850814D01*
X146671789Y-112719711D01*
X146671786Y-112719707D01*
X146560292Y-112608213D01*
X146560288Y-112608210D01*
X146429185Y-112520609D01*
X146429172Y-112520602D01*
X146283501Y-112460264D01*
X146283489Y-112460261D01*
X146128845Y-112429500D01*
X146128842Y-112429500D01*
X145971158Y-112429500D01*
X145971155Y-112429500D01*
X145816510Y-112460261D01*
X145816498Y-112460264D01*
X145670827Y-112520602D01*
X145670814Y-112520609D01*
X145539711Y-112608210D01*
X145539707Y-112608213D01*
X145428213Y-112719707D01*
X145428210Y-112719711D01*
X145340609Y-112850814D01*
X145340602Y-112850827D01*
X145280264Y-112996498D01*
X145280261Y-112996510D01*
X145249500Y-113151153D01*
X116300500Y-113151153D01*
X116300500Y-107901153D01*
X146249500Y-107901153D01*
X146249500Y-108058846D01*
X146280261Y-108213489D01*
X146280264Y-108213501D01*
X146340602Y-108359172D01*
X146340609Y-108359185D01*
X146428210Y-108490288D01*
X146428213Y-108490292D01*
X146539707Y-108601786D01*
X146539711Y-108601789D01*
X146670814Y-108689390D01*
X146670827Y-108689397D01*
X146816498Y-108749735D01*
X146816503Y-108749737D01*
X146971153Y-108780499D01*
X146971156Y-108780500D01*
X146971158Y-108780500D01*
X147128844Y-108780500D01*
X147128845Y-108780499D01*
X147283497Y-108749737D01*
X147429179Y-108689394D01*
X147560289Y-108601789D01*
X147671789Y-108490289D01*
X147759394Y-108359179D01*
X147819737Y-108213497D01*
X147850500Y-108058842D01*
X147850500Y-107901158D01*
X147850500Y-107901155D01*
X147850499Y-107901153D01*
X147819738Y-107746510D01*
X147819737Y-107746503D01*
X147780242Y-107651153D01*
X150999500Y-107651153D01*
X150999500Y-107808846D01*
X151030261Y-107963489D01*
X151030264Y-107963501D01*
X151090602Y-108109172D01*
X151090609Y-108109185D01*
X151178210Y-108240288D01*
X151178213Y-108240292D01*
X151289707Y-108351786D01*
X151289711Y-108351789D01*
X151420814Y-108439390D01*
X151420827Y-108439397D01*
X151566498Y-108499735D01*
X151566503Y-108499737D01*
X151721153Y-108530499D01*
X151721156Y-108530500D01*
X151721158Y-108530500D01*
X151878844Y-108530500D01*
X151878845Y-108530499D01*
X152033497Y-108499737D01*
X152179179Y-108439394D01*
X152310289Y-108351789D01*
X152421789Y-108240289D01*
X152509394Y-108109179D01*
X152569737Y-107963497D01*
X152600500Y-107808842D01*
X152600500Y-107651158D01*
X152600500Y-107651155D01*
X152600499Y-107651153D01*
X152569738Y-107496510D01*
X152569737Y-107496503D01*
X152569735Y-107496498D01*
X152509397Y-107350827D01*
X152509390Y-107350814D01*
X152421789Y-107219711D01*
X152421786Y-107219707D01*
X152310292Y-107108213D01*
X152310288Y-107108210D01*
X152179185Y-107020609D01*
X152179172Y-107020602D01*
X152033501Y-106960264D01*
X152033489Y-106960261D01*
X151878845Y-106929500D01*
X151878842Y-106929500D01*
X151721158Y-106929500D01*
X151721155Y-106929500D01*
X151566510Y-106960261D01*
X151566498Y-106960264D01*
X151420827Y-107020602D01*
X151420814Y-107020609D01*
X151289711Y-107108210D01*
X151289707Y-107108213D01*
X151178213Y-107219707D01*
X151178210Y-107219711D01*
X151090609Y-107350814D01*
X151090602Y-107350827D01*
X151030264Y-107496498D01*
X151030261Y-107496510D01*
X150999500Y-107651153D01*
X147780242Y-107651153D01*
X147779933Y-107650408D01*
X147759397Y-107600827D01*
X147759390Y-107600814D01*
X147671789Y-107469711D01*
X147671786Y-107469707D01*
X147560292Y-107358213D01*
X147560288Y-107358210D01*
X147429185Y-107270609D01*
X147429172Y-107270602D01*
X147283501Y-107210264D01*
X147283489Y-107210261D01*
X147128845Y-107179500D01*
X147128842Y-107179500D01*
X146971158Y-107179500D01*
X146971155Y-107179500D01*
X146816510Y-107210261D01*
X146816498Y-107210264D01*
X146670827Y-107270602D01*
X146670814Y-107270609D01*
X146539711Y-107358210D01*
X146539707Y-107358213D01*
X146428213Y-107469707D01*
X146428210Y-107469711D01*
X146340609Y-107600814D01*
X146340602Y-107600827D01*
X146280264Y-107746498D01*
X146280261Y-107746510D01*
X146249500Y-107901153D01*
X116300500Y-107901153D01*
X116300500Y-105651153D01*
X122499500Y-105651153D01*
X122499500Y-105808846D01*
X122530261Y-105963489D01*
X122530264Y-105963501D01*
X122590602Y-106109172D01*
X122590609Y-106109185D01*
X122678210Y-106240288D01*
X122678213Y-106240292D01*
X122789707Y-106351786D01*
X122789711Y-106351789D01*
X122920814Y-106439390D01*
X122920827Y-106439397D01*
X123066498Y-106499735D01*
X123066503Y-106499737D01*
X123221153Y-106530499D01*
X123221156Y-106530500D01*
X123221158Y-106530500D01*
X123378844Y-106530500D01*
X123378845Y-106530499D01*
X123533497Y-106499737D01*
X123679179Y-106439394D01*
X123810289Y-106351789D01*
X123921789Y-106240289D01*
X124009394Y-106109179D01*
X124069737Y-105963497D01*
X124090628Y-105858471D01*
X146193653Y-105858471D01*
X146193653Y-106016164D01*
X146224414Y-106170807D01*
X146224417Y-106170819D01*
X146284755Y-106316490D01*
X146284762Y-106316503D01*
X146372363Y-106447606D01*
X146372366Y-106447610D01*
X146483860Y-106559104D01*
X146483864Y-106559107D01*
X146614967Y-106646708D01*
X146614980Y-106646715D01*
X146760651Y-106707053D01*
X146760656Y-106707055D01*
X146915306Y-106737817D01*
X146915309Y-106737818D01*
X146915311Y-106737818D01*
X147072997Y-106737818D01*
X147072998Y-106737817D01*
X147227650Y-106707055D01*
X147373332Y-106646712D01*
X147504442Y-106559107D01*
X147615942Y-106447607D01*
X147703547Y-106316497D01*
X147763890Y-106170815D01*
X147794653Y-106016160D01*
X147794653Y-105899010D01*
X147802596Y-105871955D01*
X153499500Y-105871955D01*
X153499500Y-106029648D01*
X153530261Y-106184291D01*
X153530264Y-106184303D01*
X153590602Y-106329974D01*
X153590609Y-106329987D01*
X153678210Y-106461090D01*
X153678213Y-106461094D01*
X153789707Y-106572588D01*
X153789711Y-106572591D01*
X153920814Y-106660192D01*
X153920827Y-106660199D01*
X154066498Y-106720537D01*
X154066503Y-106720539D01*
X154221153Y-106751301D01*
X154221156Y-106751302D01*
X154221158Y-106751302D01*
X154378844Y-106751302D01*
X154378845Y-106751301D01*
X154533497Y-106720539D01*
X154679179Y-106660196D01*
X154810289Y-106572591D01*
X154921789Y-106461091D01*
X155009394Y-106329981D01*
X155069737Y-106184299D01*
X155100500Y-106029644D01*
X155100500Y-105871960D01*
X155100500Y-105871957D01*
X155100499Y-105871955D01*
X155092546Y-105831971D01*
X155069737Y-105717305D01*
X155046045Y-105660107D01*
X155009397Y-105571629D01*
X155009390Y-105571616D01*
X154921789Y-105440513D01*
X154921786Y-105440509D01*
X154810292Y-105329015D01*
X154810288Y-105329012D01*
X154679185Y-105241411D01*
X154679172Y-105241404D01*
X154533501Y-105181066D01*
X154533489Y-105181063D01*
X154378845Y-105150302D01*
X154378842Y-105150302D01*
X154221158Y-105150302D01*
X154221155Y-105150302D01*
X154066510Y-105181063D01*
X154066498Y-105181066D01*
X153920827Y-105241404D01*
X153920814Y-105241411D01*
X153789711Y-105329012D01*
X153789707Y-105329015D01*
X153678213Y-105440509D01*
X153678210Y-105440513D01*
X153590609Y-105571616D01*
X153590602Y-105571629D01*
X153530264Y-105717300D01*
X153530261Y-105717312D01*
X153499500Y-105871955D01*
X147802596Y-105871955D01*
X147803432Y-105869109D01*
X147810304Y-105838706D01*
X147813195Y-105835860D01*
X147814338Y-105831971D01*
X147837881Y-105811570D01*
X147860107Y-105789701D01*
X147865244Y-105787860D01*
X147867142Y-105786216D01*
X147893275Y-105777635D01*
X147893856Y-105777513D01*
X148033497Y-105749737D01*
X148179179Y-105689394D01*
X148310289Y-105601789D01*
X148421789Y-105490289D01*
X148509394Y-105359179D01*
X148512854Y-105350827D01*
X148549241Y-105262978D01*
X148569737Y-105213497D01*
X148600500Y-105058842D01*
X148600500Y-104901158D01*
X148600500Y-104901155D01*
X148600499Y-104901153D01*
X148581416Y-104805219D01*
X148569737Y-104746503D01*
X148544724Y-104686116D01*
X148509397Y-104600827D01*
X148509390Y-104600814D01*
X148421789Y-104469711D01*
X148421786Y-104469707D01*
X148305982Y-104353903D01*
X148307293Y-104352591D01*
X148292890Y-104330972D01*
X148273579Y-104302629D01*
X148273560Y-104301958D01*
X148273189Y-104301400D01*
X148272622Y-104267072D01*
X148271701Y-104232785D01*
X148272044Y-104231987D01*
X148272037Y-104231539D01*
X148275456Y-104224064D01*
X148286167Y-104199197D01*
X148287265Y-104197423D01*
X148318182Y-104151153D01*
X165749500Y-104151153D01*
X165749500Y-104308846D01*
X165780261Y-104463489D01*
X165780264Y-104463501D01*
X165840602Y-104609172D01*
X165840609Y-104609185D01*
X165928210Y-104740288D01*
X165928213Y-104740292D01*
X166039707Y-104851786D01*
X166039711Y-104851789D01*
X166170814Y-104939390D01*
X166170827Y-104939397D01*
X166316498Y-104999735D01*
X166316503Y-104999737D01*
X166466407Y-105029555D01*
X166471153Y-105030499D01*
X166471156Y-105030500D01*
X166471158Y-105030500D01*
X166628844Y-105030500D01*
X166628845Y-105030499D01*
X166783497Y-104999737D01*
X166929179Y-104939394D01*
X167060289Y-104851789D01*
X167081322Y-104830755D01*
X167142643Y-104797271D01*
X167212334Y-104802254D01*
X167268269Y-104844125D01*
X167279487Y-104862141D01*
X167330211Y-104961692D01*
X167371345Y-105018307D01*
X167447019Y-105122464D01*
X167587536Y-105262981D01*
X167748306Y-105379787D01*
X167835149Y-105424035D01*
X167925367Y-105470005D01*
X167925370Y-105470006D01*
X167987793Y-105490288D01*
X168114364Y-105531413D01*
X168310639Y-105562500D01*
X168310640Y-105562500D01*
X168509360Y-105562500D01*
X168509361Y-105562500D01*
X168705636Y-105531413D01*
X168894632Y-105470005D01*
X169071694Y-105379787D01*
X169232464Y-105262981D01*
X169372981Y-105122464D01*
X169489787Y-104961694D01*
X169569515Y-104805218D01*
X169617490Y-104754423D01*
X169685311Y-104737628D01*
X169751446Y-104760165D01*
X169790484Y-104805218D01*
X169870213Y-104961694D01*
X169987019Y-105122464D01*
X170127536Y-105262981D01*
X170288306Y-105379787D01*
X170375149Y-105424035D01*
X170465367Y-105470005D01*
X170465370Y-105470006D01*
X170527793Y-105490288D01*
X170654364Y-105531413D01*
X170850639Y-105562500D01*
X170850640Y-105562500D01*
X171049360Y-105562500D01*
X171049361Y-105562500D01*
X171245636Y-105531413D01*
X171434632Y-105470005D01*
X171611694Y-105379787D01*
X171772464Y-105262981D01*
X171912981Y-105122464D01*
X172029787Y-104961694D01*
X172120005Y-104784632D01*
X172181413Y-104595636D01*
X172212500Y-104399361D01*
X172212500Y-104200639D01*
X172181413Y-104004364D01*
X172133926Y-103858213D01*
X172120006Y-103815370D01*
X172120005Y-103815367D01*
X172059139Y-103695912D01*
X172029787Y-103638306D01*
X171912981Y-103477536D01*
X171772464Y-103337019D01*
X171611694Y-103220213D01*
X171455218Y-103140484D01*
X171404423Y-103092510D01*
X171387628Y-103024689D01*
X171410165Y-102958554D01*
X171455218Y-102919515D01*
X171611694Y-102839787D01*
X171772464Y-102722981D01*
X171912981Y-102582464D01*
X172029787Y-102421694D01*
X172120005Y-102244632D01*
X172181413Y-102055636D01*
X172212500Y-101859361D01*
X172212500Y-101660639D01*
X172181413Y-101464364D01*
X172145745Y-101354587D01*
X172120006Y-101275370D01*
X172120005Y-101275367D01*
X172035327Y-101109179D01*
X172029787Y-101098306D01*
X171912981Y-100937536D01*
X171772464Y-100797019D01*
X171611694Y-100680213D01*
X171455218Y-100600484D01*
X171404423Y-100552510D01*
X171387628Y-100484689D01*
X171410165Y-100418554D01*
X171455218Y-100379515D01*
X171611694Y-100299787D01*
X171772464Y-100182981D01*
X171912981Y-100042464D01*
X172029787Y-99881694D01*
X172120005Y-99704632D01*
X172181413Y-99515636D01*
X172212500Y-99319361D01*
X172212500Y-99120639D01*
X172181413Y-98924364D01*
X172120005Y-98735368D01*
X172120005Y-98735367D01*
X172029786Y-98558305D01*
X172012471Y-98534473D01*
X171912981Y-98397536D01*
X171772464Y-98257019D01*
X171611694Y-98140213D01*
X171455218Y-98060484D01*
X171404423Y-98012510D01*
X171387628Y-97944689D01*
X171410165Y-97878554D01*
X171455218Y-97839515D01*
X171611694Y-97759787D01*
X171772464Y-97642981D01*
X171912981Y-97502464D01*
X172029787Y-97341694D01*
X172120005Y-97164632D01*
X172181413Y-96975636D01*
X172212500Y-96779361D01*
X172212500Y-96580639D01*
X172181413Y-96384364D01*
X172137671Y-96249738D01*
X172120006Y-96195370D01*
X172120005Y-96195367D01*
X172071827Y-96100814D01*
X172029787Y-96018306D01*
X171912981Y-95857536D01*
X171772464Y-95717019D01*
X171611694Y-95600213D01*
X171455218Y-95520484D01*
X171404423Y-95472510D01*
X171387628Y-95404689D01*
X171410165Y-95338554D01*
X171455218Y-95299515D01*
X171611694Y-95219787D01*
X171772464Y-95102981D01*
X171912981Y-94962464D01*
X172029787Y-94801694D01*
X172120005Y-94624632D01*
X172181413Y-94435636D01*
X172212500Y-94239361D01*
X172212500Y-94040639D01*
X172181413Y-93844364D01*
X172131061Y-93689394D01*
X172120006Y-93655370D01*
X172120005Y-93655367D01*
X172035894Y-93490292D01*
X172029787Y-93478306D01*
X171912981Y-93317536D01*
X171772464Y-93177019D01*
X171611694Y-93060213D01*
X171594441Y-93051422D01*
X171434632Y-92969994D01*
X171434629Y-92969993D01*
X171245637Y-92908587D01*
X171147498Y-92893043D01*
X171049361Y-92877500D01*
X170850639Y-92877500D01*
X170785214Y-92887862D01*
X170654362Y-92908587D01*
X170465370Y-92969993D01*
X170465367Y-92969994D01*
X170288305Y-93060213D01*
X170127533Y-93177021D01*
X169987021Y-93317533D01*
X169870213Y-93478305D01*
X169779994Y-93655367D01*
X169779993Y-93655370D01*
X169718587Y-93844362D01*
X169698734Y-93969711D01*
X169687500Y-94040639D01*
X169687500Y-94239361D01*
X169688631Y-94246503D01*
X169718587Y-94435637D01*
X169779993Y-94624629D01*
X169779994Y-94624632D01*
X169825270Y-94713489D01*
X169870213Y-94801694D01*
X169987019Y-94962464D01*
X170127536Y-95102981D01*
X170288306Y-95219787D01*
X170340739Y-95246503D01*
X170444780Y-95299515D01*
X170495576Y-95347490D01*
X170512371Y-95415311D01*
X170489833Y-95481446D01*
X170444780Y-95520485D01*
X170288305Y-95600213D01*
X170127533Y-95717021D01*
X169987021Y-95857533D01*
X169870213Y-96018305D01*
X169779994Y-96195367D01*
X169779993Y-96195370D01*
X169718587Y-96384362D01*
X169687500Y-96580639D01*
X169687500Y-96779360D01*
X169718587Y-96975637D01*
X169779993Y-97164629D01*
X169779994Y-97164632D01*
X169845756Y-97293695D01*
X169870213Y-97341694D01*
X169987019Y-97502464D01*
X170127536Y-97642981D01*
X170288306Y-97759787D01*
X170384589Y-97808846D01*
X170444780Y-97839515D01*
X170495576Y-97887490D01*
X170512371Y-97955311D01*
X170489833Y-98021446D01*
X170444780Y-98060485D01*
X170288305Y-98140213D01*
X170127533Y-98257021D01*
X169987021Y-98397533D01*
X169870213Y-98558305D01*
X169790485Y-98714780D01*
X169742510Y-98765576D01*
X169674689Y-98782371D01*
X169608554Y-98759833D01*
X169569515Y-98714780D01*
X169536508Y-98650000D01*
X169489787Y-98558306D01*
X169372981Y-98397536D01*
X169232464Y-98257019D01*
X169071694Y-98140213D01*
X168894632Y-98049994D01*
X168894629Y-98049993D01*
X168705637Y-97988587D01*
X168607498Y-97973043D01*
X168509361Y-97957500D01*
X168310639Y-97957500D01*
X168245214Y-97967862D01*
X168114362Y-97988587D01*
X167925370Y-98049993D01*
X167925367Y-98049994D01*
X167748305Y-98140213D01*
X167587533Y-98257021D01*
X167447021Y-98397533D01*
X167330213Y-98558305D01*
X167239994Y-98735367D01*
X167239993Y-98735370D01*
X167178587Y-98924362D01*
X167147500Y-99120639D01*
X167147500Y-99319360D01*
X167178587Y-99515637D01*
X167239993Y-99704629D01*
X167239994Y-99704632D01*
X167308805Y-99839679D01*
X167330213Y-99881694D01*
X167447019Y-100042464D01*
X167587536Y-100182981D01*
X167748306Y-100299787D01*
X167848477Y-100350827D01*
X167904780Y-100379515D01*
X167955576Y-100427490D01*
X167972371Y-100495311D01*
X167949833Y-100561446D01*
X167904780Y-100600485D01*
X167748305Y-100680213D01*
X167587533Y-100797021D01*
X167447021Y-100937533D01*
X167330213Y-101098305D01*
X167239994Y-101275367D01*
X167239993Y-101275370D01*
X167178587Y-101464362D01*
X167147500Y-101660639D01*
X167147500Y-101859360D01*
X167178587Y-102055637D01*
X167239993Y-102244629D01*
X167239994Y-102244632D01*
X167330213Y-102421694D01*
X167447019Y-102582464D01*
X167587536Y-102722981D01*
X167748306Y-102839787D01*
X167866832Y-102900179D01*
X167904780Y-102919515D01*
X167955576Y-102967490D01*
X167972371Y-103035311D01*
X167949833Y-103101446D01*
X167904780Y-103140485D01*
X167748305Y-103220213D01*
X167587533Y-103337021D01*
X167447021Y-103477533D01*
X167330212Y-103638306D01*
X167326741Y-103645119D01*
X167278763Y-103695912D01*
X167210941Y-103712704D01*
X167144808Y-103690163D01*
X167128578Y-103676499D01*
X167060292Y-103608213D01*
X167060288Y-103608210D01*
X166929185Y-103520609D01*
X166929172Y-103520602D01*
X166783501Y-103460264D01*
X166783489Y-103460261D01*
X166628845Y-103429500D01*
X166628842Y-103429500D01*
X166471158Y-103429500D01*
X166471155Y-103429500D01*
X166316510Y-103460261D01*
X166316498Y-103460264D01*
X166170827Y-103520602D01*
X166170814Y-103520609D01*
X166039711Y-103608210D01*
X166039707Y-103608213D01*
X165928213Y-103719707D01*
X165928210Y-103719711D01*
X165840609Y-103850814D01*
X165840602Y-103850827D01*
X165780264Y-103996498D01*
X165780261Y-103996510D01*
X165749500Y-104151153D01*
X148318182Y-104151153D01*
X148346229Y-104109179D01*
X148406572Y-103963497D01*
X148437335Y-103808842D01*
X148437335Y-103651158D01*
X148437335Y-103651155D01*
X148437334Y-103651153D01*
X148411366Y-103520606D01*
X148406572Y-103496503D01*
X148398716Y-103477536D01*
X148346232Y-103350827D01*
X148346225Y-103350814D01*
X148258624Y-103219711D01*
X148258621Y-103219707D01*
X148147127Y-103108213D01*
X148147123Y-103108210D01*
X148016020Y-103020609D01*
X148016007Y-103020602D01*
X147870336Y-102960264D01*
X147870324Y-102960261D01*
X147715680Y-102929500D01*
X147715677Y-102929500D01*
X147557993Y-102929500D01*
X147557990Y-102929500D01*
X147403345Y-102960261D01*
X147403333Y-102960264D01*
X147257662Y-103020602D01*
X147257649Y-103020609D01*
X147126546Y-103108210D01*
X147126542Y-103108213D01*
X147015048Y-103219707D01*
X147015045Y-103219711D01*
X146927444Y-103350814D01*
X146927437Y-103350827D01*
X146867099Y-103496498D01*
X146867096Y-103496510D01*
X146836335Y-103651153D01*
X146836335Y-103808846D01*
X146867096Y-103963489D01*
X146867099Y-103963501D01*
X146927437Y-104109172D01*
X146927444Y-104109185D01*
X147015045Y-104240288D01*
X147015048Y-104240292D01*
X147130853Y-104356097D01*
X147129349Y-104357600D01*
X147163261Y-104407392D01*
X147165127Y-104477236D01*
X147148362Y-104514381D01*
X147090608Y-104600816D01*
X147090602Y-104600827D01*
X147030264Y-104746498D01*
X147030261Y-104746510D01*
X146999500Y-104901153D01*
X146999500Y-105018307D01*
X146979815Y-105085346D01*
X146927011Y-105131101D01*
X146899692Y-105139924D01*
X146760661Y-105167579D01*
X146760651Y-105167582D01*
X146614980Y-105227920D01*
X146614967Y-105227927D01*
X146483864Y-105315528D01*
X146483860Y-105315531D01*
X146372366Y-105427025D01*
X146372363Y-105427029D01*
X146284762Y-105558132D01*
X146284755Y-105558145D01*
X146224417Y-105703816D01*
X146224414Y-105703828D01*
X146193653Y-105858471D01*
X124090628Y-105858471D01*
X124100500Y-105808842D01*
X124100500Y-105651158D01*
X124100500Y-105651155D01*
X124100499Y-105651153D01*
X124084854Y-105572502D01*
X124069737Y-105496503D01*
X124058761Y-105470005D01*
X124009397Y-105350827D01*
X124009390Y-105350814D01*
X123921789Y-105219711D01*
X123921786Y-105219707D01*
X123810292Y-105108213D01*
X123810288Y-105108210D01*
X123679185Y-105020609D01*
X123679172Y-105020602D01*
X123581968Y-104980340D01*
X123533497Y-104960263D01*
X123533489Y-104960261D01*
X123378845Y-104929500D01*
X123378842Y-104929500D01*
X123221158Y-104929500D01*
X123221155Y-104929500D01*
X123066510Y-104960261D01*
X123066498Y-104960264D01*
X122920827Y-105020602D01*
X122920814Y-105020609D01*
X122789711Y-105108210D01*
X122789707Y-105108213D01*
X122678213Y-105219707D01*
X122678210Y-105219711D01*
X122590609Y-105350814D01*
X122590602Y-105350827D01*
X122530264Y-105496498D01*
X122530261Y-105496510D01*
X122499500Y-105651153D01*
X116300500Y-105651153D01*
X116300500Y-104871866D01*
X131402260Y-104871866D01*
X131402260Y-105029559D01*
X131433021Y-105184202D01*
X131433024Y-105184214D01*
X131493362Y-105329885D01*
X131493369Y-105329898D01*
X131580970Y-105461001D01*
X131580973Y-105461005D01*
X131692467Y-105572499D01*
X131692471Y-105572502D01*
X131823574Y-105660103D01*
X131823587Y-105660110D01*
X131961658Y-105717300D01*
X131969263Y-105720450D01*
X132116498Y-105749737D01*
X132123913Y-105751212D01*
X132123916Y-105751213D01*
X132123918Y-105751213D01*
X132281604Y-105751213D01*
X132384392Y-105730767D01*
X132384392Y-105730766D01*
X132436257Y-105720450D01*
X132581939Y-105660107D01*
X132713049Y-105572502D01*
X132824549Y-105461002D01*
X132912154Y-105329892D01*
X132918103Y-105315531D01*
X132939870Y-105262978D01*
X132972497Y-105184210D01*
X133003260Y-105029555D01*
X133003260Y-104956173D01*
X133022945Y-104889134D01*
X133055700Y-104855789D01*
X133055585Y-104855649D01*
X133056892Y-104854575D01*
X133058372Y-104853069D01*
X133060289Y-104851789D01*
X133171789Y-104740289D01*
X133259394Y-104609179D01*
X133262854Y-104600827D01*
X133317163Y-104469711D01*
X133319737Y-104463497D01*
X133332138Y-104401153D01*
X136999500Y-104401153D01*
X136999500Y-104558846D01*
X137030261Y-104713489D01*
X137030264Y-104713501D01*
X137090602Y-104859172D01*
X137090609Y-104859185D01*
X137178210Y-104990288D01*
X137178213Y-104990292D01*
X137289707Y-105101786D01*
X137289711Y-105101789D01*
X137420814Y-105189390D01*
X137420827Y-105189397D01*
X137546385Y-105241404D01*
X137566503Y-105249737D01*
X137721153Y-105280499D01*
X137721156Y-105280500D01*
X137721158Y-105280500D01*
X137878844Y-105280500D01*
X137878845Y-105280499D01*
X138033497Y-105249737D01*
X138179179Y-105189394D01*
X138310289Y-105101789D01*
X138421789Y-104990289D01*
X138509394Y-104859179D01*
X138569737Y-104713497D01*
X138600500Y-104558842D01*
X138600500Y-104401158D01*
X138600500Y-104401155D01*
X138600499Y-104401153D01*
X138586132Y-104328926D01*
X138569737Y-104246503D01*
X138550740Y-104200639D01*
X138509397Y-104100827D01*
X138509390Y-104100814D01*
X138421789Y-103969711D01*
X138421786Y-103969707D01*
X138310292Y-103858213D01*
X138310288Y-103858210D01*
X138179185Y-103770609D01*
X138179172Y-103770602D01*
X138033501Y-103710264D01*
X138033489Y-103710261D01*
X137878845Y-103679500D01*
X137878842Y-103679500D01*
X137721158Y-103679500D01*
X137721155Y-103679500D01*
X137566510Y-103710261D01*
X137566498Y-103710264D01*
X137420827Y-103770602D01*
X137420814Y-103770609D01*
X137289711Y-103858210D01*
X137289707Y-103858213D01*
X137178213Y-103969707D01*
X137178210Y-103969711D01*
X137090609Y-104100814D01*
X137090602Y-104100827D01*
X137030264Y-104246498D01*
X137030261Y-104246510D01*
X136999500Y-104401153D01*
X133332138Y-104401153D01*
X133346505Y-104328926D01*
X133350500Y-104308844D01*
X133350500Y-104151155D01*
X133350499Y-104151153D01*
X133337998Y-104088307D01*
X133319737Y-103996503D01*
X133317163Y-103990288D01*
X133259397Y-103850827D01*
X133259390Y-103850814D01*
X133171789Y-103719711D01*
X133171786Y-103719707D01*
X133060292Y-103608213D01*
X133060288Y-103608210D01*
X132929185Y-103520609D01*
X132929173Y-103520602D01*
X132902674Y-103509627D01*
X132783501Y-103460264D01*
X132783489Y-103460261D01*
X132628845Y-103429500D01*
X132628842Y-103429500D01*
X132471158Y-103429500D01*
X132471155Y-103429500D01*
X132316510Y-103460261D01*
X132316498Y-103460264D01*
X132170827Y-103520602D01*
X132170814Y-103520609D01*
X132039711Y-103608210D01*
X132039707Y-103608213D01*
X131928213Y-103719707D01*
X131928210Y-103719711D01*
X131840609Y-103850814D01*
X131840602Y-103850827D01*
X131780264Y-103996498D01*
X131780261Y-103996510D01*
X131749500Y-104151153D01*
X131749500Y-104224538D01*
X131729815Y-104291577D01*
X131697064Y-104324920D01*
X131697179Y-104325060D01*
X131695885Y-104326121D01*
X131694399Y-104327635D01*
X131692472Y-104328922D01*
X131692467Y-104328926D01*
X131580973Y-104440420D01*
X131580970Y-104440424D01*
X131493369Y-104571527D01*
X131493362Y-104571540D01*
X131433024Y-104717211D01*
X131433021Y-104717223D01*
X131402260Y-104871866D01*
X116300500Y-104871866D01*
X116300500Y-103401153D01*
X141749500Y-103401153D01*
X141749500Y-103558846D01*
X141780261Y-103713489D01*
X141780264Y-103713501D01*
X141840602Y-103859172D01*
X141840609Y-103859185D01*
X141928210Y-103990288D01*
X141928213Y-103990292D01*
X142039707Y-104101786D01*
X142039711Y-104101789D01*
X142170814Y-104189390D01*
X142170827Y-104189397D01*
X142308683Y-104246498D01*
X142316503Y-104249737D01*
X142471153Y-104280499D01*
X142471156Y-104280500D01*
X142471158Y-104280500D01*
X142628844Y-104280500D01*
X142628845Y-104280499D01*
X142783497Y-104249737D01*
X142929179Y-104189394D01*
X143060289Y-104101789D01*
X143171789Y-103990289D01*
X143259394Y-103859179D01*
X143262854Y-103850827D01*
X143286069Y-103794780D01*
X143319737Y-103713497D01*
X143350500Y-103558842D01*
X143350500Y-103401158D01*
X143350500Y-103401155D01*
X143350499Y-103401153D01*
X143319738Y-103246510D01*
X143319737Y-103246503D01*
X143319735Y-103246498D01*
X143259397Y-103100827D01*
X143259390Y-103100814D01*
X143171789Y-102969711D01*
X143171786Y-102969707D01*
X143060292Y-102858213D01*
X143060288Y-102858210D01*
X142929185Y-102770609D01*
X142929172Y-102770602D01*
X142783501Y-102710264D01*
X142783489Y-102710261D01*
X142628845Y-102679500D01*
X142628842Y-102679500D01*
X142471158Y-102679500D01*
X142471155Y-102679500D01*
X142316510Y-102710261D01*
X142316498Y-102710264D01*
X142170827Y-102770602D01*
X142170814Y-102770609D01*
X142039711Y-102858210D01*
X142039707Y-102858213D01*
X141928213Y-102969707D01*
X141928210Y-102969711D01*
X141840609Y-103100814D01*
X141840602Y-103100827D01*
X141780264Y-103246498D01*
X141780261Y-103246510D01*
X141749500Y-103401153D01*
X116300500Y-103401153D01*
X116300500Y-96606307D01*
X119684499Y-96606307D01*
X119716222Y-96765783D01*
X119716224Y-96765789D01*
X119772871Y-96902547D01*
X119780340Y-96972017D01*
X119772871Y-96997453D01*
X119716224Y-97134210D01*
X119716222Y-97134216D01*
X119684500Y-97293692D01*
X119684500Y-97293695D01*
X119684500Y-97456305D01*
X119684500Y-97456307D01*
X119684499Y-97456307D01*
X119716222Y-97615783D01*
X119716224Y-97615789D01*
X119772871Y-97752547D01*
X119780340Y-97822017D01*
X119772871Y-97847453D01*
X119716224Y-97984210D01*
X119716222Y-97984216D01*
X119684500Y-98143692D01*
X119684500Y-98143695D01*
X119684500Y-98306305D01*
X119684500Y-98306307D01*
X119684499Y-98306307D01*
X119716222Y-98465783D01*
X119716224Y-98465789D01*
X119772871Y-98602547D01*
X119780340Y-98672017D01*
X119772871Y-98697453D01*
X119716224Y-98834210D01*
X119716222Y-98834216D01*
X119684500Y-98993692D01*
X119684500Y-98993695D01*
X119684500Y-99156305D01*
X119684500Y-99156307D01*
X119684499Y-99156307D01*
X119716222Y-99315783D01*
X119716224Y-99315789D01*
X119772871Y-99452547D01*
X119780340Y-99522017D01*
X119772871Y-99547453D01*
X119716224Y-99684210D01*
X119716222Y-99684216D01*
X119684500Y-99843692D01*
X119684500Y-99843695D01*
X119684500Y-100006305D01*
X119684500Y-100006307D01*
X119684499Y-100006307D01*
X119716222Y-100165783D01*
X119716224Y-100165789D01*
X119772871Y-100302547D01*
X119780340Y-100372017D01*
X119772871Y-100397452D01*
X119771336Y-100401158D01*
X119716224Y-100534210D01*
X119716222Y-100534216D01*
X119684500Y-100693692D01*
X119684500Y-100693695D01*
X119684500Y-100856305D01*
X119684500Y-100856307D01*
X119684499Y-100856307D01*
X119716222Y-101015783D01*
X119716225Y-101015793D01*
X119778450Y-101166019D01*
X119778452Y-101166023D01*
X119868788Y-101301220D01*
X119868794Y-101301228D01*
X119983771Y-101416205D01*
X119983779Y-101416211D01*
X120118976Y-101506547D01*
X120118980Y-101506549D01*
X120269206Y-101568774D01*
X120269211Y-101568776D01*
X120269215Y-101568776D01*
X120269216Y-101568777D01*
X120428692Y-101600500D01*
X120428695Y-101600500D01*
X120591307Y-101600500D01*
X120698598Y-101579157D01*
X120750789Y-101568776D01*
X120901021Y-101506548D01*
X120901023Y-101506547D01*
X121001520Y-101439397D01*
X121036225Y-101416208D01*
X121064360Y-101388073D01*
X121097319Y-101355115D01*
X121158642Y-101321630D01*
X121228334Y-101326614D01*
X121272681Y-101355115D01*
X121333771Y-101416205D01*
X121333779Y-101416211D01*
X121468976Y-101506547D01*
X121468980Y-101506549D01*
X121619206Y-101568774D01*
X121619211Y-101568776D01*
X121619215Y-101568776D01*
X121619216Y-101568777D01*
X121778692Y-101600500D01*
X121778695Y-101600500D01*
X121941307Y-101600500D01*
X122048598Y-101579157D01*
X122100789Y-101568776D01*
X122251021Y-101506548D01*
X122251023Y-101506547D01*
X122351520Y-101439397D01*
X122386225Y-101416208D01*
X122414360Y-101388072D01*
X122475682Y-101354587D01*
X122545374Y-101359571D01*
X122570933Y-101372651D01*
X122670814Y-101439390D01*
X122670827Y-101439397D01*
X122800709Y-101493195D01*
X122816503Y-101499737D01*
X122971153Y-101530499D01*
X122971156Y-101530500D01*
X122971158Y-101530500D01*
X123128844Y-101530500D01*
X123128845Y-101530499D01*
X123283497Y-101499737D01*
X123429179Y-101439394D01*
X123486411Y-101401153D01*
X124999500Y-101401153D01*
X124999500Y-101558846D01*
X125030261Y-101713489D01*
X125030264Y-101713501D01*
X125090602Y-101859172D01*
X125090609Y-101859185D01*
X125178210Y-101990288D01*
X125178213Y-101990292D01*
X125289707Y-102101786D01*
X125289711Y-102101789D01*
X125420814Y-102189390D01*
X125420827Y-102189397D01*
X125495109Y-102220165D01*
X125566503Y-102249737D01*
X125721153Y-102280499D01*
X125721156Y-102280500D01*
X125721158Y-102280500D01*
X125878844Y-102280500D01*
X125878845Y-102280499D01*
X126033497Y-102249737D01*
X126179179Y-102189394D01*
X126310289Y-102101789D01*
X126421789Y-101990289D01*
X126509394Y-101859179D01*
X126569737Y-101713497D01*
X126600500Y-101558842D01*
X126600500Y-101401158D01*
X126600500Y-101401155D01*
X126600499Y-101401153D01*
X128499500Y-101401153D01*
X128499500Y-101558846D01*
X128530261Y-101713489D01*
X128530264Y-101713501D01*
X128590602Y-101859172D01*
X128590609Y-101859185D01*
X128678210Y-101990288D01*
X128678213Y-101990292D01*
X128789707Y-102101786D01*
X128789711Y-102101789D01*
X128920814Y-102189390D01*
X128920827Y-102189397D01*
X128995109Y-102220165D01*
X129066503Y-102249737D01*
X129221153Y-102280499D01*
X129221156Y-102280500D01*
X129221158Y-102280500D01*
X129378844Y-102280500D01*
X129378845Y-102280499D01*
X129533497Y-102249737D01*
X129679179Y-102189394D01*
X129810289Y-102101789D01*
X129921789Y-101990289D01*
X130009394Y-101859179D01*
X130069737Y-101713497D01*
X130100500Y-101558842D01*
X130100500Y-101401158D01*
X130100500Y-101401155D01*
X130100499Y-101401153D01*
X130097897Y-101388073D01*
X130069737Y-101246503D01*
X130046080Y-101189390D01*
X130009397Y-101100827D01*
X130009389Y-101100813D01*
X130007486Y-101097964D01*
X129965523Y-101035163D01*
X146836335Y-101035163D01*
X146836335Y-101192856D01*
X146867096Y-101347499D01*
X146867099Y-101347511D01*
X146927437Y-101493182D01*
X146927444Y-101493195D01*
X147015045Y-101624298D01*
X147015048Y-101624302D01*
X147126542Y-101735796D01*
X147126546Y-101735799D01*
X147257649Y-101823400D01*
X147257662Y-101823407D01*
X147403333Y-101883745D01*
X147403338Y-101883747D01*
X147557988Y-101914509D01*
X147557991Y-101914510D01*
X147557993Y-101914510D01*
X147715679Y-101914510D01*
X147715680Y-101914509D01*
X147870332Y-101883747D01*
X148016014Y-101823404D01*
X148147124Y-101735799D01*
X148258624Y-101624299D01*
X148346229Y-101493189D01*
X148406572Y-101347507D01*
X148437335Y-101192852D01*
X148437335Y-101035168D01*
X148437335Y-101035165D01*
X148437334Y-101035163D01*
X148433479Y-101015783D01*
X148406572Y-100880513D01*
X148361049Y-100770609D01*
X148346232Y-100734837D01*
X148346225Y-100734824D01*
X148258624Y-100603721D01*
X148258621Y-100603717D01*
X148147129Y-100492225D01*
X148147122Y-100492219D01*
X148016020Y-100404619D01*
X148016007Y-100404612D01*
X148007656Y-100401153D01*
X164999500Y-100401153D01*
X164999500Y-100558846D01*
X165030261Y-100713489D01*
X165030264Y-100713501D01*
X165090602Y-100859172D01*
X165090609Y-100859185D01*
X165178210Y-100990288D01*
X165178213Y-100990292D01*
X165289707Y-101101786D01*
X165289711Y-101101789D01*
X165420814Y-101189390D01*
X165420827Y-101189397D01*
X165558683Y-101246498D01*
X165566503Y-101249737D01*
X165695353Y-101275367D01*
X165721153Y-101280499D01*
X165721156Y-101280500D01*
X165721158Y-101280500D01*
X165878844Y-101280500D01*
X165878845Y-101280499D01*
X166033497Y-101249737D01*
X166179179Y-101189394D01*
X166310289Y-101101789D01*
X166421789Y-100990289D01*
X166509394Y-100859179D01*
X166510585Y-100856305D01*
X166535141Y-100797019D01*
X166569737Y-100713497D01*
X166600500Y-100558842D01*
X166600500Y-100401158D01*
X166600500Y-100401155D01*
X166600499Y-100401153D01*
X166599763Y-100397453D01*
X166569737Y-100246503D01*
X166565909Y-100237262D01*
X166509397Y-100100827D01*
X166509390Y-100100814D01*
X166421789Y-99969711D01*
X166421786Y-99969707D01*
X166310292Y-99858213D01*
X166310288Y-99858210D01*
X166179185Y-99770609D01*
X166179172Y-99770602D01*
X166033501Y-99710264D01*
X166033489Y-99710261D01*
X165878845Y-99679500D01*
X165878842Y-99679500D01*
X165721158Y-99679500D01*
X165721155Y-99679500D01*
X165566510Y-99710261D01*
X165566498Y-99710264D01*
X165420827Y-99770602D01*
X165420814Y-99770609D01*
X165289711Y-99858210D01*
X165289707Y-99858213D01*
X165178213Y-99969707D01*
X165178210Y-99969711D01*
X165090609Y-100100814D01*
X165090602Y-100100827D01*
X165030264Y-100246498D01*
X165030261Y-100246510D01*
X164999500Y-100401153D01*
X148007656Y-100401153D01*
X147870336Y-100344274D01*
X147870324Y-100344271D01*
X147715680Y-100313510D01*
X147715677Y-100313510D01*
X147557993Y-100313510D01*
X147557990Y-100313510D01*
X147403345Y-100344271D01*
X147403333Y-100344274D01*
X147257662Y-100404612D01*
X147257649Y-100404619D01*
X147126546Y-100492220D01*
X147126542Y-100492223D01*
X147015048Y-100603717D01*
X147015045Y-100603721D01*
X146927444Y-100734824D01*
X146927437Y-100734837D01*
X146867099Y-100880508D01*
X146867096Y-100880520D01*
X146836335Y-101035163D01*
X129965523Y-101035163D01*
X129921789Y-100969711D01*
X129921786Y-100969707D01*
X129810292Y-100858213D01*
X129810288Y-100858210D01*
X129679185Y-100770609D01*
X129679172Y-100770602D01*
X129533501Y-100710264D01*
X129533489Y-100710261D01*
X129378845Y-100679500D01*
X129378842Y-100679500D01*
X129221158Y-100679500D01*
X129221155Y-100679500D01*
X129066510Y-100710261D01*
X129066498Y-100710264D01*
X128920827Y-100770602D01*
X128920814Y-100770609D01*
X128789711Y-100858210D01*
X128789707Y-100858213D01*
X128678213Y-100969707D01*
X128678210Y-100969711D01*
X128590609Y-101100814D01*
X128590602Y-101100827D01*
X128530264Y-101246498D01*
X128530261Y-101246510D01*
X128499500Y-101401153D01*
X126600499Y-101401153D01*
X126597897Y-101388073D01*
X126569737Y-101246503D01*
X126546080Y-101189390D01*
X126509397Y-101100827D01*
X126509390Y-101100814D01*
X126421789Y-100969711D01*
X126421786Y-100969707D01*
X126310292Y-100858213D01*
X126310288Y-100858210D01*
X126179185Y-100770609D01*
X126179172Y-100770602D01*
X126033501Y-100710264D01*
X126033489Y-100710261D01*
X125878845Y-100679500D01*
X125878842Y-100679500D01*
X125721158Y-100679500D01*
X125721155Y-100679500D01*
X125566510Y-100710261D01*
X125566498Y-100710264D01*
X125420827Y-100770602D01*
X125420814Y-100770609D01*
X125289711Y-100858210D01*
X125289707Y-100858213D01*
X125178213Y-100969707D01*
X125178210Y-100969711D01*
X125090609Y-101100814D01*
X125090602Y-101100827D01*
X125030264Y-101246498D01*
X125030261Y-101246510D01*
X124999500Y-101401153D01*
X123486411Y-101401153D01*
X123560289Y-101351789D01*
X123564579Y-101347499D01*
X123604694Y-101307385D01*
X123671786Y-101240292D01*
X123671789Y-101240289D01*
X123759394Y-101109179D01*
X123762854Y-101100827D01*
X123798077Y-101015789D01*
X123819737Y-100963497D01*
X123850500Y-100808842D01*
X123850500Y-100651158D01*
X123850500Y-100651155D01*
X123850499Y-100651153D01*
X123832137Y-100558842D01*
X123819737Y-100496503D01*
X123781678Y-100404619D01*
X123759397Y-100350827D01*
X123759390Y-100350814D01*
X123683517Y-100237262D01*
X123662639Y-100170584D01*
X123681124Y-100103204D01*
X123733102Y-100056514D01*
X123786619Y-100044371D01*
X123943076Y-100044371D01*
X123943077Y-100044370D01*
X124097729Y-100013608D01*
X124243411Y-99953265D01*
X124374521Y-99865660D01*
X124486021Y-99754160D01*
X124573626Y-99623050D01*
X124633969Y-99477368D01*
X124664732Y-99322713D01*
X124664732Y-99165029D01*
X124664732Y-99165026D01*
X124664731Y-99165024D01*
X124633970Y-99010381D01*
X124633969Y-99010374D01*
X124633967Y-99010369D01*
X124573629Y-98864698D01*
X124573622Y-98864685D01*
X124486021Y-98733582D01*
X124486018Y-98733578D01*
X124374524Y-98622084D01*
X124374520Y-98622081D01*
X124243417Y-98534480D01*
X124243404Y-98534473D01*
X124097733Y-98474135D01*
X124097721Y-98474132D01*
X123943077Y-98443371D01*
X123943074Y-98443371D01*
X123785390Y-98443371D01*
X123785387Y-98443371D01*
X123675811Y-98465167D01*
X123606220Y-98458940D01*
X123582729Y-98446652D01*
X123461441Y-98365609D01*
X123461428Y-98365602D01*
X123315757Y-98305264D01*
X123315745Y-98305261D01*
X123161101Y-98274500D01*
X123161098Y-98274500D01*
X123003414Y-98274500D01*
X123003411Y-98274500D01*
X122848761Y-98305261D01*
X122845491Y-98306254D01*
X122843694Y-98306269D01*
X122842784Y-98306451D01*
X122842749Y-98306278D01*
X122775624Y-98306875D01*
X122716513Y-98269625D01*
X122686924Y-98206330D01*
X122685500Y-98187592D01*
X122685500Y-98143692D01*
X122653777Y-97984216D01*
X122653776Y-97984215D01*
X122653776Y-97984211D01*
X122597128Y-97847452D01*
X122589660Y-97777983D01*
X122597129Y-97752547D01*
X122599630Y-97746510D01*
X122653776Y-97615789D01*
X122664157Y-97563598D01*
X122685500Y-97456307D01*
X122685500Y-97293692D01*
X122653777Y-97134216D01*
X122653776Y-97134215D01*
X122653776Y-97134211D01*
X122597128Y-96997452D01*
X122589660Y-96927983D01*
X122597129Y-96902547D01*
X122615090Y-96859185D01*
X122653776Y-96765789D01*
X122685500Y-96606305D01*
X122685500Y-96514145D01*
X122705185Y-96447106D01*
X122757989Y-96401351D01*
X122827147Y-96391407D01*
X122878392Y-96411044D01*
X122920812Y-96439389D01*
X122920827Y-96439397D01*
X123058683Y-96496498D01*
X123066503Y-96499737D01*
X123176697Y-96521656D01*
X123221153Y-96530499D01*
X123221156Y-96530500D01*
X123221158Y-96530500D01*
X123378844Y-96530500D01*
X123378845Y-96530499D01*
X123533497Y-96499737D01*
X123646166Y-96453067D01*
X123679172Y-96439397D01*
X123679172Y-96439396D01*
X123679179Y-96439394D01*
X123792066Y-96363965D01*
X139559499Y-96363965D01*
X139559499Y-96521658D01*
X139590260Y-96676301D01*
X139590263Y-96676313D01*
X139650601Y-96821984D01*
X139650608Y-96821997D01*
X139738209Y-96953100D01*
X139738212Y-96953104D01*
X139849706Y-97064598D01*
X139849710Y-97064601D01*
X139980813Y-97152202D01*
X139980826Y-97152209D01*
X140031223Y-97173084D01*
X140085627Y-97216925D01*
X140107692Y-97283219D01*
X140093136Y-97346086D01*
X140090606Y-97350820D01*
X140030264Y-97496498D01*
X140030261Y-97496510D01*
X139999500Y-97651153D01*
X139999500Y-97808846D01*
X140030261Y-97963489D01*
X140030264Y-97963501D01*
X140090602Y-98109172D01*
X140090609Y-98109185D01*
X140178210Y-98240288D01*
X140178213Y-98240292D01*
X140289707Y-98351786D01*
X140289711Y-98351789D01*
X140420814Y-98439390D01*
X140420827Y-98439397D01*
X140566498Y-98499735D01*
X140566503Y-98499737D01*
X140721153Y-98530499D01*
X140721156Y-98530500D01*
X140721158Y-98530500D01*
X140878844Y-98530500D01*
X140878845Y-98530499D01*
X141033497Y-98499737D01*
X141179179Y-98439394D01*
X141310289Y-98351789D01*
X141421789Y-98240289D01*
X141509394Y-98109179D01*
X141569737Y-97963497D01*
X141582138Y-97901153D01*
X146499500Y-97901153D01*
X146499500Y-98058846D01*
X146530261Y-98213489D01*
X146530264Y-98213501D01*
X146590602Y-98359172D01*
X146590609Y-98359185D01*
X146678210Y-98490288D01*
X146678213Y-98490292D01*
X146789707Y-98601786D01*
X146789711Y-98601789D01*
X146920814Y-98689390D01*
X146920827Y-98689397D01*
X147066498Y-98749735D01*
X147066503Y-98749737D01*
X147221153Y-98780499D01*
X147221156Y-98780500D01*
X147221158Y-98780500D01*
X147378844Y-98780500D01*
X147378845Y-98780499D01*
X147533497Y-98749737D01*
X147679179Y-98689394D01*
X147810289Y-98601789D01*
X147921789Y-98490289D01*
X148009394Y-98359179D01*
X148069737Y-98213497D01*
X148100500Y-98058842D01*
X148100500Y-97901158D01*
X148100500Y-97901155D01*
X148100499Y-97901153D01*
X148080378Y-97800000D01*
X148069737Y-97746503D01*
X148015594Y-97615789D01*
X148009397Y-97600827D01*
X148009390Y-97600814D01*
X147921789Y-97469711D01*
X147921786Y-97469707D01*
X147810292Y-97358213D01*
X147810288Y-97358210D01*
X147679185Y-97270609D01*
X147679172Y-97270602D01*
X147533501Y-97210264D01*
X147533489Y-97210261D01*
X147378845Y-97179500D01*
X147378842Y-97179500D01*
X147221158Y-97179500D01*
X147221155Y-97179500D01*
X147066510Y-97210261D01*
X147066498Y-97210264D01*
X146920827Y-97270602D01*
X146920814Y-97270609D01*
X146789711Y-97358210D01*
X146789707Y-97358213D01*
X146678213Y-97469707D01*
X146678210Y-97469711D01*
X146590609Y-97600814D01*
X146590602Y-97600827D01*
X146530264Y-97746498D01*
X146530261Y-97746510D01*
X146499500Y-97901153D01*
X141582138Y-97901153D01*
X141595500Y-97833979D01*
X141600500Y-97808844D01*
X141600500Y-97651155D01*
X141600499Y-97651153D01*
X141570923Y-97502466D01*
X141569737Y-97496503D01*
X141569735Y-97496498D01*
X141509397Y-97350827D01*
X141509390Y-97350814D01*
X141421789Y-97219711D01*
X141421786Y-97219707D01*
X141310292Y-97108213D01*
X141310288Y-97108210D01*
X141179185Y-97020609D01*
X141179176Y-97020604D01*
X141128773Y-96999727D01*
X141074370Y-96955886D01*
X141052305Y-96889592D01*
X141066875Y-96826699D01*
X141069385Y-96822001D01*
X141069393Y-96821991D01*
X141129736Y-96676309D01*
X141134740Y-96651153D01*
X144999500Y-96651153D01*
X144999500Y-96808846D01*
X145030261Y-96963489D01*
X145030264Y-96963501D01*
X145090602Y-97109172D01*
X145090609Y-97109185D01*
X145178210Y-97240288D01*
X145178213Y-97240292D01*
X145289707Y-97351786D01*
X145289711Y-97351789D01*
X145420814Y-97439390D01*
X145420827Y-97439397D01*
X145494013Y-97469711D01*
X145566503Y-97499737D01*
X145721153Y-97530499D01*
X145721156Y-97530500D01*
X145721158Y-97530500D01*
X145878844Y-97530500D01*
X145878845Y-97530499D01*
X146033497Y-97499737D01*
X146179179Y-97439394D01*
X146310289Y-97351789D01*
X146421789Y-97240289D01*
X146509394Y-97109179D01*
X146569737Y-96963497D01*
X146600500Y-96808842D01*
X146600500Y-96651158D01*
X146600500Y-96651155D01*
X146600499Y-96651153D01*
X146594476Y-96620874D01*
X146569737Y-96496503D01*
X146530242Y-96401153D01*
X149249500Y-96401153D01*
X149249500Y-96558846D01*
X149280261Y-96713489D01*
X149280264Y-96713501D01*
X149340602Y-96859172D01*
X149340609Y-96859185D01*
X149428210Y-96990288D01*
X149428213Y-96990292D01*
X149539707Y-97101786D01*
X149539711Y-97101789D01*
X149670814Y-97189390D01*
X149670827Y-97189397D01*
X149816498Y-97249735D01*
X149816503Y-97249737D01*
X149971153Y-97280499D01*
X149971156Y-97280500D01*
X149971158Y-97280500D01*
X150128844Y-97280500D01*
X150128845Y-97280499D01*
X150283497Y-97249737D01*
X150429179Y-97189394D01*
X150560289Y-97101789D01*
X150671789Y-96990289D01*
X150759394Y-96859179D01*
X150819737Y-96713497D01*
X150850500Y-96558842D01*
X150850500Y-96401158D01*
X150850500Y-96401155D01*
X150850499Y-96401153D01*
X150819739Y-96246511D01*
X150819738Y-96246509D01*
X150819737Y-96246503D01*
X150801729Y-96203028D01*
X150794261Y-96133565D01*
X150813187Y-96086692D01*
X150876229Y-95992344D01*
X150936572Y-95846662D01*
X150967335Y-95692007D01*
X150967335Y-95534323D01*
X150967335Y-95534320D01*
X150944447Y-95419258D01*
X150944447Y-95419257D01*
X150940846Y-95401153D01*
X165499500Y-95401153D01*
X165499500Y-95558846D01*
X165530261Y-95713489D01*
X165530264Y-95713501D01*
X165590602Y-95859172D01*
X165590609Y-95859185D01*
X165678210Y-95990288D01*
X165678213Y-95990292D01*
X165789707Y-96101786D01*
X165789711Y-96101789D01*
X165920814Y-96189390D01*
X165920827Y-96189397D01*
X166066498Y-96249735D01*
X166066503Y-96249737D01*
X166169362Y-96270197D01*
X166221153Y-96280499D01*
X166221156Y-96280500D01*
X166221158Y-96280500D01*
X166378844Y-96280500D01*
X166378845Y-96280499D01*
X166533497Y-96249737D01*
X166664752Y-96195370D01*
X166679172Y-96189397D01*
X166679172Y-96189396D01*
X166679179Y-96189394D01*
X166810289Y-96101789D01*
X166921789Y-95990289D01*
X167009394Y-95859179D01*
X167069737Y-95713497D01*
X167100500Y-95558842D01*
X167100500Y-95401158D01*
X167100500Y-95401155D01*
X167100499Y-95401153D01*
X167096227Y-95379675D01*
X167069737Y-95246503D01*
X167064552Y-95233986D01*
X167009397Y-95100827D01*
X167009390Y-95100814D01*
X166921789Y-94969711D01*
X166921786Y-94969707D01*
X166810292Y-94858213D01*
X166810288Y-94858210D01*
X166679185Y-94770609D01*
X166679172Y-94770602D01*
X166533501Y-94710264D01*
X166533489Y-94710261D01*
X166378845Y-94679500D01*
X166378842Y-94679500D01*
X166221158Y-94679500D01*
X166221155Y-94679500D01*
X166066510Y-94710261D01*
X166066498Y-94710264D01*
X165920827Y-94770602D01*
X165920814Y-94770609D01*
X165789711Y-94858210D01*
X165789707Y-94858213D01*
X165678213Y-94969707D01*
X165678210Y-94969711D01*
X165590609Y-95100814D01*
X165590602Y-95100827D01*
X165530264Y-95246498D01*
X165530261Y-95246510D01*
X165499500Y-95401153D01*
X150940846Y-95401153D01*
X150936573Y-95379674D01*
X150936572Y-95379668D01*
X150924623Y-95350821D01*
X150876232Y-95233992D01*
X150876225Y-95233979D01*
X150788624Y-95102876D01*
X150788621Y-95102872D01*
X150677127Y-94991378D01*
X150677123Y-94991375D01*
X150546020Y-94903774D01*
X150546007Y-94903767D01*
X150400336Y-94843429D01*
X150400324Y-94843426D01*
X150245680Y-94812665D01*
X150245677Y-94812665D01*
X150087993Y-94812665D01*
X150087990Y-94812665D01*
X149933345Y-94843426D01*
X149933333Y-94843429D01*
X149787662Y-94903767D01*
X149787649Y-94903774D01*
X149656546Y-94991375D01*
X149656542Y-94991378D01*
X149545048Y-95102872D01*
X149545045Y-95102876D01*
X149457444Y-95233979D01*
X149457437Y-95233992D01*
X149397099Y-95379663D01*
X149397096Y-95379675D01*
X149366335Y-95534318D01*
X149366335Y-95692011D01*
X149397095Y-95846653D01*
X149397098Y-95846663D01*
X149415104Y-95890133D01*
X149422573Y-95959603D01*
X149403645Y-96006476D01*
X149340609Y-96100814D01*
X149340602Y-96100827D01*
X149280264Y-96246498D01*
X149280261Y-96246510D01*
X149249500Y-96401153D01*
X146530242Y-96401153D01*
X146523287Y-96384362D01*
X146509397Y-96350827D01*
X146509390Y-96350814D01*
X146421789Y-96219711D01*
X146421786Y-96219707D01*
X146310292Y-96108213D01*
X146310288Y-96108210D01*
X146179185Y-96020609D01*
X146179172Y-96020602D01*
X146033501Y-95960264D01*
X146033489Y-95960261D01*
X145878845Y-95929500D01*
X145878842Y-95929500D01*
X145721158Y-95929500D01*
X145721155Y-95929500D01*
X145566510Y-95960261D01*
X145566498Y-95960264D01*
X145420827Y-96020602D01*
X145420814Y-96020609D01*
X145289711Y-96108210D01*
X145289707Y-96108213D01*
X145178213Y-96219707D01*
X145178210Y-96219711D01*
X145090609Y-96350814D01*
X145090602Y-96350827D01*
X145030264Y-96496498D01*
X145030261Y-96496510D01*
X144999500Y-96651153D01*
X141134740Y-96651153D01*
X141140763Y-96620874D01*
X141160499Y-96521656D01*
X141160499Y-96363967D01*
X141160498Y-96363965D01*
X141144633Y-96284206D01*
X141129736Y-96209315D01*
X141099987Y-96137493D01*
X141069396Y-96063639D01*
X141069389Y-96063626D01*
X140981788Y-95932523D01*
X140981785Y-95932519D01*
X140870291Y-95821025D01*
X140870287Y-95821022D01*
X140739184Y-95733421D01*
X140739171Y-95733414D01*
X140593500Y-95673076D01*
X140593488Y-95673073D01*
X140438844Y-95642312D01*
X140438841Y-95642312D01*
X140281157Y-95642312D01*
X140281154Y-95642312D01*
X140126509Y-95673073D01*
X140126497Y-95673076D01*
X139980826Y-95733414D01*
X139980813Y-95733421D01*
X139849710Y-95821022D01*
X139849706Y-95821025D01*
X139738212Y-95932519D01*
X139738209Y-95932523D01*
X139650608Y-96063626D01*
X139650601Y-96063639D01*
X139590263Y-96209310D01*
X139590260Y-96209322D01*
X139559499Y-96363965D01*
X123792066Y-96363965D01*
X123810289Y-96351789D01*
X123811264Y-96350814D01*
X123891882Y-96270197D01*
X123921786Y-96240292D01*
X123921789Y-96240289D01*
X124009394Y-96109179D01*
X124012854Y-96100827D01*
X124028260Y-96063633D01*
X124069737Y-95963497D01*
X124100500Y-95808842D01*
X124100500Y-95651158D01*
X124100500Y-95651155D01*
X124100499Y-95651153D01*
X124074507Y-95520485D01*
X124069737Y-95496503D01*
X124049890Y-95448587D01*
X124009397Y-95350827D01*
X124009390Y-95350814D01*
X123921789Y-95219711D01*
X123921786Y-95219707D01*
X123810292Y-95108213D01*
X123810288Y-95108210D01*
X123679185Y-95020609D01*
X123679172Y-95020602D01*
X123533501Y-94960264D01*
X123533489Y-94960261D01*
X123378845Y-94929500D01*
X123378842Y-94929500D01*
X123221158Y-94929500D01*
X123221155Y-94929500D01*
X123066510Y-94960261D01*
X123066498Y-94960264D01*
X122920827Y-95020602D01*
X122920814Y-95020609D01*
X122789711Y-95108210D01*
X122789707Y-95108213D01*
X122678213Y-95219707D01*
X122678210Y-95219711D01*
X122590609Y-95350814D01*
X122590602Y-95350827D01*
X122530264Y-95496498D01*
X122530261Y-95496510D01*
X122499500Y-95651153D01*
X122499500Y-95727492D01*
X122479815Y-95794531D01*
X122427011Y-95840286D01*
X122357853Y-95850230D01*
X122306610Y-95830595D01*
X122292283Y-95821022D01*
X122251021Y-95793452D01*
X122251018Y-95793450D01*
X122251017Y-95793450D01*
X122100793Y-95731225D01*
X122100783Y-95731222D01*
X121941307Y-95699500D01*
X121941305Y-95699500D01*
X121778695Y-95699500D01*
X121778693Y-95699500D01*
X121619216Y-95731222D01*
X121619206Y-95731225D01*
X121468980Y-95793450D01*
X121468976Y-95793452D01*
X121333779Y-95883788D01*
X121333771Y-95883794D01*
X121272681Y-95944885D01*
X121211358Y-95978370D01*
X121141666Y-95973386D01*
X121097319Y-95944885D01*
X121036228Y-95883794D01*
X121036220Y-95883788D01*
X120901023Y-95793452D01*
X120901019Y-95793450D01*
X120750793Y-95731225D01*
X120750783Y-95731222D01*
X120591307Y-95699500D01*
X120591305Y-95699500D01*
X120428695Y-95699500D01*
X120428693Y-95699500D01*
X120269216Y-95731222D01*
X120269206Y-95731225D01*
X120118980Y-95793450D01*
X120118976Y-95793452D01*
X119983779Y-95883788D01*
X119983771Y-95883794D01*
X119868794Y-95998771D01*
X119868788Y-95998779D01*
X119778452Y-96133976D01*
X119778450Y-96133980D01*
X119716225Y-96284206D01*
X119716222Y-96284216D01*
X119684500Y-96443692D01*
X119684500Y-96443695D01*
X119684500Y-96606305D01*
X119684500Y-96606307D01*
X119684499Y-96606307D01*
X116300500Y-96606307D01*
X116300500Y-94401153D01*
X143499500Y-94401153D01*
X143499500Y-94558846D01*
X143530261Y-94713489D01*
X143530264Y-94713501D01*
X143590602Y-94859172D01*
X143590609Y-94859185D01*
X143678210Y-94990288D01*
X143678213Y-94990292D01*
X143789707Y-95101786D01*
X143789711Y-95101789D01*
X143920814Y-95189390D01*
X143920827Y-95189397D01*
X144058683Y-95246498D01*
X144066503Y-95249737D01*
X144221153Y-95280499D01*
X144221156Y-95280500D01*
X144221158Y-95280500D01*
X144378844Y-95280500D01*
X144378845Y-95280499D01*
X144533497Y-95249737D01*
X144679179Y-95189394D01*
X144810289Y-95101789D01*
X144921789Y-94990289D01*
X145009394Y-94859179D01*
X145069737Y-94713497D01*
X145100500Y-94558842D01*
X145100500Y-94401158D01*
X145100500Y-94401155D01*
X145100499Y-94401153D01*
X145069738Y-94246510D01*
X145069737Y-94246503D01*
X145066778Y-94239360D01*
X145009397Y-94100827D01*
X145009390Y-94100814D01*
X144921789Y-93969711D01*
X144921786Y-93969707D01*
X144810292Y-93858213D01*
X144810288Y-93858210D01*
X144679185Y-93770609D01*
X144679172Y-93770602D01*
X144533501Y-93710264D01*
X144533489Y-93710261D01*
X144378845Y-93679500D01*
X144378842Y-93679500D01*
X144221158Y-93679500D01*
X144221155Y-93679500D01*
X144066510Y-93710261D01*
X144066498Y-93710264D01*
X143920827Y-93770602D01*
X143920814Y-93770609D01*
X143789711Y-93858210D01*
X143789707Y-93858213D01*
X143678213Y-93969707D01*
X143678210Y-93969711D01*
X143590609Y-94100814D01*
X143590602Y-94100827D01*
X143530264Y-94246498D01*
X143530261Y-94246510D01*
X143499500Y-94401153D01*
X116300500Y-94401153D01*
X116300500Y-93151153D01*
X132499500Y-93151153D01*
X132499500Y-93308846D01*
X132530261Y-93463489D01*
X132530264Y-93463501D01*
X132590602Y-93609172D01*
X132590609Y-93609185D01*
X132678210Y-93740288D01*
X132678213Y-93740292D01*
X132789707Y-93851786D01*
X132789711Y-93851789D01*
X132920814Y-93939390D01*
X132920827Y-93939397D01*
X132994013Y-93969711D01*
X133066503Y-93999737D01*
X133221153Y-94030499D01*
X133221156Y-94030500D01*
X133221158Y-94030500D01*
X133378844Y-94030500D01*
X133378845Y-94030499D01*
X133533497Y-93999737D01*
X133679179Y-93939394D01*
X133810289Y-93851789D01*
X133921789Y-93740289D01*
X134009394Y-93609179D01*
X134069737Y-93463497D01*
X134100500Y-93308842D01*
X134100500Y-93151158D01*
X134100500Y-93151155D01*
X134100499Y-93151153D01*
X134076499Y-93030500D01*
X134069737Y-92996503D01*
X134046080Y-92939390D01*
X134009397Y-92850827D01*
X134009390Y-92850814D01*
X133921789Y-92719711D01*
X133921786Y-92719707D01*
X133810292Y-92608213D01*
X133810288Y-92608210D01*
X133679185Y-92520609D01*
X133679172Y-92520602D01*
X133533501Y-92460264D01*
X133533489Y-92460261D01*
X133378845Y-92429500D01*
X133378842Y-92429500D01*
X133221158Y-92429500D01*
X133221155Y-92429500D01*
X133066510Y-92460261D01*
X133066498Y-92460264D01*
X132920827Y-92520602D01*
X132920814Y-92520609D01*
X132789711Y-92608210D01*
X132789707Y-92608213D01*
X132678213Y-92719707D01*
X132678210Y-92719711D01*
X132590609Y-92850814D01*
X132590602Y-92850827D01*
X132530264Y-92996498D01*
X132530261Y-92996510D01*
X132499500Y-93151153D01*
X116300500Y-93151153D01*
X116300500Y-92151153D01*
X134499500Y-92151153D01*
X134499500Y-92308846D01*
X134530261Y-92463489D01*
X134530264Y-92463501D01*
X134590602Y-92609172D01*
X134590609Y-92609185D01*
X134678210Y-92740288D01*
X134678213Y-92740292D01*
X134789707Y-92851786D01*
X134789711Y-92851789D01*
X134920814Y-92939390D01*
X134920827Y-92939397D01*
X135058683Y-92996498D01*
X135066503Y-92999737D01*
X135162367Y-93018805D01*
X135163535Y-93019038D01*
X135225446Y-93051422D01*
X135260020Y-93112138D01*
X135260961Y-93116463D01*
X135280261Y-93213491D01*
X135280264Y-93213501D01*
X135340602Y-93359172D01*
X135340609Y-93359185D01*
X135428210Y-93490288D01*
X135428213Y-93490292D01*
X135539707Y-93601786D01*
X135539711Y-93601789D01*
X135670814Y-93689390D01*
X135670827Y-93689397D01*
X135816498Y-93749735D01*
X135816503Y-93749737D01*
X135971153Y-93780499D01*
X135971156Y-93780500D01*
X135971158Y-93780500D01*
X136128844Y-93780500D01*
X136128845Y-93780499D01*
X136283497Y-93749737D01*
X136429179Y-93689394D01*
X136560289Y-93601789D01*
X136671789Y-93490289D01*
X136759394Y-93359179D01*
X136819737Y-93213497D01*
X136850500Y-93058842D01*
X136850500Y-92901158D01*
X136850500Y-92901155D01*
X136848569Y-92891450D01*
X136854793Y-92821858D01*
X136882503Y-92779573D01*
X136921789Y-92740289D01*
X137009394Y-92609179D01*
X137069737Y-92463497D01*
X137100500Y-92308842D01*
X137100500Y-92151158D01*
X137100500Y-92151155D01*
X137100499Y-92151153D01*
X137069738Y-91996510D01*
X137069737Y-91996503D01*
X137056062Y-91963489D01*
X137009397Y-91850827D01*
X137009390Y-91850814D01*
X136921790Y-91719712D01*
X136921784Y-91719705D01*
X136853232Y-91651153D01*
X145249500Y-91651153D01*
X145249500Y-91808846D01*
X145280261Y-91963489D01*
X145280264Y-91963501D01*
X145340602Y-92109172D01*
X145340609Y-92109185D01*
X145428210Y-92240288D01*
X145428213Y-92240292D01*
X145539707Y-92351786D01*
X145539711Y-92351789D01*
X145670814Y-92439390D01*
X145670827Y-92439397D01*
X145816498Y-92499735D01*
X145816503Y-92499737D01*
X145971153Y-92530499D01*
X145971156Y-92530500D01*
X145971158Y-92530500D01*
X146128844Y-92530500D01*
X146128845Y-92530499D01*
X146283497Y-92499737D01*
X146429179Y-92439394D01*
X146560289Y-92351789D01*
X146671789Y-92240289D01*
X146759394Y-92109179D01*
X146819737Y-91963497D01*
X146850500Y-91808842D01*
X146850500Y-91651158D01*
X146850500Y-91651155D01*
X146850499Y-91651153D01*
X146832137Y-91558842D01*
X146819737Y-91496503D01*
X146780242Y-91401153D01*
X152749500Y-91401153D01*
X152749500Y-91558846D01*
X152780261Y-91713489D01*
X152780264Y-91713501D01*
X152840602Y-91859172D01*
X152840609Y-91859185D01*
X152928210Y-91990288D01*
X152928213Y-91990292D01*
X153039707Y-92101786D01*
X153039711Y-92101789D01*
X153170814Y-92189390D01*
X153170827Y-92189397D01*
X153316498Y-92249735D01*
X153316503Y-92249737D01*
X153471153Y-92280499D01*
X153471156Y-92280500D01*
X153471158Y-92280500D01*
X153628844Y-92280500D01*
X153628845Y-92280499D01*
X153783497Y-92249737D01*
X153929179Y-92189394D01*
X154060289Y-92101789D01*
X154171789Y-91990289D01*
X154259394Y-91859179D01*
X154271937Y-91828896D01*
X154315776Y-91774494D01*
X154382070Y-91752428D01*
X154449769Y-91769706D01*
X154497381Y-91820842D01*
X154508115Y-91852157D01*
X154530261Y-91963491D01*
X154530264Y-91963501D01*
X154590602Y-92109172D01*
X154590609Y-92109185D01*
X154678210Y-92240288D01*
X154678213Y-92240292D01*
X154789707Y-92351786D01*
X154789711Y-92351789D01*
X154920814Y-92439390D01*
X154920827Y-92439397D01*
X155066498Y-92499735D01*
X155066503Y-92499737D01*
X155221153Y-92530499D01*
X155221156Y-92530500D01*
X155221158Y-92530500D01*
X155378844Y-92530500D01*
X155378845Y-92530499D01*
X155533497Y-92499737D01*
X155679179Y-92439394D01*
X155810289Y-92351789D01*
X155921789Y-92240289D01*
X156009394Y-92109179D01*
X156069737Y-91963497D01*
X156100500Y-91808842D01*
X156100500Y-91651158D01*
X156100500Y-91651155D01*
X156100499Y-91651153D01*
X156082137Y-91558842D01*
X156069737Y-91496503D01*
X156069735Y-91496498D01*
X156009397Y-91350827D01*
X156009390Y-91350814D01*
X155921789Y-91219711D01*
X155921786Y-91219707D01*
X155810292Y-91108213D01*
X155810288Y-91108210D01*
X155679185Y-91020609D01*
X155679172Y-91020602D01*
X155533501Y-90960264D01*
X155533489Y-90960261D01*
X155378845Y-90929500D01*
X155378842Y-90929500D01*
X155221158Y-90929500D01*
X155221155Y-90929500D01*
X155066510Y-90960261D01*
X155066498Y-90960264D01*
X154920827Y-91020602D01*
X154920814Y-91020609D01*
X154789711Y-91108210D01*
X154789707Y-91108213D01*
X154678213Y-91219707D01*
X154678210Y-91219711D01*
X154590609Y-91350814D01*
X154590601Y-91350829D01*
X154578061Y-91381104D01*
X154534220Y-91435507D01*
X154467925Y-91457571D01*
X154400226Y-91440291D01*
X154352616Y-91389153D01*
X154341884Y-91357841D01*
X154319738Y-91246510D01*
X154319737Y-91246503D01*
X154319735Y-91246498D01*
X154259397Y-91100827D01*
X154259390Y-91100814D01*
X154171789Y-90969711D01*
X154171786Y-90969707D01*
X154060292Y-90858213D01*
X154060288Y-90858210D01*
X153929185Y-90770609D01*
X153929172Y-90770602D01*
X153783501Y-90710264D01*
X153783489Y-90710261D01*
X153628845Y-90679500D01*
X153628842Y-90679500D01*
X153471158Y-90679500D01*
X153471155Y-90679500D01*
X153316510Y-90710261D01*
X153316498Y-90710264D01*
X153170827Y-90770602D01*
X153170814Y-90770609D01*
X153039711Y-90858210D01*
X153039707Y-90858213D01*
X152928213Y-90969707D01*
X152928210Y-90969711D01*
X152840609Y-91100814D01*
X152840602Y-91100827D01*
X152780264Y-91246498D01*
X152780261Y-91246510D01*
X152749500Y-91401153D01*
X146780242Y-91401153D01*
X146762302Y-91357841D01*
X146759397Y-91350827D01*
X146759390Y-91350814D01*
X146671789Y-91219711D01*
X146671786Y-91219707D01*
X146560292Y-91108213D01*
X146560288Y-91108210D01*
X146429185Y-91020609D01*
X146429172Y-91020602D01*
X146283501Y-90960264D01*
X146283489Y-90960261D01*
X146128845Y-90929500D01*
X146128842Y-90929500D01*
X145971158Y-90929500D01*
X145971155Y-90929500D01*
X145816510Y-90960261D01*
X145816498Y-90960264D01*
X145670827Y-91020602D01*
X145670814Y-91020609D01*
X145539711Y-91108210D01*
X145539707Y-91108213D01*
X145428213Y-91219707D01*
X145428210Y-91219711D01*
X145340609Y-91350814D01*
X145340602Y-91350827D01*
X145280264Y-91496498D01*
X145280261Y-91496510D01*
X145249500Y-91651153D01*
X136853232Y-91651153D01*
X136810292Y-91608213D01*
X136810288Y-91608210D01*
X136679185Y-91520609D01*
X136679172Y-91520602D01*
X136533501Y-91460264D01*
X136533489Y-91460261D01*
X136378845Y-91429500D01*
X136378842Y-91429500D01*
X136221158Y-91429500D01*
X136221155Y-91429500D01*
X136066510Y-91460261D01*
X136066498Y-91460264D01*
X135920827Y-91520602D01*
X135920814Y-91520609D01*
X135868891Y-91555304D01*
X135802214Y-91576182D01*
X135734833Y-91557698D01*
X135731109Y-91555304D01*
X135679185Y-91520609D01*
X135679172Y-91520602D01*
X135533501Y-91460264D01*
X135533489Y-91460261D01*
X135378845Y-91429500D01*
X135378842Y-91429500D01*
X135221158Y-91429500D01*
X135221155Y-91429500D01*
X135066510Y-91460261D01*
X135066498Y-91460264D01*
X134920827Y-91520602D01*
X134920814Y-91520609D01*
X134789711Y-91608210D01*
X134789707Y-91608213D01*
X134678213Y-91719707D01*
X134678210Y-91719711D01*
X134590609Y-91850814D01*
X134590602Y-91850827D01*
X134530264Y-91996498D01*
X134530261Y-91996510D01*
X134499500Y-92151153D01*
X116300500Y-92151153D01*
X116300500Y-81986961D01*
X116301280Y-81973077D01*
X116301280Y-81973076D01*
X116311460Y-81882729D01*
X116317635Y-81855670D01*
X116345353Y-81776456D01*
X116357396Y-81751450D01*
X116402046Y-81680389D01*
X116419351Y-81658690D01*
X116478690Y-81599351D01*
X116500389Y-81582046D01*
X116571450Y-81537396D01*
X116596456Y-81525353D01*
X116675670Y-81497635D01*
X116702733Y-81491459D01*
X116765419Y-81484396D01*
X116793079Y-81481280D01*
X116806962Y-81480500D01*
X116865892Y-81480500D01*
X174934108Y-81480500D01*
X174993038Y-81480500D01*
X175006922Y-81481280D01*
G37*
%TD.AperFunction*%
%TD*%
M02*
