%TF.GenerationSoftware,KiCad,Pcbnew,9.0.3*%
%TF.CreationDate,2025-07-20T22:32:55-06:00*%
%TF.ProjectId,bare_mega_1284,62617265-5f6d-4656-9761-5f313238342e,rev?*%
%TF.SameCoordinates,Original*%
%TF.FileFunction,Legend,Top*%
%TF.FilePolarity,Positive*%
%FSLAX46Y46*%
G04 Gerber Fmt 4.6, Leading zero omitted, Abs format (unit mm)*
G04 Created by KiCad (PCBNEW 9.0.3) date 2025-07-20 22:32:55*
%MOMM*%
%LPD*%
G01*
G04 APERTURE LIST*
%ADD10C,0.150000*%
%ADD11C,0.098425*%
%ADD12C,0.254000*%
%ADD13C,0.200000*%
%ADD14C,0.152400*%
%ADD15C,0.508000*%
%ADD16C,0.120000*%
%ADD17C,0.127000*%
%ADD18C,0.000000*%
%ADD19C,0.100000*%
G04 APERTURE END LIST*
D10*
G36*
X121425685Y-85459077D02*
G01*
X121456092Y-85489484D01*
X121494585Y-85566471D01*
X121537969Y-85740005D01*
X121537969Y-85959632D01*
X121494585Y-86133166D01*
X121456091Y-86210153D01*
X121425684Y-86240561D01*
X121357169Y-86274819D01*
X121297341Y-86274819D01*
X121228825Y-86240561D01*
X121198418Y-86210153D01*
X121159924Y-86133166D01*
X121116541Y-85959632D01*
X121116541Y-85740005D01*
X121159924Y-85566471D01*
X121198418Y-85489484D01*
X121228825Y-85459077D01*
X121297341Y-85424819D01*
X121357169Y-85424819D01*
X121425685Y-85459077D01*
G37*
G36*
X120759018Y-83849133D02*
G01*
X120789425Y-83879540D01*
X120827918Y-83956527D01*
X120871302Y-84130061D01*
X120871302Y-84349688D01*
X120827918Y-84523222D01*
X120789424Y-84600209D01*
X120759017Y-84630617D01*
X120690502Y-84664875D01*
X120630674Y-84664875D01*
X120562158Y-84630617D01*
X120531751Y-84600209D01*
X120493257Y-84523222D01*
X120449874Y-84349688D01*
X120449874Y-84130061D01*
X120493257Y-83956527D01*
X120531751Y-83879540D01*
X120562158Y-83849133D01*
X120630674Y-83814875D01*
X120690502Y-83814875D01*
X120759018Y-83849133D01*
G37*
G36*
X118572455Y-82719292D02*
G01*
X118598949Y-82745786D01*
X118633207Y-82814302D01*
X118633207Y-82921749D01*
X118598948Y-82990265D01*
X118568541Y-83020673D01*
X118500026Y-83054931D01*
X118211779Y-83054931D01*
X118211779Y-82681121D01*
X118457942Y-82681121D01*
X118572455Y-82719292D01*
G37*
G36*
X118520923Y-82239189D02*
G01*
X118551330Y-82269596D01*
X118585588Y-82338112D01*
X118585588Y-82397940D01*
X118551330Y-82466456D01*
X118520923Y-82496863D01*
X118452407Y-82531121D01*
X118211779Y-82531121D01*
X118211779Y-82204931D01*
X118452407Y-82204931D01*
X118520923Y-82239189D01*
G37*
G36*
X124949495Y-82667760D02*
G01*
X124979902Y-82698167D01*
X125014160Y-82766683D01*
X125014160Y-82921749D01*
X124979901Y-82990265D01*
X124949494Y-83020673D01*
X124880979Y-83054931D01*
X124725913Y-83054931D01*
X124657397Y-83020673D01*
X124626990Y-82990265D01*
X124592732Y-82921749D01*
X124592732Y-82766683D01*
X124626990Y-82698167D01*
X124657397Y-82667760D01*
X124725913Y-82633502D01*
X124880979Y-82633502D01*
X124949495Y-82667760D01*
G37*
G36*
X124949495Y-82239189D02*
G01*
X124979902Y-82269596D01*
X125014160Y-82338112D01*
X125014160Y-82350321D01*
X124979902Y-82418837D01*
X124949495Y-82449244D01*
X124880979Y-82483502D01*
X124725913Y-82483502D01*
X124657397Y-82449244D01*
X124626990Y-82418837D01*
X124592732Y-82350321D01*
X124592732Y-82338112D01*
X124626990Y-82269596D01*
X124657397Y-82239189D01*
X124725913Y-82204931D01*
X124880979Y-82204931D01*
X124949495Y-82239189D01*
G37*
G36*
X120425685Y-82239189D02*
G01*
X120456092Y-82269596D01*
X120490350Y-82338112D01*
X120490350Y-82445559D01*
X120456092Y-82514075D01*
X120425685Y-82544482D01*
X120357169Y-82578740D01*
X120068922Y-82578740D01*
X120068922Y-82204931D01*
X120357169Y-82204931D01*
X120425685Y-82239189D01*
G37*
G36*
X119461293Y-82769216D02*
G01*
X119193217Y-82769216D01*
X119327255Y-82367101D01*
X119461293Y-82769216D01*
G37*
G36*
X126273830Y-86774025D02*
G01*
X117808400Y-86774025D01*
X117808400Y-86587993D01*
X118871303Y-86587993D01*
X118877042Y-86616687D01*
X118893325Y-86641002D01*
X118917674Y-86657235D01*
X118946382Y-86662914D01*
X118975076Y-86657175D01*
X118999391Y-86640892D01*
X119008707Y-86629516D01*
X119036389Y-86587993D01*
X121823684Y-86587993D01*
X121829423Y-86616687D01*
X121845706Y-86641002D01*
X121870055Y-86657235D01*
X121898763Y-86662914D01*
X121927457Y-86657175D01*
X121951772Y-86640892D01*
X121961088Y-86629516D01*
X122157307Y-86335187D01*
X122920363Y-86335187D01*
X122920363Y-86364451D01*
X122931562Y-86391487D01*
X122952254Y-86412179D01*
X122979290Y-86423378D01*
X122993922Y-86424819D01*
X123612969Y-86424819D01*
X123627601Y-86423378D01*
X123654637Y-86412179D01*
X123675329Y-86391487D01*
X123686528Y-86364451D01*
X123686528Y-86335187D01*
X123675329Y-86308151D01*
X123654637Y-86287459D01*
X123627601Y-86276260D01*
X123612969Y-86274819D01*
X123174988Y-86274819D01*
X123616557Y-85833249D01*
X123919272Y-85833249D01*
X123920363Y-85836864D01*
X123920363Y-85840640D01*
X123924557Y-85850765D01*
X123927725Y-85861265D01*
X123930116Y-85864188D01*
X123931562Y-85867677D01*
X123939315Y-85875430D01*
X123946256Y-85883913D01*
X123949582Y-85885697D01*
X123952254Y-85888369D01*
X123962381Y-85892564D01*
X123972043Y-85897747D01*
X123975802Y-85898122D01*
X123979291Y-85899568D01*
X123990252Y-85899568D01*
X124001162Y-85900659D01*
X124004778Y-85899568D01*
X124008553Y-85899568D01*
X124018678Y-85895373D01*
X124029178Y-85892206D01*
X124032101Y-85889814D01*
X124035590Y-85888369D01*
X124046955Y-85879042D01*
X124085968Y-85840029D01*
X124154484Y-85805771D01*
X124357169Y-85805771D01*
X124425685Y-85840029D01*
X124456092Y-85870436D01*
X124490350Y-85938952D01*
X124490350Y-86141637D01*
X124456091Y-86210153D01*
X124425684Y-86240561D01*
X124357169Y-86274819D01*
X124154484Y-86274819D01*
X124085968Y-86240561D01*
X124046956Y-86201548D01*
X124035590Y-86192220D01*
X124008554Y-86181021D01*
X123979291Y-86181021D01*
X123952255Y-86192219D01*
X123931562Y-86212912D01*
X123920363Y-86239948D01*
X123920363Y-86269211D01*
X123931561Y-86296247D01*
X123940888Y-86307612D01*
X123988507Y-86355232D01*
X123994256Y-86359950D01*
X123995557Y-86361450D01*
X123997816Y-86362872D01*
X123999873Y-86364560D01*
X124001700Y-86365317D01*
X124008000Y-86369282D01*
X124103238Y-86416901D01*
X124116969Y-86422156D01*
X124119658Y-86422347D01*
X124122147Y-86423378D01*
X124136779Y-86424819D01*
X124374874Y-86424819D01*
X124389506Y-86423378D01*
X124391995Y-86422346D01*
X124394683Y-86422156D01*
X124408415Y-86416901D01*
X124503653Y-86369282D01*
X124509952Y-86365317D01*
X124511780Y-86364560D01*
X124513836Y-86362872D01*
X124516096Y-86361450D01*
X124517396Y-86359950D01*
X124523146Y-86355232D01*
X124570764Y-86307613D01*
X124575482Y-86301863D01*
X124576981Y-86300564D01*
X124578402Y-86298305D01*
X124580092Y-86296247D01*
X124580849Y-86294417D01*
X124584813Y-86288121D01*
X124632432Y-86192883D01*
X124637687Y-86179152D01*
X124637878Y-86176462D01*
X124638909Y-86173974D01*
X124640350Y-86159342D01*
X124640350Y-85921247D01*
X124638909Y-85906615D01*
X124637878Y-85904126D01*
X124637687Y-85901437D01*
X124632432Y-85887706D01*
X124584813Y-85792468D01*
X124580848Y-85786168D01*
X124580091Y-85784341D01*
X124578402Y-85782284D01*
X124576981Y-85780025D01*
X124575482Y-85778725D01*
X124570764Y-85772976D01*
X124523145Y-85725357D01*
X124517395Y-85720638D01*
X124516096Y-85719140D01*
X124513836Y-85717718D01*
X124511780Y-85716030D01*
X124509952Y-85715272D01*
X124503653Y-85711308D01*
X124408415Y-85663689D01*
X124394683Y-85658434D01*
X124391995Y-85658243D01*
X124389506Y-85657212D01*
X124374874Y-85655771D01*
X124136779Y-85655771D01*
X124122147Y-85657212D01*
X124119658Y-85658242D01*
X124116969Y-85658434D01*
X124103238Y-85663689D01*
X124084596Y-85673009D01*
X124109415Y-85424819D01*
X124517731Y-85424819D01*
X124532363Y-85423378D01*
X124559399Y-85412179D01*
X124580091Y-85391487D01*
X124591290Y-85364451D01*
X124591290Y-85335187D01*
X124580091Y-85308151D01*
X124559399Y-85287459D01*
X124532363Y-85276260D01*
X124517731Y-85274819D01*
X124041541Y-85274819D01*
X124036129Y-85275351D01*
X124034301Y-85275169D01*
X124032514Y-85275707D01*
X124026909Y-85276260D01*
X124016782Y-85280454D01*
X124006285Y-85283622D01*
X124003361Y-85286013D01*
X123999873Y-85287459D01*
X123992119Y-85295212D01*
X123983637Y-85302153D01*
X123981852Y-85305479D01*
X123979181Y-85308151D01*
X123974985Y-85318280D01*
X123969803Y-85327940D01*
X123968695Y-85333464D01*
X123967982Y-85335187D01*
X123967982Y-85337023D01*
X123966913Y-85342356D01*
X123919294Y-85818546D01*
X123919272Y-85833249D01*
X123616557Y-85833249D01*
X123618383Y-85831423D01*
X123627711Y-85820058D01*
X123628742Y-85817567D01*
X123630507Y-85815533D01*
X123636501Y-85802107D01*
X123684120Y-85659251D01*
X123685769Y-85651995D01*
X123686528Y-85650165D01*
X123686789Y-85647511D01*
X123687380Y-85644914D01*
X123687239Y-85642939D01*
X123687969Y-85635533D01*
X123687969Y-85540295D01*
X123686528Y-85525663D01*
X123685497Y-85523174D01*
X123685306Y-85520485D01*
X123680051Y-85506754D01*
X123632432Y-85411516D01*
X123628467Y-85405216D01*
X123627710Y-85403389D01*
X123626021Y-85401332D01*
X123624600Y-85399073D01*
X123623101Y-85397773D01*
X123618383Y-85392024D01*
X123570764Y-85344405D01*
X123565014Y-85339686D01*
X123563715Y-85338188D01*
X123561455Y-85336766D01*
X123559399Y-85335078D01*
X123557571Y-85334320D01*
X123551272Y-85330356D01*
X123456034Y-85282737D01*
X123442302Y-85277482D01*
X123439614Y-85277291D01*
X123437125Y-85276260D01*
X123422493Y-85274819D01*
X123184398Y-85274819D01*
X123169766Y-85276260D01*
X123167277Y-85277290D01*
X123164588Y-85277482D01*
X123150857Y-85282737D01*
X123055619Y-85330356D01*
X123049319Y-85334320D01*
X123047492Y-85335078D01*
X123045435Y-85336766D01*
X123043176Y-85338188D01*
X123041876Y-85339686D01*
X123036127Y-85344405D01*
X122988508Y-85392024D01*
X122979181Y-85403389D01*
X122967982Y-85430426D01*
X122967982Y-85459688D01*
X122979181Y-85486725D01*
X122999873Y-85507417D01*
X123026910Y-85518616D01*
X123056172Y-85518616D01*
X123083209Y-85507417D01*
X123094574Y-85498090D01*
X123133587Y-85459077D01*
X123202103Y-85424819D01*
X123404788Y-85424819D01*
X123473304Y-85459077D01*
X123503711Y-85489484D01*
X123537969Y-85558000D01*
X123537969Y-85623363D01*
X123499797Y-85737876D01*
X122940889Y-86296786D01*
X122931562Y-86308151D01*
X122920363Y-86335187D01*
X122157307Y-86335187D01*
X122818230Y-85343802D01*
X122825147Y-85330828D01*
X122830826Y-85302121D01*
X122825087Y-85273426D01*
X122808804Y-85249111D01*
X122784455Y-85232878D01*
X122755747Y-85227200D01*
X122727053Y-85232939D01*
X122702738Y-85249222D01*
X122693422Y-85260597D01*
X121836280Y-86546312D01*
X121829363Y-86559285D01*
X121823684Y-86587993D01*
X119036389Y-86587993D01*
X119204926Y-86335187D01*
X119967982Y-86335187D01*
X119967982Y-86364451D01*
X119979181Y-86391487D01*
X119999873Y-86412179D01*
X120026909Y-86423378D01*
X120041541Y-86424819D01*
X120660588Y-86424819D01*
X120675220Y-86423378D01*
X120702256Y-86412179D01*
X120722948Y-86391487D01*
X120734147Y-86364451D01*
X120734147Y-86335187D01*
X120722948Y-86308151D01*
X120702256Y-86287459D01*
X120675220Y-86276260D01*
X120660588Y-86274819D01*
X120222607Y-86274819D01*
X120666002Y-85831423D01*
X120675330Y-85820058D01*
X120676361Y-85817567D01*
X120678126Y-85815533D01*
X120684120Y-85802107D01*
X120707899Y-85730771D01*
X120966541Y-85730771D01*
X120966541Y-85968866D01*
X120966792Y-85971419D01*
X120966630Y-85972512D01*
X120967439Y-85977985D01*
X120967982Y-85983498D01*
X120968404Y-85984519D01*
X120968780Y-85987056D01*
X121016399Y-86177532D01*
X121016784Y-86178611D01*
X121016823Y-86179151D01*
X121019150Y-86185232D01*
X121021346Y-86191378D01*
X121021668Y-86191813D01*
X121022078Y-86192883D01*
X121069697Y-86288121D01*
X121073660Y-86294417D01*
X121074418Y-86296247D01*
X121076107Y-86298305D01*
X121077529Y-86300564D01*
X121079027Y-86301863D01*
X121083745Y-86307612D01*
X121131364Y-86355232D01*
X121137113Y-86359950D01*
X121138414Y-86361450D01*
X121140673Y-86362872D01*
X121142730Y-86364560D01*
X121144557Y-86365317D01*
X121150857Y-86369282D01*
X121246095Y-86416901D01*
X121259826Y-86422156D01*
X121262515Y-86422347D01*
X121265004Y-86423378D01*
X121279636Y-86424819D01*
X121374874Y-86424819D01*
X121389506Y-86423378D01*
X121391995Y-86422346D01*
X121394683Y-86422156D01*
X121408415Y-86416901D01*
X121503653Y-86369282D01*
X121509952Y-86365317D01*
X121511780Y-86364560D01*
X121513836Y-86362872D01*
X121516096Y-86361450D01*
X121517396Y-86359950D01*
X121523146Y-86355232D01*
X121570764Y-86307613D01*
X121575482Y-86301863D01*
X121576981Y-86300564D01*
X121578402Y-86298305D01*
X121580092Y-86296247D01*
X121580849Y-86294417D01*
X121584813Y-86288121D01*
X121632432Y-86192883D01*
X121632841Y-86191813D01*
X121633164Y-86191378D01*
X121635356Y-86185241D01*
X121637687Y-86179152D01*
X121637725Y-86178611D01*
X121638111Y-86177532D01*
X121685730Y-85987056D01*
X121686105Y-85984519D01*
X121686528Y-85983498D01*
X121687070Y-85977985D01*
X121687880Y-85972512D01*
X121687717Y-85971419D01*
X121687969Y-85968866D01*
X121687969Y-85730771D01*
X121687717Y-85728217D01*
X121687880Y-85727125D01*
X121687070Y-85721651D01*
X121686528Y-85716139D01*
X121686105Y-85715117D01*
X121685730Y-85712581D01*
X121638111Y-85522105D01*
X121637725Y-85521025D01*
X121637687Y-85520485D01*
X121635356Y-85514395D01*
X121633164Y-85508259D01*
X121632841Y-85507823D01*
X121632432Y-85506754D01*
X121584813Y-85411516D01*
X121580848Y-85405216D01*
X121580091Y-85403389D01*
X121578402Y-85401332D01*
X121576981Y-85399073D01*
X121575482Y-85397773D01*
X121570764Y-85392024D01*
X121523145Y-85344405D01*
X121517395Y-85339686D01*
X121516096Y-85338188D01*
X121513836Y-85336766D01*
X121511780Y-85335078D01*
X121509952Y-85334320D01*
X121503653Y-85330356D01*
X121408415Y-85282737D01*
X121394683Y-85277482D01*
X121391995Y-85277291D01*
X121389506Y-85276260D01*
X121374874Y-85274819D01*
X121279636Y-85274819D01*
X121265004Y-85276260D01*
X121262515Y-85277290D01*
X121259826Y-85277482D01*
X121246095Y-85282737D01*
X121150857Y-85330356D01*
X121144557Y-85334320D01*
X121142730Y-85335078D01*
X121140673Y-85336766D01*
X121138414Y-85338188D01*
X121137114Y-85339686D01*
X121131365Y-85344405D01*
X121083746Y-85392024D01*
X121079027Y-85397773D01*
X121077529Y-85399073D01*
X121076107Y-85401332D01*
X121074419Y-85403389D01*
X121073661Y-85405216D01*
X121069697Y-85411516D01*
X121022078Y-85506754D01*
X121021668Y-85507823D01*
X121021346Y-85508259D01*
X121019150Y-85514404D01*
X121016823Y-85520486D01*
X121016784Y-85521025D01*
X121016399Y-85522105D01*
X120968780Y-85712581D01*
X120968404Y-85715117D01*
X120967982Y-85716139D01*
X120967439Y-85721651D01*
X120966630Y-85727125D01*
X120966792Y-85728217D01*
X120966541Y-85730771D01*
X120707899Y-85730771D01*
X120731739Y-85659251D01*
X120733388Y-85651995D01*
X120734147Y-85650165D01*
X120734408Y-85647511D01*
X120734999Y-85644914D01*
X120734858Y-85642939D01*
X120735588Y-85635533D01*
X120735588Y-85540295D01*
X120734147Y-85525663D01*
X120733116Y-85523174D01*
X120732925Y-85520485D01*
X120727670Y-85506754D01*
X120680051Y-85411516D01*
X120676086Y-85405216D01*
X120675329Y-85403389D01*
X120673640Y-85401332D01*
X120672219Y-85399073D01*
X120670720Y-85397773D01*
X120666002Y-85392024D01*
X120618383Y-85344405D01*
X120612633Y-85339686D01*
X120611334Y-85338188D01*
X120609074Y-85336766D01*
X120607018Y-85335078D01*
X120605190Y-85334320D01*
X120598891Y-85330356D01*
X120503653Y-85282737D01*
X120489921Y-85277482D01*
X120487233Y-85277291D01*
X120484744Y-85276260D01*
X120470112Y-85274819D01*
X120232017Y-85274819D01*
X120217385Y-85276260D01*
X120214896Y-85277290D01*
X120212207Y-85277482D01*
X120198476Y-85282737D01*
X120103238Y-85330356D01*
X120096938Y-85334320D01*
X120095111Y-85335078D01*
X120093054Y-85336766D01*
X120090795Y-85338188D01*
X120089495Y-85339686D01*
X120083746Y-85344405D01*
X120036127Y-85392024D01*
X120026800Y-85403389D01*
X120015601Y-85430426D01*
X120015601Y-85459688D01*
X120026800Y-85486725D01*
X120047492Y-85507417D01*
X120074529Y-85518616D01*
X120103791Y-85518616D01*
X120130828Y-85507417D01*
X120142193Y-85498090D01*
X120181206Y-85459077D01*
X120249722Y-85424819D01*
X120452407Y-85424819D01*
X120520923Y-85459077D01*
X120551330Y-85489484D01*
X120585588Y-85558000D01*
X120585588Y-85623363D01*
X120547416Y-85737876D01*
X119988508Y-86296786D01*
X119979181Y-86308151D01*
X119967982Y-86335187D01*
X119204926Y-86335187D01*
X119865849Y-85343802D01*
X119872766Y-85330828D01*
X119878445Y-85302121D01*
X119872706Y-85273426D01*
X119856423Y-85249111D01*
X119832074Y-85232878D01*
X119803366Y-85227200D01*
X119774672Y-85232939D01*
X119750357Y-85249222D01*
X119741041Y-85260597D01*
X118883899Y-86546312D01*
X118876982Y-86559285D01*
X118871303Y-86587993D01*
X117808400Y-86587993D01*
X117808400Y-85335187D01*
X117967982Y-85335187D01*
X117967982Y-85364451D01*
X117979181Y-85391487D01*
X117999873Y-85412179D01*
X118026909Y-85423378D01*
X118041541Y-85424819D01*
X118594466Y-85424819D01*
X118210700Y-86320275D01*
X118206261Y-86334292D01*
X118205904Y-86363553D01*
X118216772Y-86390723D01*
X118237211Y-86411667D01*
X118264109Y-86423194D01*
X118293370Y-86423551D01*
X118320540Y-86412683D01*
X118341484Y-86392244D01*
X118348572Y-86379363D01*
X118777143Y-85379363D01*
X118781582Y-85365347D01*
X118781587Y-85364881D01*
X118781766Y-85364451D01*
X118781766Y-85350265D01*
X118781939Y-85336085D01*
X118781766Y-85335652D01*
X118781766Y-85335187D01*
X118776344Y-85322097D01*
X118771071Y-85308915D01*
X118770745Y-85308581D01*
X118770567Y-85308151D01*
X118760527Y-85298111D01*
X118750632Y-85287972D01*
X118750204Y-85287788D01*
X118749875Y-85287459D01*
X118736740Y-85282018D01*
X118723734Y-85276444D01*
X118723269Y-85276438D01*
X118722839Y-85276260D01*
X118708207Y-85274819D01*
X118041541Y-85274819D01*
X118026909Y-85276260D01*
X117999873Y-85287459D01*
X117979181Y-85308151D01*
X117967982Y-85335187D01*
X117808400Y-85335187D01*
X117808400Y-83749255D01*
X117919511Y-83749255D01*
X117922771Y-83763592D01*
X118256104Y-84763592D01*
X118262098Y-84777017D01*
X118265608Y-84781064D01*
X118268005Y-84785858D01*
X118275113Y-84792023D01*
X118281272Y-84799124D01*
X118286061Y-84801518D01*
X118290112Y-84805032D01*
X118299037Y-84808006D01*
X118307445Y-84812211D01*
X118312789Y-84812590D01*
X118317875Y-84814286D01*
X118327255Y-84813619D01*
X118336635Y-84814286D01*
X118341720Y-84812590D01*
X118347065Y-84812211D01*
X118355475Y-84808005D01*
X118364397Y-84805032D01*
X118368444Y-84801521D01*
X118373238Y-84799125D01*
X118379401Y-84792019D01*
X118386505Y-84785858D01*
X118388900Y-84781066D01*
X118392412Y-84777018D01*
X118398406Y-84763592D01*
X118647534Y-84016208D01*
X118871892Y-84016208D01*
X118873966Y-84045398D01*
X118887053Y-84071573D01*
X118909161Y-84090746D01*
X118936922Y-84100000D01*
X118966112Y-84097926D01*
X118979844Y-84092671D01*
X119075082Y-84045052D01*
X119081381Y-84041087D01*
X119083209Y-84040330D01*
X119085265Y-84038641D01*
X119087525Y-84037220D01*
X119088824Y-84035721D01*
X119094574Y-84031003D01*
X119157017Y-83968560D01*
X119157017Y-84664875D01*
X118946303Y-84664875D01*
X118931671Y-84666316D01*
X118904635Y-84677515D01*
X118883943Y-84698207D01*
X118872744Y-84725243D01*
X118872744Y-84754507D01*
X118883943Y-84781543D01*
X118904635Y-84802235D01*
X118931671Y-84813434D01*
X118946303Y-84814875D01*
X119517731Y-84814875D01*
X119532363Y-84813434D01*
X119559399Y-84802235D01*
X119580091Y-84781543D01*
X119591290Y-84754507D01*
X119591290Y-84725243D01*
X119580091Y-84698207D01*
X119559509Y-84677625D01*
X119825125Y-84677625D01*
X119825125Y-84706888D01*
X119830162Y-84719047D01*
X119836324Y-84733924D01*
X119845651Y-84745289D01*
X119893270Y-84792908D01*
X119904635Y-84802235D01*
X119931671Y-84813434D01*
X119931672Y-84813434D01*
X119960934Y-84813434D01*
X119960935Y-84813434D01*
X119987971Y-84802235D01*
X119999336Y-84792908D01*
X120046955Y-84745289D01*
X120056282Y-84733924D01*
X120067481Y-84706888D01*
X120067481Y-84677625D01*
X120067435Y-84677515D01*
X120056283Y-84650589D01*
X120046955Y-84639223D01*
X119999337Y-84591604D01*
X119987971Y-84582276D01*
X119987970Y-84582275D01*
X119969674Y-84574697D01*
X119960935Y-84571077D01*
X119960934Y-84571077D01*
X119931671Y-84571077D01*
X119922932Y-84574697D01*
X119904636Y-84582275D01*
X119904635Y-84582276D01*
X119893269Y-84591604D01*
X119845650Y-84639224D01*
X119836323Y-84650589D01*
X119825125Y-84677625D01*
X119559509Y-84677625D01*
X119559399Y-84677515D01*
X119532363Y-84666316D01*
X119517731Y-84664875D01*
X119307017Y-84664875D01*
X119307017Y-84120827D01*
X120299874Y-84120827D01*
X120299874Y-84358922D01*
X120300125Y-84361475D01*
X120299963Y-84362568D01*
X120300772Y-84368041D01*
X120301315Y-84373554D01*
X120301737Y-84374575D01*
X120302113Y-84377112D01*
X120349732Y-84567588D01*
X120350117Y-84568667D01*
X120350156Y-84569207D01*
X120352483Y-84575288D01*
X120354679Y-84581434D01*
X120355001Y-84581869D01*
X120355411Y-84582939D01*
X120403030Y-84678177D01*
X120406993Y-84684473D01*
X120407751Y-84686303D01*
X120409440Y-84688361D01*
X120410862Y-84690620D01*
X120412360Y-84691919D01*
X120417078Y-84697668D01*
X120464697Y-84745288D01*
X120470446Y-84750006D01*
X120471747Y-84751506D01*
X120474006Y-84752928D01*
X120476063Y-84754616D01*
X120477890Y-84755373D01*
X120484190Y-84759338D01*
X120579428Y-84806957D01*
X120593159Y-84812212D01*
X120595848Y-84812403D01*
X120598337Y-84813434D01*
X120612969Y-84814875D01*
X120708207Y-84814875D01*
X120722839Y-84813434D01*
X120725328Y-84812402D01*
X120728016Y-84812212D01*
X120741748Y-84806957D01*
X120836986Y-84759338D01*
X120843285Y-84755373D01*
X120845113Y-84754616D01*
X120847169Y-84752928D01*
X120849429Y-84751506D01*
X120850729Y-84750006D01*
X120856479Y-84745288D01*
X120904097Y-84697669D01*
X120908815Y-84691919D01*
X120910314Y-84690620D01*
X120911735Y-84688361D01*
X120913425Y-84686303D01*
X120914182Y-84684473D01*
X120918146Y-84678177D01*
X120965765Y-84582939D01*
X120966174Y-84581869D01*
X120966497Y-84581434D01*
X120968689Y-84575297D01*
X120971020Y-84569208D01*
X120971058Y-84568667D01*
X120971444Y-84567588D01*
X121019063Y-84377112D01*
X121019438Y-84374575D01*
X121019861Y-84373554D01*
X121020403Y-84368041D01*
X121021213Y-84362568D01*
X121021050Y-84361475D01*
X121021302Y-84358922D01*
X121021302Y-84120827D01*
X121021050Y-84118273D01*
X121021213Y-84117181D01*
X121020403Y-84111707D01*
X121019861Y-84106195D01*
X121019438Y-84105173D01*
X121019063Y-84102637D01*
X120971444Y-83912161D01*
X120971058Y-83911081D01*
X120971020Y-83910541D01*
X120968689Y-83904451D01*
X120966497Y-83898315D01*
X120966174Y-83897879D01*
X120965765Y-83896810D01*
X120918146Y-83801572D01*
X120914181Y-83795272D01*
X120913424Y-83793445D01*
X120911735Y-83791388D01*
X120910314Y-83789129D01*
X120908815Y-83787829D01*
X120904097Y-83782080D01*
X120856478Y-83734461D01*
X120850728Y-83729742D01*
X120849429Y-83728244D01*
X120847169Y-83726822D01*
X120845113Y-83725134D01*
X120843285Y-83724376D01*
X120836986Y-83720412D01*
X120741748Y-83672793D01*
X120728016Y-83667538D01*
X120725328Y-83667347D01*
X120722839Y-83666316D01*
X120708207Y-83664875D01*
X120612969Y-83664875D01*
X120598337Y-83666316D01*
X120595848Y-83667346D01*
X120593159Y-83667538D01*
X120579428Y-83672793D01*
X120484190Y-83720412D01*
X120477890Y-83724376D01*
X120476063Y-83725134D01*
X120474006Y-83726822D01*
X120471747Y-83728244D01*
X120470447Y-83729742D01*
X120464698Y-83734461D01*
X120417079Y-83782080D01*
X120412360Y-83787829D01*
X120410862Y-83789129D01*
X120409440Y-83791388D01*
X120407752Y-83793445D01*
X120406994Y-83795272D01*
X120403030Y-83801572D01*
X120355411Y-83896810D01*
X120355001Y-83897879D01*
X120354679Y-83898315D01*
X120352483Y-83904460D01*
X120350156Y-83910542D01*
X120350117Y-83911081D01*
X120349732Y-83912161D01*
X120302113Y-84102637D01*
X120301737Y-84105173D01*
X120301315Y-84106195D01*
X120300772Y-84111707D01*
X120299963Y-84117181D01*
X120300125Y-84118273D01*
X120299874Y-84120827D01*
X119307017Y-84120827D01*
X119307017Y-83739875D01*
X119307011Y-83739822D01*
X119307017Y-83739796D01*
X119307001Y-83739719D01*
X119305576Y-83725243D01*
X119302734Y-83718382D01*
X119301278Y-83711101D01*
X119297188Y-83704994D01*
X119294377Y-83698207D01*
X119289128Y-83692958D01*
X119284995Y-83686786D01*
X119278878Y-83682708D01*
X119273685Y-83677515D01*
X119266825Y-83674673D01*
X119260646Y-83670554D01*
X119253437Y-83669128D01*
X119246649Y-83666316D01*
X119239222Y-83666316D01*
X119231938Y-83664875D01*
X119224733Y-83666316D01*
X119217385Y-83666316D01*
X119210524Y-83669157D01*
X119203244Y-83670614D01*
X119197138Y-83674702D01*
X119190349Y-83677515D01*
X119185098Y-83682765D01*
X119178929Y-83686897D01*
X119169708Y-83698155D01*
X119169657Y-83698207D01*
X119169647Y-83698229D01*
X119169613Y-83698272D01*
X119078493Y-83834952D01*
X118997114Y-83916331D01*
X118912762Y-83958507D01*
X118900319Y-83966339D01*
X118881146Y-83988447D01*
X118871892Y-84016208D01*
X118647534Y-84016208D01*
X118731739Y-83763592D01*
X118734999Y-83749256D01*
X118732924Y-83720066D01*
X118719838Y-83693892D01*
X118697730Y-83674718D01*
X118669968Y-83665464D01*
X118640778Y-83667539D01*
X118614605Y-83680626D01*
X118595431Y-83702733D01*
X118589437Y-83716158D01*
X118327255Y-84502704D01*
X118065073Y-83716158D01*
X118059079Y-83702732D01*
X118039905Y-83680625D01*
X118013732Y-83667539D01*
X117984542Y-83665464D01*
X117956779Y-83674718D01*
X117934672Y-83693892D01*
X117921586Y-83720065D01*
X117919511Y-83749255D01*
X117808400Y-83749255D01*
X117808400Y-82129931D01*
X118061779Y-82129931D01*
X118061779Y-83129931D01*
X118063220Y-83144563D01*
X118074419Y-83171599D01*
X118095111Y-83192291D01*
X118122147Y-83203490D01*
X118136779Y-83204931D01*
X118517731Y-83204931D01*
X118532363Y-83203490D01*
X118534852Y-83202458D01*
X118537540Y-83202268D01*
X118551272Y-83197013D01*
X118646510Y-83149394D01*
X118652809Y-83145429D01*
X118654637Y-83144672D01*
X118656693Y-83142984D01*
X118658953Y-83141562D01*
X118660253Y-83140062D01*
X118666003Y-83135344D01*
X118680796Y-83120551D01*
X118919511Y-83120551D01*
X118921586Y-83149741D01*
X118934672Y-83175914D01*
X118956779Y-83195088D01*
X118984542Y-83204342D01*
X119013732Y-83202267D01*
X119039905Y-83189181D01*
X119059079Y-83167074D01*
X119065073Y-83153648D01*
X119143217Y-82919216D01*
X119511293Y-82919216D01*
X119589437Y-83153648D01*
X119595431Y-83167073D01*
X119614605Y-83189180D01*
X119640778Y-83202267D01*
X119669968Y-83204342D01*
X119697730Y-83195088D01*
X119719838Y-83175914D01*
X119732924Y-83149740D01*
X119734999Y-83120550D01*
X119731739Y-83106214D01*
X119406312Y-82129931D01*
X119918922Y-82129931D01*
X119918922Y-83129931D01*
X119920363Y-83144563D01*
X119931562Y-83171599D01*
X119952254Y-83192291D01*
X119979290Y-83203490D01*
X120008554Y-83203490D01*
X120035590Y-83192291D01*
X120056282Y-83171599D01*
X120067481Y-83144563D01*
X120068922Y-83129931D01*
X120068922Y-82728740D01*
X120192968Y-82728740D01*
X120503908Y-83172941D01*
X120513479Y-83184101D01*
X120538158Y-83199828D01*
X120566975Y-83204914D01*
X120595546Y-83198584D01*
X120619520Y-83181802D01*
X120635247Y-83157124D01*
X120640332Y-83128306D01*
X120634003Y-83099735D01*
X120626793Y-83086922D01*
X120375989Y-82728630D01*
X120389506Y-82727299D01*
X120391995Y-82726267D01*
X120394683Y-82726077D01*
X120408415Y-82720822D01*
X120503653Y-82673203D01*
X120509952Y-82669238D01*
X120511780Y-82668481D01*
X120513836Y-82666792D01*
X120516096Y-82665371D01*
X120517395Y-82663872D01*
X120523145Y-82659154D01*
X120570764Y-82611535D01*
X120575482Y-82605785D01*
X120576981Y-82604486D01*
X120578402Y-82602226D01*
X120580091Y-82600170D01*
X120580848Y-82598342D01*
X120584813Y-82592043D01*
X120632432Y-82496805D01*
X120637687Y-82483074D01*
X120637878Y-82480384D01*
X120638909Y-82477896D01*
X120640350Y-82463264D01*
X120640350Y-82320407D01*
X120638909Y-82305775D01*
X120637878Y-82303286D01*
X120637687Y-82300597D01*
X120632432Y-82286866D01*
X120584813Y-82191628D01*
X120580848Y-82185328D01*
X120580091Y-82183501D01*
X120578402Y-82181444D01*
X120576981Y-82179185D01*
X120575482Y-82177885D01*
X120570764Y-82172136D01*
X120528559Y-82129931D01*
X120918922Y-82129931D01*
X120918922Y-83129931D01*
X120920363Y-83144563D01*
X120931562Y-83171599D01*
X120952254Y-83192291D01*
X120979290Y-83203490D01*
X120993922Y-83204931D01*
X121470112Y-83204931D01*
X121484744Y-83203490D01*
X121511780Y-83192291D01*
X121532472Y-83171599D01*
X121543671Y-83144563D01*
X121543671Y-83115299D01*
X121532472Y-83088263D01*
X121511780Y-83067571D01*
X121484744Y-83056372D01*
X121470112Y-83054931D01*
X121068922Y-83054931D01*
X121068922Y-82681121D01*
X121327255Y-82681121D01*
X121341887Y-82679680D01*
X121368923Y-82668481D01*
X121389615Y-82647789D01*
X121400814Y-82620753D01*
X121400814Y-82591489D01*
X121389615Y-82564453D01*
X121368923Y-82543761D01*
X121341887Y-82532562D01*
X121327255Y-82531121D01*
X121068922Y-82531121D01*
X121068922Y-82406264D01*
X122538559Y-82406264D01*
X122540633Y-82435454D01*
X122553720Y-82461629D01*
X122575828Y-82480802D01*
X122603589Y-82490056D01*
X122632779Y-82487982D01*
X122646511Y-82482727D01*
X122741749Y-82435108D01*
X122748048Y-82431143D01*
X122749876Y-82430386D01*
X122751932Y-82428697D01*
X122754192Y-82427276D01*
X122755491Y-82425777D01*
X122761241Y-82421059D01*
X122823684Y-82358616D01*
X122823684Y-83054931D01*
X122612970Y-83054931D01*
X122598338Y-83056372D01*
X122571302Y-83067571D01*
X122550610Y-83088263D01*
X122539411Y-83115299D01*
X122539411Y-83144563D01*
X122550610Y-83171599D01*
X122571302Y-83192291D01*
X122598338Y-83203490D01*
X122612970Y-83204931D01*
X123184398Y-83204931D01*
X123199030Y-83203490D01*
X123226066Y-83192291D01*
X123246758Y-83171599D01*
X123257957Y-83144563D01*
X123257957Y-83115299D01*
X123444173Y-83115299D01*
X123444173Y-83144563D01*
X123455372Y-83171599D01*
X123476064Y-83192291D01*
X123503100Y-83203490D01*
X123517732Y-83204931D01*
X124136779Y-83204931D01*
X124151411Y-83203490D01*
X124178447Y-83192291D01*
X124199139Y-83171599D01*
X124210338Y-83144563D01*
X124210338Y-83115299D01*
X124199139Y-83088263D01*
X124178447Y-83067571D01*
X124151411Y-83056372D01*
X124136779Y-83054931D01*
X123698798Y-83054931D01*
X124142193Y-82611535D01*
X124151521Y-82600170D01*
X124152552Y-82597679D01*
X124154317Y-82595645D01*
X124160311Y-82582219D01*
X124207930Y-82439363D01*
X124209579Y-82432107D01*
X124210338Y-82430277D01*
X124210599Y-82427623D01*
X124211190Y-82425026D01*
X124211049Y-82423051D01*
X124211779Y-82415645D01*
X124211779Y-82320407D01*
X124442732Y-82320407D01*
X124442732Y-82368026D01*
X124444173Y-82382658D01*
X124445204Y-82385147D01*
X124445395Y-82387835D01*
X124450650Y-82401567D01*
X124498269Y-82496805D01*
X124502233Y-82503104D01*
X124502991Y-82504932D01*
X124504679Y-82506988D01*
X124506101Y-82509248D01*
X124507599Y-82510547D01*
X124512318Y-82516297D01*
X124554523Y-82558502D01*
X124512318Y-82600707D01*
X124507599Y-82606456D01*
X124506101Y-82607756D01*
X124504679Y-82610015D01*
X124502991Y-82612072D01*
X124502233Y-82613899D01*
X124498269Y-82620199D01*
X124450650Y-82715437D01*
X124445395Y-82729169D01*
X124445204Y-82731856D01*
X124444173Y-82734346D01*
X124442732Y-82748978D01*
X124442732Y-82939454D01*
X124444173Y-82954086D01*
X124445204Y-82956575D01*
X124445395Y-82959263D01*
X124450650Y-82972995D01*
X124498269Y-83068233D01*
X124502232Y-83074529D01*
X124502990Y-83076359D01*
X124504679Y-83078417D01*
X124506101Y-83080676D01*
X124507599Y-83081975D01*
X124512317Y-83087724D01*
X124559936Y-83135344D01*
X124565685Y-83140062D01*
X124566986Y-83141562D01*
X124569245Y-83142984D01*
X124571302Y-83144672D01*
X124573129Y-83145429D01*
X124579429Y-83149394D01*
X124674667Y-83197013D01*
X124688398Y-83202268D01*
X124691087Y-83202459D01*
X124693576Y-83203490D01*
X124708208Y-83204931D01*
X124898684Y-83204931D01*
X124913316Y-83203490D01*
X124915805Y-83202458D01*
X124918493Y-83202268D01*
X124932225Y-83197013D01*
X125027463Y-83149394D01*
X125033762Y-83145429D01*
X125035590Y-83144672D01*
X125037646Y-83142984D01*
X125039906Y-83141562D01*
X125041206Y-83140062D01*
X125046956Y-83135344D01*
X125094574Y-83087725D01*
X125099292Y-83081975D01*
X125100791Y-83080676D01*
X125102212Y-83078417D01*
X125103902Y-83076359D01*
X125104659Y-83074529D01*
X125108623Y-83068233D01*
X125156242Y-82972995D01*
X125161497Y-82959264D01*
X125161688Y-82956574D01*
X125162719Y-82954086D01*
X125164160Y-82939454D01*
X125164160Y-82787217D01*
X125395702Y-82787217D01*
X125396554Y-82799202D01*
X125396554Y-82811229D01*
X125397586Y-82813720D01*
X125397777Y-82816407D01*
X125403151Y-82827156D01*
X125407753Y-82838265D01*
X125409658Y-82840170D01*
X125410863Y-82842580D01*
X125419945Y-82850457D01*
X125428445Y-82858957D01*
X125430933Y-82859987D01*
X125432970Y-82861754D01*
X125444373Y-82865555D01*
X125455481Y-82870156D01*
X125459307Y-82870532D01*
X125460733Y-82871008D01*
X125462707Y-82870867D01*
X125470113Y-82871597D01*
X125871303Y-82871597D01*
X125871303Y-83129931D01*
X125872744Y-83144563D01*
X125883943Y-83171599D01*
X125904635Y-83192291D01*
X125931671Y-83203490D01*
X125960935Y-83203490D01*
X125987971Y-83192291D01*
X126008663Y-83171599D01*
X126019862Y-83144563D01*
X126021303Y-83129931D01*
X126021303Y-82871597D01*
X126089160Y-82871597D01*
X126103792Y-82870156D01*
X126130828Y-82858957D01*
X126151520Y-82838265D01*
X126162719Y-82811229D01*
X126162719Y-82781965D01*
X126151520Y-82754929D01*
X126130828Y-82734237D01*
X126103792Y-82723038D01*
X126089160Y-82721597D01*
X126021303Y-82721597D01*
X126021303Y-82463264D01*
X126019862Y-82448632D01*
X126008663Y-82421596D01*
X125987971Y-82400904D01*
X125960935Y-82389705D01*
X125931671Y-82389705D01*
X125904635Y-82400904D01*
X125883943Y-82421596D01*
X125872744Y-82448632D01*
X125871303Y-82463264D01*
X125871303Y-82721597D01*
X125574170Y-82721597D01*
X125779359Y-82106030D01*
X125782619Y-82091693D01*
X125780544Y-82062503D01*
X125767458Y-82036329D01*
X125745350Y-82017155D01*
X125717588Y-82007901D01*
X125688398Y-82009976D01*
X125662225Y-82023063D01*
X125643051Y-82045170D01*
X125637057Y-82058595D01*
X125398962Y-82772880D01*
X125397312Y-82780133D01*
X125396554Y-82781965D01*
X125396554Y-82783470D01*
X125395702Y-82787217D01*
X125164160Y-82787217D01*
X125164160Y-82748978D01*
X125162719Y-82734346D01*
X125161688Y-82731857D01*
X125161497Y-82729168D01*
X125156242Y-82715437D01*
X125108623Y-82620199D01*
X125104658Y-82613899D01*
X125103901Y-82612072D01*
X125102212Y-82610015D01*
X125100791Y-82607756D01*
X125099292Y-82606456D01*
X125094574Y-82600707D01*
X125052369Y-82558502D01*
X125094574Y-82516297D01*
X125099292Y-82510547D01*
X125100791Y-82509248D01*
X125102212Y-82506988D01*
X125103901Y-82504932D01*
X125104658Y-82503104D01*
X125108623Y-82496805D01*
X125156242Y-82401567D01*
X125161497Y-82387836D01*
X125161688Y-82385146D01*
X125162719Y-82382658D01*
X125164160Y-82368026D01*
X125164160Y-82320407D01*
X125162719Y-82305775D01*
X125161688Y-82303286D01*
X125161497Y-82300597D01*
X125156242Y-82286866D01*
X125108623Y-82191628D01*
X125104658Y-82185328D01*
X125103901Y-82183501D01*
X125102212Y-82181444D01*
X125100791Y-82179185D01*
X125099292Y-82177885D01*
X125094574Y-82172136D01*
X125046955Y-82124517D01*
X125041205Y-82119798D01*
X125039906Y-82118300D01*
X125037646Y-82116878D01*
X125035590Y-82115190D01*
X125033762Y-82114432D01*
X125027463Y-82110468D01*
X124932225Y-82062849D01*
X124918493Y-82057594D01*
X124915805Y-82057403D01*
X124913316Y-82056372D01*
X124898684Y-82054931D01*
X124708208Y-82054931D01*
X124693576Y-82056372D01*
X124691087Y-82057402D01*
X124688398Y-82057594D01*
X124674667Y-82062849D01*
X124579429Y-82110468D01*
X124573129Y-82114432D01*
X124571302Y-82115190D01*
X124569245Y-82116878D01*
X124566986Y-82118300D01*
X124565686Y-82119798D01*
X124559937Y-82124517D01*
X124512318Y-82172136D01*
X124507599Y-82177885D01*
X124506101Y-82179185D01*
X124504679Y-82181444D01*
X124502991Y-82183501D01*
X124502233Y-82185328D01*
X124498269Y-82191628D01*
X124450650Y-82286866D01*
X124445395Y-82300598D01*
X124445204Y-82303285D01*
X124444173Y-82305775D01*
X124442732Y-82320407D01*
X124211779Y-82320407D01*
X124210338Y-82305775D01*
X124209307Y-82303286D01*
X124209116Y-82300597D01*
X124203861Y-82286866D01*
X124156242Y-82191628D01*
X124152277Y-82185328D01*
X124151520Y-82183501D01*
X124149831Y-82181444D01*
X124148410Y-82179185D01*
X124146911Y-82177885D01*
X124142193Y-82172136D01*
X124094574Y-82124517D01*
X124088824Y-82119798D01*
X124087525Y-82118300D01*
X124085265Y-82116878D01*
X124083209Y-82115190D01*
X124081381Y-82114432D01*
X124075082Y-82110468D01*
X123979844Y-82062849D01*
X123966112Y-82057594D01*
X123963424Y-82057403D01*
X123960935Y-82056372D01*
X123946303Y-82054931D01*
X123708208Y-82054931D01*
X123693576Y-82056372D01*
X123691087Y-82057402D01*
X123688398Y-82057594D01*
X123674667Y-82062849D01*
X123579429Y-82110468D01*
X123573129Y-82114432D01*
X123571302Y-82115190D01*
X123569245Y-82116878D01*
X123566986Y-82118300D01*
X123565686Y-82119798D01*
X123559937Y-82124517D01*
X123512318Y-82172136D01*
X123502991Y-82183501D01*
X123491792Y-82210538D01*
X123491792Y-82239800D01*
X123502991Y-82266837D01*
X123523683Y-82287529D01*
X123550720Y-82298728D01*
X123579982Y-82298728D01*
X123607019Y-82287529D01*
X123618384Y-82278202D01*
X123657397Y-82239189D01*
X123725913Y-82204931D01*
X123928598Y-82204931D01*
X123997114Y-82239189D01*
X124027521Y-82269596D01*
X124061779Y-82338112D01*
X124061779Y-82403475D01*
X124023607Y-82517988D01*
X123464699Y-83076898D01*
X123455372Y-83088263D01*
X123444173Y-83115299D01*
X123257957Y-83115299D01*
X123246758Y-83088263D01*
X123226066Y-83067571D01*
X123199030Y-83056372D01*
X123184398Y-83054931D01*
X122973684Y-83054931D01*
X122973684Y-82129931D01*
X122973678Y-82129878D01*
X122973684Y-82129852D01*
X122973668Y-82129775D01*
X122972243Y-82115299D01*
X122969401Y-82108438D01*
X122967945Y-82101157D01*
X122963855Y-82095050D01*
X122961044Y-82088263D01*
X122955795Y-82083014D01*
X122951662Y-82076842D01*
X122945545Y-82072764D01*
X122940352Y-82067571D01*
X122933492Y-82064729D01*
X122927313Y-82060610D01*
X122920104Y-82059184D01*
X122913316Y-82056372D01*
X122905889Y-82056372D01*
X122898605Y-82054931D01*
X122891400Y-82056372D01*
X122884052Y-82056372D01*
X122877191Y-82059213D01*
X122869911Y-82060670D01*
X122863805Y-82064758D01*
X122857016Y-82067571D01*
X122851765Y-82072821D01*
X122845596Y-82076953D01*
X122836375Y-82088211D01*
X122836324Y-82088263D01*
X122836314Y-82088285D01*
X122836280Y-82088328D01*
X122745160Y-82225008D01*
X122663781Y-82306387D01*
X122579429Y-82348563D01*
X122566986Y-82356395D01*
X122547813Y-82378503D01*
X122538559Y-82406264D01*
X121068922Y-82406264D01*
X121068922Y-82204931D01*
X121470112Y-82204931D01*
X121484744Y-82203490D01*
X121511780Y-82192291D01*
X121532472Y-82171599D01*
X121543671Y-82144563D01*
X121543671Y-82115299D01*
X121532472Y-82088263D01*
X121511780Y-82067571D01*
X121484744Y-82056372D01*
X121470112Y-82054931D01*
X120993922Y-82054931D01*
X120979290Y-82056372D01*
X120952254Y-82067571D01*
X120931562Y-82088263D01*
X120920363Y-82115299D01*
X120918922Y-82129931D01*
X120528559Y-82129931D01*
X120523145Y-82124517D01*
X120517395Y-82119798D01*
X120516096Y-82118300D01*
X120513836Y-82116878D01*
X120511780Y-82115190D01*
X120509952Y-82114432D01*
X120503653Y-82110468D01*
X120408415Y-82062849D01*
X120394683Y-82057594D01*
X120391995Y-82057403D01*
X120389506Y-82056372D01*
X120374874Y-82054931D01*
X119993922Y-82054931D01*
X119979290Y-82056372D01*
X119952254Y-82067571D01*
X119931562Y-82088263D01*
X119920363Y-82115299D01*
X119918922Y-82129931D01*
X119406312Y-82129931D01*
X119398406Y-82106214D01*
X119392412Y-82092788D01*
X119388900Y-82088739D01*
X119386505Y-82083948D01*
X119379401Y-82077786D01*
X119373238Y-82070681D01*
X119368444Y-82068284D01*
X119364397Y-82064774D01*
X119355475Y-82061800D01*
X119347065Y-82057595D01*
X119341720Y-82057215D01*
X119336635Y-82055520D01*
X119327255Y-82056186D01*
X119317875Y-82055520D01*
X119312789Y-82057215D01*
X119307445Y-82057595D01*
X119299037Y-82061799D01*
X119290112Y-82064774D01*
X119286061Y-82068287D01*
X119281272Y-82070682D01*
X119275113Y-82077782D01*
X119268005Y-82083948D01*
X119265608Y-82088741D01*
X119262098Y-82092789D01*
X119256104Y-82106214D01*
X118922771Y-83106214D01*
X118919511Y-83120551D01*
X118680796Y-83120551D01*
X118713621Y-83087725D01*
X118718339Y-83081975D01*
X118719838Y-83080676D01*
X118721259Y-83078417D01*
X118722949Y-83076359D01*
X118723706Y-83074529D01*
X118727670Y-83068233D01*
X118775289Y-82972995D01*
X118780544Y-82959264D01*
X118780735Y-82956574D01*
X118781766Y-82954086D01*
X118783207Y-82939454D01*
X118783207Y-82796597D01*
X118781766Y-82781965D01*
X118780735Y-82779476D01*
X118780544Y-82776787D01*
X118775289Y-82763056D01*
X118727670Y-82667818D01*
X118723705Y-82661518D01*
X118722948Y-82659691D01*
X118721259Y-82657634D01*
X118719838Y-82655375D01*
X118718339Y-82654075D01*
X118713621Y-82648326D01*
X118666002Y-82600707D01*
X118654637Y-82591380D01*
X118652146Y-82590348D01*
X118650111Y-82588583D01*
X118644043Y-82585874D01*
X118666002Y-82563916D01*
X118670720Y-82558166D01*
X118672219Y-82556867D01*
X118673640Y-82554607D01*
X118675329Y-82552551D01*
X118676086Y-82550723D01*
X118680051Y-82544424D01*
X118727670Y-82449186D01*
X118732925Y-82435455D01*
X118733116Y-82432765D01*
X118734147Y-82430277D01*
X118735588Y-82415645D01*
X118735588Y-82320407D01*
X118734147Y-82305775D01*
X118733116Y-82303286D01*
X118732925Y-82300597D01*
X118727670Y-82286866D01*
X118680051Y-82191628D01*
X118676086Y-82185328D01*
X118675329Y-82183501D01*
X118673640Y-82181444D01*
X118672219Y-82179185D01*
X118670720Y-82177885D01*
X118666002Y-82172136D01*
X118618383Y-82124517D01*
X118612633Y-82119798D01*
X118611334Y-82118300D01*
X118609074Y-82116878D01*
X118607018Y-82115190D01*
X118605190Y-82114432D01*
X118598891Y-82110468D01*
X118503653Y-82062849D01*
X118489921Y-82057594D01*
X118487233Y-82057403D01*
X118484744Y-82056372D01*
X118470112Y-82054931D01*
X118136779Y-82054931D01*
X118122147Y-82056372D01*
X118095111Y-82067571D01*
X118074419Y-82088263D01*
X118063220Y-82115299D01*
X118061779Y-82129931D01*
X117808400Y-82129931D01*
X117808400Y-81896790D01*
X126273830Y-81896790D01*
X126273830Y-86774025D01*
G37*
X137059580Y-90866666D02*
X137107200Y-90914285D01*
X137107200Y-90914285D02*
X137154819Y-91057142D01*
X137154819Y-91057142D02*
X137154819Y-91152380D01*
X137154819Y-91152380D02*
X137107200Y-91295237D01*
X137107200Y-91295237D02*
X137011961Y-91390475D01*
X137011961Y-91390475D02*
X136916723Y-91438094D01*
X136916723Y-91438094D02*
X136726247Y-91485713D01*
X136726247Y-91485713D02*
X136583390Y-91485713D01*
X136583390Y-91485713D02*
X136392914Y-91438094D01*
X136392914Y-91438094D02*
X136297676Y-91390475D01*
X136297676Y-91390475D02*
X136202438Y-91295237D01*
X136202438Y-91295237D02*
X136154819Y-91152380D01*
X136154819Y-91152380D02*
X136154819Y-91057142D01*
X136154819Y-91057142D02*
X136202438Y-90914285D01*
X136202438Y-90914285D02*
X136250057Y-90866666D01*
X136154819Y-90533332D02*
X136154819Y-89866666D01*
X136154819Y-89866666D02*
X137154819Y-90295237D01*
X170039580Y-100434285D02*
X170087200Y-100481904D01*
X170087200Y-100481904D02*
X170134819Y-100624761D01*
X170134819Y-100624761D02*
X170134819Y-100719999D01*
X170134819Y-100719999D02*
X170087200Y-100862856D01*
X170087200Y-100862856D02*
X169991961Y-100958094D01*
X169991961Y-100958094D02*
X169896723Y-101005713D01*
X169896723Y-101005713D02*
X169706247Y-101053332D01*
X169706247Y-101053332D02*
X169563390Y-101053332D01*
X169563390Y-101053332D02*
X169372914Y-101005713D01*
X169372914Y-101005713D02*
X169277676Y-100958094D01*
X169277676Y-100958094D02*
X169182438Y-100862856D01*
X169182438Y-100862856D02*
X169134819Y-100719999D01*
X169134819Y-100719999D02*
X169134819Y-100624761D01*
X169134819Y-100624761D02*
X169182438Y-100481904D01*
X169182438Y-100481904D02*
X169230057Y-100434285D01*
X169134819Y-99815237D02*
X169134819Y-99624761D01*
X169134819Y-99624761D02*
X169182438Y-99529523D01*
X169182438Y-99529523D02*
X169277676Y-99434285D01*
X169277676Y-99434285D02*
X169468152Y-99386666D01*
X169468152Y-99386666D02*
X169801485Y-99386666D01*
X169801485Y-99386666D02*
X169991961Y-99434285D01*
X169991961Y-99434285D02*
X170087200Y-99529523D01*
X170087200Y-99529523D02*
X170134819Y-99624761D01*
X170134819Y-99624761D02*
X170134819Y-99815237D01*
X170134819Y-99815237D02*
X170087200Y-99910475D01*
X170087200Y-99910475D02*
X169991961Y-100005713D01*
X169991961Y-100005713D02*
X169801485Y-100053332D01*
X169801485Y-100053332D02*
X169468152Y-100053332D01*
X169468152Y-100053332D02*
X169277676Y-100005713D01*
X169277676Y-100005713D02*
X169182438Y-99910475D01*
X169182438Y-99910475D02*
X169134819Y-99815237D01*
X170134819Y-98958094D02*
X169134819Y-98958094D01*
X169134819Y-98958094D02*
X170134819Y-98386666D01*
X170134819Y-98386666D02*
X169134819Y-98386666D01*
X170134819Y-97386666D02*
X170134819Y-97958094D01*
X170134819Y-97672380D02*
X169134819Y-97672380D01*
X169134819Y-97672380D02*
X169277676Y-97767618D01*
X169277676Y-97767618D02*
X169372914Y-97862856D01*
X169372914Y-97862856D02*
X169420533Y-97958094D01*
X124019047Y-104104819D02*
X123542857Y-104104819D01*
X123542857Y-104104819D02*
X123495238Y-104581009D01*
X123495238Y-104581009D02*
X123542857Y-104533390D01*
X123542857Y-104533390D02*
X123638095Y-104485771D01*
X123638095Y-104485771D02*
X123876190Y-104485771D01*
X123876190Y-104485771D02*
X123971428Y-104533390D01*
X123971428Y-104533390D02*
X124019047Y-104581009D01*
X124019047Y-104581009D02*
X124066666Y-104676247D01*
X124066666Y-104676247D02*
X124066666Y-104914342D01*
X124066666Y-104914342D02*
X124019047Y-105009580D01*
X124019047Y-105009580D02*
X123971428Y-105057200D01*
X123971428Y-105057200D02*
X123876190Y-105104819D01*
X123876190Y-105104819D02*
X123638095Y-105104819D01*
X123638095Y-105104819D02*
X123542857Y-105057200D01*
X123542857Y-105057200D02*
X123495238Y-105009580D01*
X124495238Y-105009580D02*
X124542857Y-105057200D01*
X124542857Y-105057200D02*
X124495238Y-105104819D01*
X124495238Y-105104819D02*
X124447619Y-105057200D01*
X124447619Y-105057200D02*
X124495238Y-105009580D01*
X124495238Y-105009580D02*
X124495238Y-105104819D01*
X125495237Y-105104819D02*
X124923809Y-105104819D01*
X125209523Y-105104819D02*
X125209523Y-104104819D01*
X125209523Y-104104819D02*
X125114285Y-104247676D01*
X125114285Y-104247676D02*
X125019047Y-104342914D01*
X125019047Y-104342914D02*
X124923809Y-104390533D01*
X125923809Y-105104819D02*
X125923809Y-104104819D01*
X126019047Y-104723866D02*
X126304761Y-105104819D01*
X126304761Y-104438152D02*
X125923809Y-104819104D01*
X150130952Y-89004819D02*
X149654762Y-89004819D01*
X149654762Y-89004819D02*
X149654762Y-88004819D01*
X150464286Y-88481009D02*
X150797619Y-88481009D01*
X150940476Y-89004819D02*
X150464286Y-89004819D01*
X150464286Y-89004819D02*
X150464286Y-88004819D01*
X150464286Y-88004819D02*
X150940476Y-88004819D01*
X151369048Y-89004819D02*
X151369048Y-88004819D01*
X151369048Y-88004819D02*
X151607143Y-88004819D01*
X151607143Y-88004819D02*
X151750000Y-88052438D01*
X151750000Y-88052438D02*
X151845238Y-88147676D01*
X151845238Y-88147676D02*
X151892857Y-88242914D01*
X151892857Y-88242914D02*
X151940476Y-88433390D01*
X151940476Y-88433390D02*
X151940476Y-88576247D01*
X151940476Y-88576247D02*
X151892857Y-88766723D01*
X151892857Y-88766723D02*
X151845238Y-88861961D01*
X151845238Y-88861961D02*
X151750000Y-88957200D01*
X151750000Y-88957200D02*
X151607143Y-89004819D01*
X151607143Y-89004819D02*
X151369048Y-89004819D01*
X152892857Y-89004819D02*
X152321429Y-89004819D01*
X152607143Y-89004819D02*
X152607143Y-88004819D01*
X152607143Y-88004819D02*
X152511905Y-88147676D01*
X152511905Y-88147676D02*
X152416667Y-88242914D01*
X152416667Y-88242914D02*
X152321429Y-88290533D01*
X151033333Y-107889580D02*
X150985714Y-107937200D01*
X150985714Y-107937200D02*
X150842857Y-107984819D01*
X150842857Y-107984819D02*
X150747619Y-107984819D01*
X150747619Y-107984819D02*
X150604762Y-107937200D01*
X150604762Y-107937200D02*
X150509524Y-107841961D01*
X150509524Y-107841961D02*
X150461905Y-107746723D01*
X150461905Y-107746723D02*
X150414286Y-107556247D01*
X150414286Y-107556247D02*
X150414286Y-107413390D01*
X150414286Y-107413390D02*
X150461905Y-107222914D01*
X150461905Y-107222914D02*
X150509524Y-107127676D01*
X150509524Y-107127676D02*
X150604762Y-107032438D01*
X150604762Y-107032438D02*
X150747619Y-106984819D01*
X150747619Y-106984819D02*
X150842857Y-106984819D01*
X150842857Y-106984819D02*
X150985714Y-107032438D01*
X150985714Y-107032438D02*
X151033333Y-107080057D01*
X151414286Y-107080057D02*
X151461905Y-107032438D01*
X151461905Y-107032438D02*
X151557143Y-106984819D01*
X151557143Y-106984819D02*
X151795238Y-106984819D01*
X151795238Y-106984819D02*
X151890476Y-107032438D01*
X151890476Y-107032438D02*
X151938095Y-107080057D01*
X151938095Y-107080057D02*
X151985714Y-107175295D01*
X151985714Y-107175295D02*
X151985714Y-107270533D01*
X151985714Y-107270533D02*
X151938095Y-107413390D01*
X151938095Y-107413390D02*
X151366667Y-107984819D01*
X151366667Y-107984819D02*
X151985714Y-107984819D01*
X163659580Y-93566666D02*
X163707200Y-93614285D01*
X163707200Y-93614285D02*
X163754819Y-93757142D01*
X163754819Y-93757142D02*
X163754819Y-93852380D01*
X163754819Y-93852380D02*
X163707200Y-93995237D01*
X163707200Y-93995237D02*
X163611961Y-94090475D01*
X163611961Y-94090475D02*
X163516723Y-94138094D01*
X163516723Y-94138094D02*
X163326247Y-94185713D01*
X163326247Y-94185713D02*
X163183390Y-94185713D01*
X163183390Y-94185713D02*
X162992914Y-94138094D01*
X162992914Y-94138094D02*
X162897676Y-94090475D01*
X162897676Y-94090475D02*
X162802438Y-93995237D01*
X162802438Y-93995237D02*
X162754819Y-93852380D01*
X162754819Y-93852380D02*
X162754819Y-93757142D01*
X162754819Y-93757142D02*
X162802438Y-93614285D01*
X162802438Y-93614285D02*
X162850057Y-93566666D01*
X163088152Y-92709523D02*
X163754819Y-92709523D01*
X162707200Y-92947618D02*
X163421485Y-93185713D01*
X163421485Y-93185713D02*
X163421485Y-92566666D01*
X162940419Y-104433333D02*
X162892800Y-104385714D01*
X162892800Y-104385714D02*
X162845180Y-104242857D01*
X162845180Y-104242857D02*
X162845180Y-104147619D01*
X162845180Y-104147619D02*
X162892800Y-104004762D01*
X162892800Y-104004762D02*
X162988038Y-103909524D01*
X162988038Y-103909524D02*
X163083276Y-103861905D01*
X163083276Y-103861905D02*
X163273752Y-103814286D01*
X163273752Y-103814286D02*
X163416609Y-103814286D01*
X163416609Y-103814286D02*
X163607085Y-103861905D01*
X163607085Y-103861905D02*
X163702323Y-103909524D01*
X163702323Y-103909524D02*
X163797561Y-104004762D01*
X163797561Y-104004762D02*
X163845180Y-104147619D01*
X163845180Y-104147619D02*
X163845180Y-104242857D01*
X163845180Y-104242857D02*
X163797561Y-104385714D01*
X163797561Y-104385714D02*
X163749942Y-104433333D01*
X163845180Y-105338095D02*
X163845180Y-104861905D01*
X163845180Y-104861905D02*
X163368990Y-104814286D01*
X163368990Y-104814286D02*
X163416609Y-104861905D01*
X163416609Y-104861905D02*
X163464228Y-104957143D01*
X163464228Y-104957143D02*
X163464228Y-105195238D01*
X163464228Y-105195238D02*
X163416609Y-105290476D01*
X163416609Y-105290476D02*
X163368990Y-105338095D01*
X163368990Y-105338095D02*
X163273752Y-105385714D01*
X163273752Y-105385714D02*
X163035657Y-105385714D01*
X163035657Y-105385714D02*
X162940419Y-105338095D01*
X162940419Y-105338095D02*
X162892800Y-105290476D01*
X162892800Y-105290476D02*
X162845180Y-105195238D01*
X162845180Y-105195238D02*
X162845180Y-104957143D01*
X162845180Y-104957143D02*
X162892800Y-104861905D01*
X162892800Y-104861905D02*
X162940419Y-104814286D01*
X145640419Y-96233333D02*
X145592800Y-96185714D01*
X145592800Y-96185714D02*
X145545180Y-96042857D01*
X145545180Y-96042857D02*
X145545180Y-95947619D01*
X145545180Y-95947619D02*
X145592800Y-95804762D01*
X145592800Y-95804762D02*
X145688038Y-95709524D01*
X145688038Y-95709524D02*
X145783276Y-95661905D01*
X145783276Y-95661905D02*
X145973752Y-95614286D01*
X145973752Y-95614286D02*
X146116609Y-95614286D01*
X146116609Y-95614286D02*
X146307085Y-95661905D01*
X146307085Y-95661905D02*
X146402323Y-95709524D01*
X146402323Y-95709524D02*
X146497561Y-95804762D01*
X146497561Y-95804762D02*
X146545180Y-95947619D01*
X146545180Y-95947619D02*
X146545180Y-96042857D01*
X146545180Y-96042857D02*
X146497561Y-96185714D01*
X146497561Y-96185714D02*
X146449942Y-96233333D01*
X145545180Y-97185714D02*
X145545180Y-96614286D01*
X145545180Y-96900000D02*
X146545180Y-96900000D01*
X146545180Y-96900000D02*
X146402323Y-96804762D01*
X146402323Y-96804762D02*
X146307085Y-96709524D01*
X146307085Y-96709524D02*
X146259466Y-96614286D01*
X157659580Y-89646666D02*
X157707200Y-89694285D01*
X157707200Y-89694285D02*
X157754819Y-89837142D01*
X157754819Y-89837142D02*
X157754819Y-89932380D01*
X157754819Y-89932380D02*
X157707200Y-90075237D01*
X157707200Y-90075237D02*
X157611961Y-90170475D01*
X157611961Y-90170475D02*
X157516723Y-90218094D01*
X157516723Y-90218094D02*
X157326247Y-90265713D01*
X157326247Y-90265713D02*
X157183390Y-90265713D01*
X157183390Y-90265713D02*
X156992914Y-90218094D01*
X156992914Y-90218094D02*
X156897676Y-90170475D01*
X156897676Y-90170475D02*
X156802438Y-90075237D01*
X156802438Y-90075237D02*
X156754819Y-89932380D01*
X156754819Y-89932380D02*
X156754819Y-89837142D01*
X156754819Y-89837142D02*
X156802438Y-89694285D01*
X156802438Y-89694285D02*
X156850057Y-89646666D01*
X156754819Y-89313332D02*
X156754819Y-88694285D01*
X156754819Y-88694285D02*
X157135771Y-89027618D01*
X157135771Y-89027618D02*
X157135771Y-88884761D01*
X157135771Y-88884761D02*
X157183390Y-88789523D01*
X157183390Y-88789523D02*
X157231009Y-88741904D01*
X157231009Y-88741904D02*
X157326247Y-88694285D01*
X157326247Y-88694285D02*
X157564342Y-88694285D01*
X157564342Y-88694285D02*
X157659580Y-88741904D01*
X157659580Y-88741904D02*
X157707200Y-88789523D01*
X157707200Y-88789523D02*
X157754819Y-88884761D01*
X157754819Y-88884761D02*
X157754819Y-89170475D01*
X157754819Y-89170475D02*
X157707200Y-89265713D01*
X157707200Y-89265713D02*
X157659580Y-89313332D01*
X143759580Y-90766666D02*
X143807200Y-90814285D01*
X143807200Y-90814285D02*
X143854819Y-90957142D01*
X143854819Y-90957142D02*
X143854819Y-91052380D01*
X143854819Y-91052380D02*
X143807200Y-91195237D01*
X143807200Y-91195237D02*
X143711961Y-91290475D01*
X143711961Y-91290475D02*
X143616723Y-91338094D01*
X143616723Y-91338094D02*
X143426247Y-91385713D01*
X143426247Y-91385713D02*
X143283390Y-91385713D01*
X143283390Y-91385713D02*
X143092914Y-91338094D01*
X143092914Y-91338094D02*
X142997676Y-91290475D01*
X142997676Y-91290475D02*
X142902438Y-91195237D01*
X142902438Y-91195237D02*
X142854819Y-91052380D01*
X142854819Y-91052380D02*
X142854819Y-90957142D01*
X142854819Y-90957142D02*
X142902438Y-90814285D01*
X142902438Y-90814285D02*
X142950057Y-90766666D01*
X142854819Y-89909523D02*
X142854819Y-90099999D01*
X142854819Y-90099999D02*
X142902438Y-90195237D01*
X142902438Y-90195237D02*
X142950057Y-90242856D01*
X142950057Y-90242856D02*
X143092914Y-90338094D01*
X143092914Y-90338094D02*
X143283390Y-90385713D01*
X143283390Y-90385713D02*
X143664342Y-90385713D01*
X143664342Y-90385713D02*
X143759580Y-90338094D01*
X143759580Y-90338094D02*
X143807200Y-90290475D01*
X143807200Y-90290475D02*
X143854819Y-90195237D01*
X143854819Y-90195237D02*
X143854819Y-90004761D01*
X143854819Y-90004761D02*
X143807200Y-89909523D01*
X143807200Y-89909523D02*
X143759580Y-89861904D01*
X143759580Y-89861904D02*
X143664342Y-89814285D01*
X143664342Y-89814285D02*
X143426247Y-89814285D01*
X143426247Y-89814285D02*
X143331009Y-89861904D01*
X143331009Y-89861904D02*
X143283390Y-89909523D01*
X143283390Y-89909523D02*
X143235771Y-90004761D01*
X143235771Y-90004761D02*
X143235771Y-90195237D01*
X143235771Y-90195237D02*
X143283390Y-90290475D01*
X143283390Y-90290475D02*
X143331009Y-90338094D01*
X143331009Y-90338094D02*
X143426247Y-90385713D01*
X127204819Y-91347619D02*
X127204819Y-91919047D01*
X127204819Y-91633333D02*
X126204819Y-91633333D01*
X126204819Y-91633333D02*
X126347676Y-91728571D01*
X126347676Y-91728571D02*
X126442914Y-91823809D01*
X126442914Y-91823809D02*
X126490533Y-91919047D01*
X126204819Y-90728571D02*
X126204819Y-90633333D01*
X126204819Y-90633333D02*
X126252438Y-90538095D01*
X126252438Y-90538095D02*
X126300057Y-90490476D01*
X126300057Y-90490476D02*
X126395295Y-90442857D01*
X126395295Y-90442857D02*
X126585771Y-90395238D01*
X126585771Y-90395238D02*
X126823866Y-90395238D01*
X126823866Y-90395238D02*
X127014342Y-90442857D01*
X127014342Y-90442857D02*
X127109580Y-90490476D01*
X127109580Y-90490476D02*
X127157200Y-90538095D01*
X127157200Y-90538095D02*
X127204819Y-90633333D01*
X127204819Y-90633333D02*
X127204819Y-90728571D01*
X127204819Y-90728571D02*
X127157200Y-90823809D01*
X127157200Y-90823809D02*
X127109580Y-90871428D01*
X127109580Y-90871428D02*
X127014342Y-90919047D01*
X127014342Y-90919047D02*
X126823866Y-90966666D01*
X126823866Y-90966666D02*
X126585771Y-90966666D01*
X126585771Y-90966666D02*
X126395295Y-90919047D01*
X126395295Y-90919047D02*
X126300057Y-90871428D01*
X126300057Y-90871428D02*
X126252438Y-90823809D01*
X126252438Y-90823809D02*
X126204819Y-90728571D01*
X126204819Y-89776190D02*
X126204819Y-89680952D01*
X126204819Y-89680952D02*
X126252438Y-89585714D01*
X126252438Y-89585714D02*
X126300057Y-89538095D01*
X126300057Y-89538095D02*
X126395295Y-89490476D01*
X126395295Y-89490476D02*
X126585771Y-89442857D01*
X126585771Y-89442857D02*
X126823866Y-89442857D01*
X126823866Y-89442857D02*
X127014342Y-89490476D01*
X127014342Y-89490476D02*
X127109580Y-89538095D01*
X127109580Y-89538095D02*
X127157200Y-89585714D01*
X127157200Y-89585714D02*
X127204819Y-89680952D01*
X127204819Y-89680952D02*
X127204819Y-89776190D01*
X127204819Y-89776190D02*
X127157200Y-89871428D01*
X127157200Y-89871428D02*
X127109580Y-89919047D01*
X127109580Y-89919047D02*
X127014342Y-89966666D01*
X127014342Y-89966666D02*
X126823866Y-90014285D01*
X126823866Y-90014285D02*
X126585771Y-90014285D01*
X126585771Y-90014285D02*
X126395295Y-89966666D01*
X126395295Y-89966666D02*
X126300057Y-89919047D01*
X126300057Y-89919047D02*
X126252438Y-89871428D01*
X126252438Y-89871428D02*
X126204819Y-89776190D01*
X126538152Y-89014285D02*
X127204819Y-89014285D01*
X126633390Y-89014285D02*
X126585771Y-88966666D01*
X126585771Y-88966666D02*
X126538152Y-88871428D01*
X126538152Y-88871428D02*
X126538152Y-88728571D01*
X126538152Y-88728571D02*
X126585771Y-88633333D01*
X126585771Y-88633333D02*
X126681009Y-88585714D01*
X126681009Y-88585714D02*
X127204819Y-88585714D01*
X126681009Y-87776190D02*
X126681009Y-88109523D01*
X127204819Y-88109523D02*
X126204819Y-88109523D01*
X126204819Y-88109523D02*
X126204819Y-87633333D01*
D11*
X141299412Y-93100790D02*
X141168178Y-93100790D01*
X141168178Y-93307014D02*
X141168178Y-92913313D01*
X141168178Y-92913313D02*
X141355655Y-92913313D01*
X141693113Y-93307014D02*
X141505636Y-93307014D01*
X141505636Y-93307014D02*
X141505636Y-92913313D01*
X142030570Y-93307014D02*
X141805598Y-93307014D01*
X141918084Y-93307014D02*
X141918084Y-92913313D01*
X141918084Y-92913313D02*
X141880589Y-92969556D01*
X141880589Y-92969556D02*
X141843094Y-93007052D01*
X141843094Y-93007052D02*
X141805598Y-93025799D01*
D10*
X124211147Y-92304819D02*
X123734957Y-92304819D01*
X123734957Y-92304819D02*
X123687338Y-92781009D01*
X123687338Y-92781009D02*
X123734957Y-92733390D01*
X123734957Y-92733390D02*
X123830195Y-92685771D01*
X123830195Y-92685771D02*
X124068290Y-92685771D01*
X124068290Y-92685771D02*
X124163528Y-92733390D01*
X124163528Y-92733390D02*
X124211147Y-92781009D01*
X124211147Y-92781009D02*
X124258766Y-92876247D01*
X124258766Y-92876247D02*
X124258766Y-93114342D01*
X124258766Y-93114342D02*
X124211147Y-93209580D01*
X124211147Y-93209580D02*
X124163528Y-93257200D01*
X124163528Y-93257200D02*
X124068290Y-93304819D01*
X124068290Y-93304819D02*
X123830195Y-93304819D01*
X123830195Y-93304819D02*
X123734957Y-93257200D01*
X123734957Y-93257200D02*
X123687338Y-93209580D01*
X124687338Y-93209580D02*
X124734957Y-93257200D01*
X124734957Y-93257200D02*
X124687338Y-93304819D01*
X124687338Y-93304819D02*
X124639719Y-93257200D01*
X124639719Y-93257200D02*
X124687338Y-93209580D01*
X124687338Y-93209580D02*
X124687338Y-93304819D01*
X125687337Y-93304819D02*
X125115909Y-93304819D01*
X125401623Y-93304819D02*
X125401623Y-92304819D01*
X125401623Y-92304819D02*
X125306385Y-92447676D01*
X125306385Y-92447676D02*
X125211147Y-92542914D01*
X125211147Y-92542914D02*
X125115909Y-92590533D01*
X126115909Y-93304819D02*
X126115909Y-92304819D01*
X126211147Y-92923866D02*
X126496861Y-93304819D01*
X126496861Y-92638152D02*
X126115909Y-93019104D01*
X123538095Y-98200057D02*
X123585714Y-98152438D01*
X123585714Y-98152438D02*
X123680952Y-98104819D01*
X123680952Y-98104819D02*
X123919047Y-98104819D01*
X123919047Y-98104819D02*
X124014285Y-98152438D01*
X124014285Y-98152438D02*
X124061904Y-98200057D01*
X124061904Y-98200057D02*
X124109523Y-98295295D01*
X124109523Y-98295295D02*
X124109523Y-98390533D01*
X124109523Y-98390533D02*
X124061904Y-98533390D01*
X124061904Y-98533390D02*
X123490476Y-99104819D01*
X123490476Y-99104819D02*
X124109523Y-99104819D01*
X124490476Y-98200057D02*
X124538095Y-98152438D01*
X124538095Y-98152438D02*
X124633333Y-98104819D01*
X124633333Y-98104819D02*
X124871428Y-98104819D01*
X124871428Y-98104819D02*
X124966666Y-98152438D01*
X124966666Y-98152438D02*
X125014285Y-98200057D01*
X125014285Y-98200057D02*
X125061904Y-98295295D01*
X125061904Y-98295295D02*
X125061904Y-98390533D01*
X125061904Y-98390533D02*
X125014285Y-98533390D01*
X125014285Y-98533390D02*
X124442857Y-99104819D01*
X124442857Y-99104819D02*
X125061904Y-99104819D01*
X126588095Y-98350057D02*
X126635714Y-98302438D01*
X126635714Y-98302438D02*
X126730952Y-98254819D01*
X126730952Y-98254819D02*
X126969047Y-98254819D01*
X126969047Y-98254819D02*
X127064285Y-98302438D01*
X127064285Y-98302438D02*
X127111904Y-98350057D01*
X127111904Y-98350057D02*
X127159523Y-98445295D01*
X127159523Y-98445295D02*
X127159523Y-98540533D01*
X127159523Y-98540533D02*
X127111904Y-98683390D01*
X127111904Y-98683390D02*
X126540476Y-99254819D01*
X126540476Y-99254819D02*
X127159523Y-99254819D01*
X127540476Y-98350057D02*
X127588095Y-98302438D01*
X127588095Y-98302438D02*
X127683333Y-98254819D01*
X127683333Y-98254819D02*
X127921428Y-98254819D01*
X127921428Y-98254819D02*
X128016666Y-98302438D01*
X128016666Y-98302438D02*
X128064285Y-98350057D01*
X128064285Y-98350057D02*
X128111904Y-98445295D01*
X128111904Y-98445295D02*
X128111904Y-98540533D01*
X128111904Y-98540533D02*
X128064285Y-98683390D01*
X128064285Y-98683390D02*
X127492857Y-99254819D01*
X127492857Y-99254819D02*
X128111904Y-99254819D01*
X134137356Y-98104299D02*
X134137356Y-98914607D01*
X134137356Y-98914607D02*
X134185022Y-99009937D01*
X134185022Y-99009937D02*
X134232687Y-99057603D01*
X134232687Y-99057603D02*
X134328017Y-99105268D01*
X134328017Y-99105268D02*
X134518678Y-99105268D01*
X134518678Y-99105268D02*
X134614008Y-99057603D01*
X134614008Y-99057603D02*
X134661674Y-99009937D01*
X134661674Y-99009937D02*
X134709339Y-98914607D01*
X134709339Y-98914607D02*
X134709339Y-98104299D01*
X135138325Y-98199629D02*
X135185990Y-98151964D01*
X135185990Y-98151964D02*
X135281321Y-98104299D01*
X135281321Y-98104299D02*
X135519647Y-98104299D01*
X135519647Y-98104299D02*
X135614977Y-98151964D01*
X135614977Y-98151964D02*
X135662642Y-98199629D01*
X135662642Y-98199629D02*
X135710308Y-98294959D01*
X135710308Y-98294959D02*
X135710308Y-98390290D01*
X135710308Y-98390290D02*
X135662642Y-98533285D01*
X135662642Y-98533285D02*
X135090660Y-99105268D01*
X135090660Y-99105268D02*
X135710308Y-99105268D01*
X131538095Y-90104819D02*
X131538095Y-90914342D01*
X131538095Y-90914342D02*
X131585714Y-91009580D01*
X131585714Y-91009580D02*
X131633333Y-91057200D01*
X131633333Y-91057200D02*
X131728571Y-91104819D01*
X131728571Y-91104819D02*
X131919047Y-91104819D01*
X131919047Y-91104819D02*
X132014285Y-91057200D01*
X132014285Y-91057200D02*
X132061904Y-91009580D01*
X132061904Y-91009580D02*
X132109523Y-90914342D01*
X132109523Y-90914342D02*
X132109523Y-90104819D01*
X132490476Y-90104819D02*
X133109523Y-90104819D01*
X133109523Y-90104819D02*
X132776190Y-90485771D01*
X132776190Y-90485771D02*
X132919047Y-90485771D01*
X132919047Y-90485771D02*
X133014285Y-90533390D01*
X133014285Y-90533390D02*
X133061904Y-90581009D01*
X133061904Y-90581009D02*
X133109523Y-90676247D01*
X133109523Y-90676247D02*
X133109523Y-90914342D01*
X133109523Y-90914342D02*
X133061904Y-91009580D01*
X133061904Y-91009580D02*
X133014285Y-91057200D01*
X133014285Y-91057200D02*
X132919047Y-91104819D01*
X132919047Y-91104819D02*
X132633333Y-91104819D01*
X132633333Y-91104819D02*
X132538095Y-91057200D01*
X132538095Y-91057200D02*
X132490476Y-91009580D01*
X153638095Y-98304819D02*
X153638095Y-99114342D01*
X153638095Y-99114342D02*
X153685714Y-99209580D01*
X153685714Y-99209580D02*
X153733333Y-99257200D01*
X153733333Y-99257200D02*
X153828571Y-99304819D01*
X153828571Y-99304819D02*
X154019047Y-99304819D01*
X154019047Y-99304819D02*
X154114285Y-99257200D01*
X154114285Y-99257200D02*
X154161904Y-99209580D01*
X154161904Y-99209580D02*
X154209523Y-99114342D01*
X154209523Y-99114342D02*
X154209523Y-98304819D01*
X155209523Y-99304819D02*
X154638095Y-99304819D01*
X154923809Y-99304819D02*
X154923809Y-98304819D01*
X154923809Y-98304819D02*
X154828571Y-98447676D01*
X154828571Y-98447676D02*
X154733333Y-98542914D01*
X154733333Y-98542914D02*
X154638095Y-98590533D01*
X147288000Y-93523819D02*
X147288000Y-93761914D01*
X147049905Y-93666676D02*
X147288000Y-93761914D01*
X147288000Y-93761914D02*
X147526095Y-93666676D01*
X147145143Y-93952390D02*
X147288000Y-93761914D01*
X147288000Y-93761914D02*
X147430857Y-93952390D01*
X147288000Y-93523819D02*
X147288000Y-93761914D01*
X147049905Y-93666676D02*
X147288000Y-93761914D01*
X147288000Y-93761914D02*
X147526095Y-93666676D01*
X147145143Y-93952390D02*
X147288000Y-93761914D01*
X147288000Y-93761914D02*
X147430857Y-93952390D01*
X142954819Y-100282738D02*
X142954819Y-100854166D01*
X142954819Y-100568452D02*
X141954819Y-100568452D01*
X141954819Y-100568452D02*
X142097676Y-100663690D01*
X142097676Y-100663690D02*
X142192914Y-100758928D01*
X142192914Y-100758928D02*
X142240533Y-100854166D01*
X141954819Y-99663690D02*
X141954819Y-99568452D01*
X141954819Y-99568452D02*
X142002438Y-99473214D01*
X142002438Y-99473214D02*
X142050057Y-99425595D01*
X142050057Y-99425595D02*
X142145295Y-99377976D01*
X142145295Y-99377976D02*
X142335771Y-99330357D01*
X142335771Y-99330357D02*
X142573866Y-99330357D01*
X142573866Y-99330357D02*
X142764342Y-99377976D01*
X142764342Y-99377976D02*
X142859580Y-99425595D01*
X142859580Y-99425595D02*
X142907200Y-99473214D01*
X142907200Y-99473214D02*
X142954819Y-99568452D01*
X142954819Y-99568452D02*
X142954819Y-99663690D01*
X142954819Y-99663690D02*
X142907200Y-99758928D01*
X142907200Y-99758928D02*
X142859580Y-99806547D01*
X142859580Y-99806547D02*
X142764342Y-99854166D01*
X142764342Y-99854166D02*
X142573866Y-99901785D01*
X142573866Y-99901785D02*
X142335771Y-99901785D01*
X142335771Y-99901785D02*
X142145295Y-99854166D01*
X142145295Y-99854166D02*
X142050057Y-99806547D01*
X142050057Y-99806547D02*
X142002438Y-99758928D01*
X142002438Y-99758928D02*
X141954819Y-99663690D01*
X142954819Y-98901785D02*
X141954819Y-98901785D01*
X142573866Y-98806547D02*
X142954819Y-98520833D01*
X142288152Y-98520833D02*
X142669104Y-98901785D01*
X147033333Y-88854819D02*
X146700000Y-88378628D01*
X146461905Y-88854819D02*
X146461905Y-87854819D01*
X146461905Y-87854819D02*
X146842857Y-87854819D01*
X146842857Y-87854819D02*
X146938095Y-87902438D01*
X146938095Y-87902438D02*
X146985714Y-87950057D01*
X146985714Y-87950057D02*
X147033333Y-88045295D01*
X147033333Y-88045295D02*
X147033333Y-88188152D01*
X147033333Y-88188152D02*
X146985714Y-88283390D01*
X146985714Y-88283390D02*
X146938095Y-88331009D01*
X146938095Y-88331009D02*
X146842857Y-88378628D01*
X146842857Y-88378628D02*
X146461905Y-88378628D01*
X147890476Y-87854819D02*
X147700000Y-87854819D01*
X147700000Y-87854819D02*
X147604762Y-87902438D01*
X147604762Y-87902438D02*
X147557143Y-87950057D01*
X147557143Y-87950057D02*
X147461905Y-88092914D01*
X147461905Y-88092914D02*
X147414286Y-88283390D01*
X147414286Y-88283390D02*
X147414286Y-88664342D01*
X147414286Y-88664342D02*
X147461905Y-88759580D01*
X147461905Y-88759580D02*
X147509524Y-88807200D01*
X147509524Y-88807200D02*
X147604762Y-88854819D01*
X147604762Y-88854819D02*
X147795238Y-88854819D01*
X147795238Y-88854819D02*
X147890476Y-88807200D01*
X147890476Y-88807200D02*
X147938095Y-88759580D01*
X147938095Y-88759580D02*
X147985714Y-88664342D01*
X147985714Y-88664342D02*
X147985714Y-88426247D01*
X147985714Y-88426247D02*
X147938095Y-88331009D01*
X147938095Y-88331009D02*
X147890476Y-88283390D01*
X147890476Y-88283390D02*
X147795238Y-88235771D01*
X147795238Y-88235771D02*
X147604762Y-88235771D01*
X147604762Y-88235771D02*
X147509524Y-88283390D01*
X147509524Y-88283390D02*
X147461905Y-88331009D01*
X147461905Y-88331009D02*
X147414286Y-88426247D01*
X145914286Y-91154819D02*
X146533333Y-91154819D01*
X146533333Y-91154819D02*
X146200000Y-91535771D01*
X146200000Y-91535771D02*
X146342857Y-91535771D01*
X146342857Y-91535771D02*
X146438095Y-91583390D01*
X146438095Y-91583390D02*
X146485714Y-91631009D01*
X146485714Y-91631009D02*
X146533333Y-91726247D01*
X146533333Y-91726247D02*
X146533333Y-91964342D01*
X146533333Y-91964342D02*
X146485714Y-92059580D01*
X146485714Y-92059580D02*
X146438095Y-92107200D01*
X146438095Y-92107200D02*
X146342857Y-92154819D01*
X146342857Y-92154819D02*
X146057143Y-92154819D01*
X146057143Y-92154819D02*
X145961905Y-92107200D01*
X145961905Y-92107200D02*
X145914286Y-92059580D01*
X146866667Y-91154819D02*
X147485714Y-91154819D01*
X147485714Y-91154819D02*
X147152381Y-91535771D01*
X147152381Y-91535771D02*
X147295238Y-91535771D01*
X147295238Y-91535771D02*
X147390476Y-91583390D01*
X147390476Y-91583390D02*
X147438095Y-91631009D01*
X147438095Y-91631009D02*
X147485714Y-91726247D01*
X147485714Y-91726247D02*
X147485714Y-91964342D01*
X147485714Y-91964342D02*
X147438095Y-92059580D01*
X147438095Y-92059580D02*
X147390476Y-92107200D01*
X147390476Y-92107200D02*
X147295238Y-92154819D01*
X147295238Y-92154819D02*
X147009524Y-92154819D01*
X147009524Y-92154819D02*
X146914286Y-92107200D01*
X146914286Y-92107200D02*
X146866667Y-92059580D01*
X148104762Y-91154819D02*
X148200000Y-91154819D01*
X148200000Y-91154819D02*
X148295238Y-91202438D01*
X148295238Y-91202438D02*
X148342857Y-91250057D01*
X148342857Y-91250057D02*
X148390476Y-91345295D01*
X148390476Y-91345295D02*
X148438095Y-91535771D01*
X148438095Y-91535771D02*
X148438095Y-91773866D01*
X148438095Y-91773866D02*
X148390476Y-91964342D01*
X148390476Y-91964342D02*
X148342857Y-92059580D01*
X148342857Y-92059580D02*
X148295238Y-92107200D01*
X148295238Y-92107200D02*
X148200000Y-92154819D01*
X148200000Y-92154819D02*
X148104762Y-92154819D01*
X148104762Y-92154819D02*
X148009524Y-92107200D01*
X148009524Y-92107200D02*
X147961905Y-92059580D01*
X147961905Y-92059580D02*
X147914286Y-91964342D01*
X147914286Y-91964342D02*
X147866667Y-91773866D01*
X147866667Y-91773866D02*
X147866667Y-91535771D01*
X147866667Y-91535771D02*
X147914286Y-91345295D01*
X147914286Y-91345295D02*
X147961905Y-91250057D01*
X147961905Y-91250057D02*
X148009524Y-91202438D01*
X148009524Y-91202438D02*
X148104762Y-91154819D01*
D12*
X127832380Y-114493842D02*
X128013809Y-114554318D01*
X128013809Y-114554318D02*
X128316190Y-114554318D01*
X128316190Y-114554318D02*
X128437142Y-114493842D01*
X128437142Y-114493842D02*
X128497618Y-114433365D01*
X128497618Y-114433365D02*
X128558095Y-114312413D01*
X128558095Y-114312413D02*
X128558095Y-114191461D01*
X128558095Y-114191461D02*
X128497618Y-114070508D01*
X128497618Y-114070508D02*
X128437142Y-114010032D01*
X128437142Y-114010032D02*
X128316190Y-113949556D01*
X128316190Y-113949556D02*
X128074285Y-113889080D01*
X128074285Y-113889080D02*
X127953333Y-113828603D01*
X127953333Y-113828603D02*
X127892856Y-113768127D01*
X127892856Y-113768127D02*
X127832380Y-113647175D01*
X127832380Y-113647175D02*
X127832380Y-113526222D01*
X127832380Y-113526222D02*
X127892856Y-113405270D01*
X127892856Y-113405270D02*
X127953333Y-113344794D01*
X127953333Y-113344794D02*
X128074285Y-113284318D01*
X128074285Y-113284318D02*
X128376666Y-113284318D01*
X128376666Y-113284318D02*
X128558095Y-113344794D01*
X129767619Y-114554318D02*
X129041904Y-114554318D01*
X129404761Y-114554318D02*
X129404761Y-113284318D01*
X129404761Y-113284318D02*
X129283809Y-113465746D01*
X129283809Y-113465746D02*
X129162857Y-113586699D01*
X129162857Y-113586699D02*
X129041904Y-113647175D01*
X144026633Y-109199556D02*
X144026633Y-109804318D01*
X143603300Y-108534318D02*
X144026633Y-109199556D01*
X144026633Y-109199556D02*
X144449967Y-108534318D01*
X145538538Y-109804318D02*
X144812823Y-109804318D01*
X145175680Y-109804318D02*
X145175680Y-108534318D01*
X145175680Y-108534318D02*
X145054728Y-108715746D01*
X145054728Y-108715746D02*
X144933776Y-108836699D01*
X144933776Y-108836699D02*
X144812823Y-108897175D01*
D10*
X155907142Y-110089580D02*
X155859523Y-110137200D01*
X155859523Y-110137200D02*
X155716666Y-110184819D01*
X155716666Y-110184819D02*
X155621428Y-110184819D01*
X155621428Y-110184819D02*
X155478571Y-110137200D01*
X155478571Y-110137200D02*
X155383333Y-110041961D01*
X155383333Y-110041961D02*
X155335714Y-109946723D01*
X155335714Y-109946723D02*
X155288095Y-109756247D01*
X155288095Y-109756247D02*
X155288095Y-109613390D01*
X155288095Y-109613390D02*
X155335714Y-109422914D01*
X155335714Y-109422914D02*
X155383333Y-109327676D01*
X155383333Y-109327676D02*
X155478571Y-109232438D01*
X155478571Y-109232438D02*
X155621428Y-109184819D01*
X155621428Y-109184819D02*
X155716666Y-109184819D01*
X155716666Y-109184819D02*
X155859523Y-109232438D01*
X155859523Y-109232438D02*
X155907142Y-109280057D01*
X156859523Y-110184819D02*
X156288095Y-110184819D01*
X156573809Y-110184819D02*
X156573809Y-109184819D01*
X156573809Y-109184819D02*
X156478571Y-109327676D01*
X156478571Y-109327676D02*
X156383333Y-109422914D01*
X156383333Y-109422914D02*
X156288095Y-109470533D01*
X157478571Y-109184819D02*
X157573809Y-109184819D01*
X157573809Y-109184819D02*
X157669047Y-109232438D01*
X157669047Y-109232438D02*
X157716666Y-109280057D01*
X157716666Y-109280057D02*
X157764285Y-109375295D01*
X157764285Y-109375295D02*
X157811904Y-109565771D01*
X157811904Y-109565771D02*
X157811904Y-109803866D01*
X157811904Y-109803866D02*
X157764285Y-109994342D01*
X157764285Y-109994342D02*
X157716666Y-110089580D01*
X157716666Y-110089580D02*
X157669047Y-110137200D01*
X157669047Y-110137200D02*
X157573809Y-110184819D01*
X157573809Y-110184819D02*
X157478571Y-110184819D01*
X157478571Y-110184819D02*
X157383333Y-110137200D01*
X157383333Y-110137200D02*
X157335714Y-110089580D01*
X157335714Y-110089580D02*
X157288095Y-109994342D01*
X157288095Y-109994342D02*
X157240476Y-109803866D01*
X157240476Y-109803866D02*
X157240476Y-109565771D01*
X157240476Y-109565771D02*
X157288095Y-109375295D01*
X157288095Y-109375295D02*
X157335714Y-109280057D01*
X157335714Y-109280057D02*
X157383333Y-109232438D01*
X157383333Y-109232438D02*
X157478571Y-109184819D01*
X151657143Y-111530057D02*
X151704762Y-111482438D01*
X151704762Y-111482438D02*
X151800000Y-111434819D01*
X151800000Y-111434819D02*
X152038095Y-111434819D01*
X152038095Y-111434819D02*
X152133333Y-111482438D01*
X152133333Y-111482438D02*
X152180952Y-111530057D01*
X152180952Y-111530057D02*
X152228571Y-111625295D01*
X152228571Y-111625295D02*
X152228571Y-111720533D01*
X152228571Y-111720533D02*
X152180952Y-111863390D01*
X152180952Y-111863390D02*
X151609524Y-112434819D01*
X151609524Y-112434819D02*
X152228571Y-112434819D01*
X152609524Y-111530057D02*
X152657143Y-111482438D01*
X152657143Y-111482438D02*
X152752381Y-111434819D01*
X152752381Y-111434819D02*
X152990476Y-111434819D01*
X152990476Y-111434819D02*
X153085714Y-111482438D01*
X153085714Y-111482438D02*
X153133333Y-111530057D01*
X153133333Y-111530057D02*
X153180952Y-111625295D01*
X153180952Y-111625295D02*
X153180952Y-111720533D01*
X153180952Y-111720533D02*
X153133333Y-111863390D01*
X153133333Y-111863390D02*
X152561905Y-112434819D01*
X152561905Y-112434819D02*
X153180952Y-112434819D01*
X153609524Y-111768152D02*
X153609524Y-112768152D01*
X153609524Y-111815771D02*
X153704762Y-111768152D01*
X153704762Y-111768152D02*
X153895238Y-111768152D01*
X153895238Y-111768152D02*
X153990476Y-111815771D01*
X153990476Y-111815771D02*
X154038095Y-111863390D01*
X154038095Y-111863390D02*
X154085714Y-111958628D01*
X154085714Y-111958628D02*
X154085714Y-112244342D01*
X154085714Y-112244342D02*
X154038095Y-112339580D01*
X154038095Y-112339580D02*
X153990476Y-112387200D01*
X153990476Y-112387200D02*
X153895238Y-112434819D01*
X153895238Y-112434819D02*
X153704762Y-112434819D01*
X153704762Y-112434819D02*
X153609524Y-112387200D01*
X154847619Y-111911009D02*
X154514286Y-111911009D01*
X154514286Y-112434819D02*
X154514286Y-111434819D01*
X154514286Y-111434819D02*
X154990476Y-111434819D01*
X123320833Y-106404819D02*
X122987500Y-105928628D01*
X122749405Y-106404819D02*
X122749405Y-105404819D01*
X122749405Y-105404819D02*
X123130357Y-105404819D01*
X123130357Y-105404819D02*
X123225595Y-105452438D01*
X123225595Y-105452438D02*
X123273214Y-105500057D01*
X123273214Y-105500057D02*
X123320833Y-105595295D01*
X123320833Y-105595295D02*
X123320833Y-105738152D01*
X123320833Y-105738152D02*
X123273214Y-105833390D01*
X123273214Y-105833390D02*
X123225595Y-105881009D01*
X123225595Y-105881009D02*
X123130357Y-105928628D01*
X123130357Y-105928628D02*
X122749405Y-105928628D01*
X123654167Y-105404819D02*
X124320833Y-105404819D01*
X124320833Y-105404819D02*
X123892262Y-106404819D01*
X136383333Y-107839580D02*
X136335714Y-107887200D01*
X136335714Y-107887200D02*
X136192857Y-107934819D01*
X136192857Y-107934819D02*
X136097619Y-107934819D01*
X136097619Y-107934819D02*
X135954762Y-107887200D01*
X135954762Y-107887200D02*
X135859524Y-107791961D01*
X135859524Y-107791961D02*
X135811905Y-107696723D01*
X135811905Y-107696723D02*
X135764286Y-107506247D01*
X135764286Y-107506247D02*
X135764286Y-107363390D01*
X135764286Y-107363390D02*
X135811905Y-107172914D01*
X135811905Y-107172914D02*
X135859524Y-107077676D01*
X135859524Y-107077676D02*
X135954762Y-106982438D01*
X135954762Y-106982438D02*
X136097619Y-106934819D01*
X136097619Y-106934819D02*
X136192857Y-106934819D01*
X136192857Y-106934819D02*
X136335714Y-106982438D01*
X136335714Y-106982438D02*
X136383333Y-107030057D01*
X136859524Y-107934819D02*
X137050000Y-107934819D01*
X137050000Y-107934819D02*
X137145238Y-107887200D01*
X137145238Y-107887200D02*
X137192857Y-107839580D01*
X137192857Y-107839580D02*
X137288095Y-107696723D01*
X137288095Y-107696723D02*
X137335714Y-107506247D01*
X137335714Y-107506247D02*
X137335714Y-107125295D01*
X137335714Y-107125295D02*
X137288095Y-107030057D01*
X137288095Y-107030057D02*
X137240476Y-106982438D01*
X137240476Y-106982438D02*
X137145238Y-106934819D01*
X137145238Y-106934819D02*
X136954762Y-106934819D01*
X136954762Y-106934819D02*
X136859524Y-106982438D01*
X136859524Y-106982438D02*
X136811905Y-107030057D01*
X136811905Y-107030057D02*
X136764286Y-107125295D01*
X136764286Y-107125295D02*
X136764286Y-107363390D01*
X136764286Y-107363390D02*
X136811905Y-107458628D01*
X136811905Y-107458628D02*
X136859524Y-107506247D01*
X136859524Y-107506247D02*
X136954762Y-107553866D01*
X136954762Y-107553866D02*
X137145238Y-107553866D01*
X137145238Y-107553866D02*
X137240476Y-107506247D01*
X137240476Y-107506247D02*
X137288095Y-107458628D01*
X137288095Y-107458628D02*
X137335714Y-107363390D01*
X135157143Y-111280057D02*
X135204762Y-111232438D01*
X135204762Y-111232438D02*
X135300000Y-111184819D01*
X135300000Y-111184819D02*
X135538095Y-111184819D01*
X135538095Y-111184819D02*
X135633333Y-111232438D01*
X135633333Y-111232438D02*
X135680952Y-111280057D01*
X135680952Y-111280057D02*
X135728571Y-111375295D01*
X135728571Y-111375295D02*
X135728571Y-111470533D01*
X135728571Y-111470533D02*
X135680952Y-111613390D01*
X135680952Y-111613390D02*
X135109524Y-112184819D01*
X135109524Y-112184819D02*
X135728571Y-112184819D01*
X136109524Y-111280057D02*
X136157143Y-111232438D01*
X136157143Y-111232438D02*
X136252381Y-111184819D01*
X136252381Y-111184819D02*
X136490476Y-111184819D01*
X136490476Y-111184819D02*
X136585714Y-111232438D01*
X136585714Y-111232438D02*
X136633333Y-111280057D01*
X136633333Y-111280057D02*
X136680952Y-111375295D01*
X136680952Y-111375295D02*
X136680952Y-111470533D01*
X136680952Y-111470533D02*
X136633333Y-111613390D01*
X136633333Y-111613390D02*
X136061905Y-112184819D01*
X136061905Y-112184819D02*
X136680952Y-112184819D01*
X137109524Y-111518152D02*
X137109524Y-112518152D01*
X137109524Y-111565771D02*
X137204762Y-111518152D01*
X137204762Y-111518152D02*
X137395238Y-111518152D01*
X137395238Y-111518152D02*
X137490476Y-111565771D01*
X137490476Y-111565771D02*
X137538095Y-111613390D01*
X137538095Y-111613390D02*
X137585714Y-111708628D01*
X137585714Y-111708628D02*
X137585714Y-111994342D01*
X137585714Y-111994342D02*
X137538095Y-112089580D01*
X137538095Y-112089580D02*
X137490476Y-112137200D01*
X137490476Y-112137200D02*
X137395238Y-112184819D01*
X137395238Y-112184819D02*
X137204762Y-112184819D01*
X137204762Y-112184819D02*
X137109524Y-112137200D01*
X138347619Y-111661009D02*
X138014286Y-111661009D01*
X138014286Y-112184819D02*
X138014286Y-111184819D01*
X138014286Y-111184819D02*
X138490476Y-111184819D01*
X150124405Y-112686819D02*
X150695833Y-112686819D01*
X150410119Y-113686819D02*
X150410119Y-112686819D01*
X151029167Y-113686819D02*
X151029167Y-112686819D01*
X151029167Y-112686819D02*
X151410119Y-112686819D01*
X151410119Y-112686819D02*
X151505357Y-112734438D01*
X151505357Y-112734438D02*
X151552976Y-112782057D01*
X151552976Y-112782057D02*
X151600595Y-112877295D01*
X151600595Y-112877295D02*
X151600595Y-113020152D01*
X151600595Y-113020152D02*
X151552976Y-113115390D01*
X151552976Y-113115390D02*
X151505357Y-113163009D01*
X151505357Y-113163009D02*
X151410119Y-113210628D01*
X151410119Y-113210628D02*
X151029167Y-113210628D01*
X152552976Y-113686819D02*
X151981548Y-113686819D01*
X152267262Y-113686819D02*
X152267262Y-112686819D01*
X152267262Y-112686819D02*
X152172024Y-112829676D01*
X152172024Y-112829676D02*
X152076786Y-112924914D01*
X152076786Y-112924914D02*
X151981548Y-112972533D01*
X153029167Y-113686819D02*
X153219643Y-113686819D01*
X153219643Y-113686819D02*
X153314881Y-113639200D01*
X153314881Y-113639200D02*
X153362500Y-113591580D01*
X153362500Y-113591580D02*
X153457738Y-113448723D01*
X153457738Y-113448723D02*
X153505357Y-113258247D01*
X153505357Y-113258247D02*
X153505357Y-112877295D01*
X153505357Y-112877295D02*
X153457738Y-112782057D01*
X153457738Y-112782057D02*
X153410119Y-112734438D01*
X153410119Y-112734438D02*
X153314881Y-112686819D01*
X153314881Y-112686819D02*
X153124405Y-112686819D01*
X153124405Y-112686819D02*
X153029167Y-112734438D01*
X153029167Y-112734438D02*
X152981548Y-112782057D01*
X152981548Y-112782057D02*
X152933929Y-112877295D01*
X152933929Y-112877295D02*
X152933929Y-113115390D01*
X152933929Y-113115390D02*
X152981548Y-113210628D01*
X152981548Y-113210628D02*
X153029167Y-113258247D01*
X153029167Y-113258247D02*
X153124405Y-113305866D01*
X153124405Y-113305866D02*
X153314881Y-113305866D01*
X153314881Y-113305866D02*
X153410119Y-113258247D01*
X153410119Y-113258247D02*
X153457738Y-113210628D01*
X153457738Y-113210628D02*
X153505357Y-113115390D01*
X146061905Y-81436819D02*
X146633333Y-81436819D01*
X146347619Y-82436819D02*
X146347619Y-81436819D01*
X146966667Y-82436819D02*
X146966667Y-81436819D01*
X146966667Y-81436819D02*
X147347619Y-81436819D01*
X147347619Y-81436819D02*
X147442857Y-81484438D01*
X147442857Y-81484438D02*
X147490476Y-81532057D01*
X147490476Y-81532057D02*
X147538095Y-81627295D01*
X147538095Y-81627295D02*
X147538095Y-81770152D01*
X147538095Y-81770152D02*
X147490476Y-81865390D01*
X147490476Y-81865390D02*
X147442857Y-81913009D01*
X147442857Y-81913009D02*
X147347619Y-81960628D01*
X147347619Y-81960628D02*
X146966667Y-81960628D01*
X148395238Y-81770152D02*
X148395238Y-82436819D01*
X148157143Y-81389200D02*
X147919048Y-82103485D01*
X147919048Y-82103485D02*
X148538095Y-82103485D01*
X149347619Y-81770152D02*
X149347619Y-82436819D01*
X149109524Y-81389200D02*
X148871429Y-82103485D01*
X148871429Y-82103485D02*
X149490476Y-82103485D01*
X169061905Y-112686819D02*
X169633333Y-112686819D01*
X169347619Y-113686819D02*
X169347619Y-112686819D01*
X169966667Y-113686819D02*
X169966667Y-112686819D01*
X169966667Y-112686819D02*
X170347619Y-112686819D01*
X170347619Y-112686819D02*
X170442857Y-112734438D01*
X170442857Y-112734438D02*
X170490476Y-112782057D01*
X170490476Y-112782057D02*
X170538095Y-112877295D01*
X170538095Y-112877295D02*
X170538095Y-113020152D01*
X170538095Y-113020152D02*
X170490476Y-113115390D01*
X170490476Y-113115390D02*
X170442857Y-113163009D01*
X170442857Y-113163009D02*
X170347619Y-113210628D01*
X170347619Y-113210628D02*
X169966667Y-113210628D01*
X170919048Y-112782057D02*
X170966667Y-112734438D01*
X170966667Y-112734438D02*
X171061905Y-112686819D01*
X171061905Y-112686819D02*
X171300000Y-112686819D01*
X171300000Y-112686819D02*
X171395238Y-112734438D01*
X171395238Y-112734438D02*
X171442857Y-112782057D01*
X171442857Y-112782057D02*
X171490476Y-112877295D01*
X171490476Y-112877295D02*
X171490476Y-112972533D01*
X171490476Y-112972533D02*
X171442857Y-113115390D01*
X171442857Y-113115390D02*
X170871429Y-113686819D01*
X170871429Y-113686819D02*
X171490476Y-113686819D01*
X171871429Y-112782057D02*
X171919048Y-112734438D01*
X171919048Y-112734438D02*
X172014286Y-112686819D01*
X172014286Y-112686819D02*
X172252381Y-112686819D01*
X172252381Y-112686819D02*
X172347619Y-112734438D01*
X172347619Y-112734438D02*
X172395238Y-112782057D01*
X172395238Y-112782057D02*
X172442857Y-112877295D01*
X172442857Y-112877295D02*
X172442857Y-112972533D01*
X172442857Y-112972533D02*
X172395238Y-113115390D01*
X172395238Y-113115390D02*
X171823810Y-113686819D01*
X171823810Y-113686819D02*
X172442857Y-113686819D01*
X151061905Y-81436819D02*
X151633333Y-81436819D01*
X151347619Y-82436819D02*
X151347619Y-81436819D01*
X151966667Y-82436819D02*
X151966667Y-81436819D01*
X151966667Y-81436819D02*
X152347619Y-81436819D01*
X152347619Y-81436819D02*
X152442857Y-81484438D01*
X152442857Y-81484438D02*
X152490476Y-81532057D01*
X152490476Y-81532057D02*
X152538095Y-81627295D01*
X152538095Y-81627295D02*
X152538095Y-81770152D01*
X152538095Y-81770152D02*
X152490476Y-81865390D01*
X152490476Y-81865390D02*
X152442857Y-81913009D01*
X152442857Y-81913009D02*
X152347619Y-81960628D01*
X152347619Y-81960628D02*
X151966667Y-81960628D01*
X153395238Y-81770152D02*
X153395238Y-82436819D01*
X153157143Y-81389200D02*
X152919048Y-82103485D01*
X152919048Y-82103485D02*
X153538095Y-82103485D01*
X153823810Y-81436819D02*
X154442857Y-81436819D01*
X154442857Y-81436819D02*
X154109524Y-81817771D01*
X154109524Y-81817771D02*
X154252381Y-81817771D01*
X154252381Y-81817771D02*
X154347619Y-81865390D01*
X154347619Y-81865390D02*
X154395238Y-81913009D01*
X154395238Y-81913009D02*
X154442857Y-82008247D01*
X154442857Y-82008247D02*
X154442857Y-82246342D01*
X154442857Y-82246342D02*
X154395238Y-82341580D01*
X154395238Y-82341580D02*
X154347619Y-82389200D01*
X154347619Y-82389200D02*
X154252381Y-82436819D01*
X154252381Y-82436819D02*
X153966667Y-82436819D01*
X153966667Y-82436819D02*
X153871429Y-82389200D01*
X153871429Y-82389200D02*
X153823810Y-82341580D01*
X143811905Y-112686819D02*
X144383333Y-112686819D01*
X144097619Y-113686819D02*
X144097619Y-112686819D01*
X144716667Y-113686819D02*
X144716667Y-112686819D01*
X144716667Y-112686819D02*
X145097619Y-112686819D01*
X145097619Y-112686819D02*
X145192857Y-112734438D01*
X145192857Y-112734438D02*
X145240476Y-112782057D01*
X145240476Y-112782057D02*
X145288095Y-112877295D01*
X145288095Y-112877295D02*
X145288095Y-113020152D01*
X145288095Y-113020152D02*
X145240476Y-113115390D01*
X145240476Y-113115390D02*
X145192857Y-113163009D01*
X145192857Y-113163009D02*
X145097619Y-113210628D01*
X145097619Y-113210628D02*
X144716667Y-113210628D01*
X146240476Y-113686819D02*
X145669048Y-113686819D01*
X145954762Y-113686819D02*
X145954762Y-112686819D01*
X145954762Y-112686819D02*
X145859524Y-112829676D01*
X145859524Y-112829676D02*
X145764286Y-112924914D01*
X145764286Y-112924914D02*
X145669048Y-112972533D01*
X147192857Y-113686819D02*
X146621429Y-113686819D01*
X146907143Y-113686819D02*
X146907143Y-112686819D01*
X146907143Y-112686819D02*
X146811905Y-112829676D01*
X146811905Y-112829676D02*
X146716667Y-112924914D01*
X146716667Y-112924914D02*
X146621429Y-112972533D01*
X162749405Y-112686819D02*
X163320833Y-112686819D01*
X163035119Y-113686819D02*
X163035119Y-112686819D01*
X163654167Y-113686819D02*
X163654167Y-112686819D01*
X163654167Y-112686819D02*
X164035119Y-112686819D01*
X164035119Y-112686819D02*
X164130357Y-112734438D01*
X164130357Y-112734438D02*
X164177976Y-112782057D01*
X164177976Y-112782057D02*
X164225595Y-112877295D01*
X164225595Y-112877295D02*
X164225595Y-113020152D01*
X164225595Y-113020152D02*
X164177976Y-113115390D01*
X164177976Y-113115390D02*
X164130357Y-113163009D01*
X164130357Y-113163009D02*
X164035119Y-113210628D01*
X164035119Y-113210628D02*
X163654167Y-113210628D01*
X164606548Y-112782057D02*
X164654167Y-112734438D01*
X164654167Y-112734438D02*
X164749405Y-112686819D01*
X164749405Y-112686819D02*
X164987500Y-112686819D01*
X164987500Y-112686819D02*
X165082738Y-112734438D01*
X165082738Y-112734438D02*
X165130357Y-112782057D01*
X165130357Y-112782057D02*
X165177976Y-112877295D01*
X165177976Y-112877295D02*
X165177976Y-112972533D01*
X165177976Y-112972533D02*
X165130357Y-113115390D01*
X165130357Y-113115390D02*
X164558929Y-113686819D01*
X164558929Y-113686819D02*
X165177976Y-113686819D01*
X166130357Y-113686819D02*
X165558929Y-113686819D01*
X165844643Y-113686819D02*
X165844643Y-112686819D01*
X165844643Y-112686819D02*
X165749405Y-112829676D01*
X165749405Y-112829676D02*
X165654167Y-112924914D01*
X165654167Y-112924914D02*
X165558929Y-112972533D01*
X156561905Y-81436819D02*
X157133333Y-81436819D01*
X156847619Y-82436819D02*
X156847619Y-81436819D01*
X157466667Y-82436819D02*
X157466667Y-81436819D01*
X157466667Y-81436819D02*
X157847619Y-81436819D01*
X157847619Y-81436819D02*
X157942857Y-81484438D01*
X157942857Y-81484438D02*
X157990476Y-81532057D01*
X157990476Y-81532057D02*
X158038095Y-81627295D01*
X158038095Y-81627295D02*
X158038095Y-81770152D01*
X158038095Y-81770152D02*
X157990476Y-81865390D01*
X157990476Y-81865390D02*
X157942857Y-81913009D01*
X157942857Y-81913009D02*
X157847619Y-81960628D01*
X157847619Y-81960628D02*
X157466667Y-81960628D01*
X158371429Y-81436819D02*
X158990476Y-81436819D01*
X158990476Y-81436819D02*
X158657143Y-81817771D01*
X158657143Y-81817771D02*
X158800000Y-81817771D01*
X158800000Y-81817771D02*
X158895238Y-81865390D01*
X158895238Y-81865390D02*
X158942857Y-81913009D01*
X158942857Y-81913009D02*
X158990476Y-82008247D01*
X158990476Y-82008247D02*
X158990476Y-82246342D01*
X158990476Y-82246342D02*
X158942857Y-82341580D01*
X158942857Y-82341580D02*
X158895238Y-82389200D01*
X158895238Y-82389200D02*
X158800000Y-82436819D01*
X158800000Y-82436819D02*
X158514286Y-82436819D01*
X158514286Y-82436819D02*
X158419048Y-82389200D01*
X158419048Y-82389200D02*
X158371429Y-82341580D01*
X159323810Y-81436819D02*
X159990476Y-81436819D01*
X159990476Y-81436819D02*
X159561905Y-82436819D01*
X156436905Y-112686819D02*
X157008333Y-112686819D01*
X156722619Y-113686819D02*
X156722619Y-112686819D01*
X157341667Y-113686819D02*
X157341667Y-112686819D01*
X157341667Y-112686819D02*
X157722619Y-112686819D01*
X157722619Y-112686819D02*
X157817857Y-112734438D01*
X157817857Y-112734438D02*
X157865476Y-112782057D01*
X157865476Y-112782057D02*
X157913095Y-112877295D01*
X157913095Y-112877295D02*
X157913095Y-113020152D01*
X157913095Y-113020152D02*
X157865476Y-113115390D01*
X157865476Y-113115390D02*
X157817857Y-113163009D01*
X157817857Y-113163009D02*
X157722619Y-113210628D01*
X157722619Y-113210628D02*
X157341667Y-113210628D01*
X158294048Y-112782057D02*
X158341667Y-112734438D01*
X158341667Y-112734438D02*
X158436905Y-112686819D01*
X158436905Y-112686819D02*
X158675000Y-112686819D01*
X158675000Y-112686819D02*
X158770238Y-112734438D01*
X158770238Y-112734438D02*
X158817857Y-112782057D01*
X158817857Y-112782057D02*
X158865476Y-112877295D01*
X158865476Y-112877295D02*
X158865476Y-112972533D01*
X158865476Y-112972533D02*
X158817857Y-113115390D01*
X158817857Y-113115390D02*
X158246429Y-113686819D01*
X158246429Y-113686819D02*
X158865476Y-113686819D01*
X159484524Y-112686819D02*
X159579762Y-112686819D01*
X159579762Y-112686819D02*
X159675000Y-112734438D01*
X159675000Y-112734438D02*
X159722619Y-112782057D01*
X159722619Y-112782057D02*
X159770238Y-112877295D01*
X159770238Y-112877295D02*
X159817857Y-113067771D01*
X159817857Y-113067771D02*
X159817857Y-113305866D01*
X159817857Y-113305866D02*
X159770238Y-113496342D01*
X159770238Y-113496342D02*
X159722619Y-113591580D01*
X159722619Y-113591580D02*
X159675000Y-113639200D01*
X159675000Y-113639200D02*
X159579762Y-113686819D01*
X159579762Y-113686819D02*
X159484524Y-113686819D01*
X159484524Y-113686819D02*
X159389286Y-113639200D01*
X159389286Y-113639200D02*
X159341667Y-113591580D01*
X159341667Y-113591580D02*
X159294048Y-113496342D01*
X159294048Y-113496342D02*
X159246429Y-113305866D01*
X159246429Y-113305866D02*
X159246429Y-113067771D01*
X159246429Y-113067771D02*
X159294048Y-112877295D01*
X159294048Y-112877295D02*
X159341667Y-112782057D01*
X159341667Y-112782057D02*
X159389286Y-112734438D01*
X159389286Y-112734438D02*
X159484524Y-112686819D01*
X171311905Y-81436819D02*
X171883333Y-81436819D01*
X171597619Y-82436819D02*
X171597619Y-81436819D01*
X172216667Y-82436819D02*
X172216667Y-81436819D01*
X172216667Y-81436819D02*
X172597619Y-81436819D01*
X172597619Y-81436819D02*
X172692857Y-81484438D01*
X172692857Y-81484438D02*
X172740476Y-81532057D01*
X172740476Y-81532057D02*
X172788095Y-81627295D01*
X172788095Y-81627295D02*
X172788095Y-81770152D01*
X172788095Y-81770152D02*
X172740476Y-81865390D01*
X172740476Y-81865390D02*
X172692857Y-81913009D01*
X172692857Y-81913009D02*
X172597619Y-81960628D01*
X172597619Y-81960628D02*
X172216667Y-81960628D01*
X173121429Y-81436819D02*
X173740476Y-81436819D01*
X173740476Y-81436819D02*
X173407143Y-81817771D01*
X173407143Y-81817771D02*
X173550000Y-81817771D01*
X173550000Y-81817771D02*
X173645238Y-81865390D01*
X173645238Y-81865390D02*
X173692857Y-81913009D01*
X173692857Y-81913009D02*
X173740476Y-82008247D01*
X173740476Y-82008247D02*
X173740476Y-82246342D01*
X173740476Y-82246342D02*
X173692857Y-82341580D01*
X173692857Y-82341580D02*
X173645238Y-82389200D01*
X173645238Y-82389200D02*
X173550000Y-82436819D01*
X173550000Y-82436819D02*
X173264286Y-82436819D01*
X173264286Y-82436819D02*
X173169048Y-82389200D01*
X173169048Y-82389200D02*
X173121429Y-82341580D01*
X174597619Y-81770152D02*
X174597619Y-82436819D01*
X174359524Y-81389200D02*
X174121429Y-82103485D01*
X174121429Y-82103485D02*
X174740476Y-82103485D01*
X165561905Y-81436819D02*
X166133333Y-81436819D01*
X165847619Y-82436819D02*
X165847619Y-81436819D01*
X166466667Y-82436819D02*
X166466667Y-81436819D01*
X166466667Y-81436819D02*
X166847619Y-81436819D01*
X166847619Y-81436819D02*
X166942857Y-81484438D01*
X166942857Y-81484438D02*
X166990476Y-81532057D01*
X166990476Y-81532057D02*
X167038095Y-81627295D01*
X167038095Y-81627295D02*
X167038095Y-81770152D01*
X167038095Y-81770152D02*
X166990476Y-81865390D01*
X166990476Y-81865390D02*
X166942857Y-81913009D01*
X166942857Y-81913009D02*
X166847619Y-81960628D01*
X166847619Y-81960628D02*
X166466667Y-81960628D01*
X167371429Y-81436819D02*
X167990476Y-81436819D01*
X167990476Y-81436819D02*
X167657143Y-81817771D01*
X167657143Y-81817771D02*
X167800000Y-81817771D01*
X167800000Y-81817771D02*
X167895238Y-81865390D01*
X167895238Y-81865390D02*
X167942857Y-81913009D01*
X167942857Y-81913009D02*
X167990476Y-82008247D01*
X167990476Y-82008247D02*
X167990476Y-82246342D01*
X167990476Y-82246342D02*
X167942857Y-82341580D01*
X167942857Y-82341580D02*
X167895238Y-82389200D01*
X167895238Y-82389200D02*
X167800000Y-82436819D01*
X167800000Y-82436819D02*
X167514286Y-82436819D01*
X167514286Y-82436819D02*
X167419048Y-82389200D01*
X167419048Y-82389200D02*
X167371429Y-82341580D01*
X168847619Y-81436819D02*
X168657143Y-81436819D01*
X168657143Y-81436819D02*
X168561905Y-81484438D01*
X168561905Y-81484438D02*
X168514286Y-81532057D01*
X168514286Y-81532057D02*
X168419048Y-81674914D01*
X168419048Y-81674914D02*
X168371429Y-81865390D01*
X168371429Y-81865390D02*
X168371429Y-82246342D01*
X168371429Y-82246342D02*
X168419048Y-82341580D01*
X168419048Y-82341580D02*
X168466667Y-82389200D01*
X168466667Y-82389200D02*
X168561905Y-82436819D01*
X168561905Y-82436819D02*
X168752381Y-82436819D01*
X168752381Y-82436819D02*
X168847619Y-82389200D01*
X168847619Y-82389200D02*
X168895238Y-82341580D01*
X168895238Y-82341580D02*
X168942857Y-82246342D01*
X168942857Y-82246342D02*
X168942857Y-82008247D01*
X168942857Y-82008247D02*
X168895238Y-81913009D01*
X168895238Y-81913009D02*
X168847619Y-81865390D01*
X168847619Y-81865390D02*
X168752381Y-81817771D01*
X168752381Y-81817771D02*
X168561905Y-81817771D01*
X168561905Y-81817771D02*
X168466667Y-81865390D01*
X168466667Y-81865390D02*
X168419048Y-81913009D01*
X168419048Y-81913009D02*
X168371429Y-82008247D01*
D13*
%TO.C,J1*%
X119350000Y-94180000D02*
X118670000Y-94180000D01*
X116110000Y-94180000D02*
X115760000Y-94180000D01*
X115760000Y-94180000D02*
X115760000Y-103120000D01*
X119350000Y-103120000D02*
X118670000Y-103120000D01*
X115760000Y-103120000D02*
X116110000Y-103120000D01*
X123300000Y-95675000D02*
G75*
G02*
X123100000Y-95675000I-100000J0D01*
G01*
X123100000Y-95675000D02*
G75*
G02*
X123300000Y-95675000I100000J0D01*
G01*
D14*
%TO.C,C7*%
X137473002Y-90245789D02*
X137473002Y-91154211D01*
X139526998Y-91154211D02*
X139526998Y-90245789D01*
D15*
%TO.C,CON1*%
X171331000Y-110281700D02*
G75*
G02*
X170569000Y-110281700I-381000J0D01*
G01*
X170569000Y-110281700D02*
G75*
G02*
X171331000Y-110281700I381000J0D01*
G01*
D14*
X174328200Y-88793300D02*
X165031800Y-88793300D01*
X165031800Y-88793300D02*
X165031800Y-109646700D01*
X174328200Y-109646700D02*
X174328200Y-88793300D01*
X165031800Y-109646700D02*
X174328200Y-109646700D01*
%TO.C,LED1*%
X151018842Y-90849300D02*
X151681158Y-90849300D01*
X151681158Y-89350700D02*
X151018842Y-89350700D01*
%TO.C,C2*%
X155104211Y-106453002D02*
X154195789Y-106453002D01*
X154195789Y-108506998D02*
X155104211Y-108506998D01*
%TO.C,C4*%
X162273002Y-96295789D02*
X162273002Y-97204211D01*
X164326998Y-97204211D02*
X164326998Y-96295789D01*
%TO.C,C5*%
X164326998Y-101804211D02*
X164326998Y-100895789D01*
X162273002Y-100895789D02*
X162273002Y-101804211D01*
%TO.C,C1*%
X146776998Y-99904211D02*
X146776998Y-98995789D01*
X144723002Y-98995789D02*
X144723002Y-99904211D01*
%TO.C,C3*%
X154173002Y-88995789D02*
X154173002Y-89904211D01*
X156226998Y-89904211D02*
X156226998Y-88995789D01*
%TO.C,C6*%
X140173002Y-90145789D02*
X140173002Y-91054211D01*
X142226998Y-91054211D02*
X142226998Y-90145789D01*
%TO.C,C8*%
X127523002Y-89595789D02*
X127523002Y-90504211D01*
X129576998Y-90504211D02*
X129576998Y-89595789D01*
D16*
%TO.C,R3*%
X126527064Y-95740000D02*
X125072936Y-95740000D01*
X126527064Y-97560000D02*
X125072936Y-97560000D01*
%TO.C,R4*%
X126527064Y-99740000D02*
X125072936Y-99740000D01*
X126527064Y-101560000D02*
X125072936Y-101560000D01*
D13*
%TO.C,U2*%
X129500000Y-95900000D02*
G75*
G02*
X129300000Y-95900000I-100000J0D01*
G01*
X129300000Y-95900000D02*
G75*
G02*
X129500000Y-95900000I100000J0D01*
G01*
D17*
X138450000Y-102200000D02*
X138450000Y-101820000D01*
X138450000Y-95100000D02*
X138450000Y-95480000D01*
X138070000Y-102200000D02*
X138450000Y-102200000D01*
X138070000Y-95100000D02*
X138450000Y-95100000D01*
X131350000Y-102200000D02*
X131730000Y-102200000D01*
X131350000Y-101820000D02*
X131350000Y-102200000D01*
X131350000Y-95480000D02*
X131350000Y-95100000D01*
X131350000Y-95100000D02*
X131730000Y-95100000D01*
D14*
%TO.C,U3*%
X131672100Y-90261339D02*
X131672100Y-91038661D01*
X131672100Y-92326400D02*
X133627900Y-92326400D01*
X133627900Y-88973600D02*
X131672100Y-88973600D01*
D18*
%TO.C,U1*%
G36*
X161385000Y-97440501D02*
G01*
X161131000Y-97440501D01*
X161131000Y-97059501D01*
X161385000Y-97059501D01*
X161385000Y-97440501D01*
G37*
G36*
X156990500Y-105835000D02*
G01*
X156609500Y-105835000D01*
X156609500Y-105581000D01*
X156990500Y-105581000D01*
X156990500Y-105835000D01*
G37*
G36*
X153790499Y-92119000D02*
G01*
X153409499Y-92119000D01*
X153409499Y-91865000D01*
X153790499Y-91865000D01*
X153790499Y-92119000D01*
G37*
G36*
X147669000Y-102240499D02*
G01*
X147415000Y-102240499D01*
X147415000Y-101859499D01*
X147669000Y-101859499D01*
X147669000Y-102240499D01*
G37*
D14*
X159581600Y-104031600D02*
X159581600Y-103436740D01*
X159581600Y-94263260D02*
X159581600Y-93668400D01*
X159581600Y-93668400D02*
X158986740Y-93668400D01*
X158986740Y-104031600D02*
X159581600Y-104031600D01*
X149813260Y-93668400D02*
X149218400Y-93668400D01*
X149218400Y-104031600D02*
X149813260Y-104031600D01*
X149218400Y-103436740D02*
X149218400Y-104031600D01*
X149218400Y-93668400D02*
X149218400Y-94263260D01*
D16*
%TO.C,R5*%
X143860000Y-101214564D02*
X143860000Y-98160436D01*
X141140000Y-101214564D02*
X141140000Y-98160436D01*
%TO.C,R6*%
X146972936Y-90785000D02*
X147427064Y-90785000D01*
X146972936Y-89315000D02*
X147427064Y-89315000D01*
D19*
%TO.C,S1*%
X124900000Y-112130000D02*
G75*
G02*
X124800000Y-112130000I-50000J0D01*
G01*
X124800000Y-112130000D02*
G75*
G02*
X124900000Y-112130000I50000J0D01*
G01*
D13*
X131400000Y-112780000D02*
X131400000Y-115180000D01*
X127000000Y-116580000D02*
X130600000Y-116580000D01*
X127000000Y-111380000D02*
X130600000Y-111380000D01*
X126200000Y-112780000D02*
X126200000Y-115180000D01*
D19*
X124900000Y-112130000D02*
X124900000Y-112130000D01*
X124800000Y-112130000D02*
X124800000Y-112130000D01*
%TO.C,Y1*%
X139550000Y-109230000D02*
G75*
G02*
X139550000Y-109130000I0J50000D01*
G01*
X139550000Y-109130000D02*
G75*
G02*
X139550000Y-109230000I0J-50000D01*
G01*
D13*
X148050000Y-111280000D02*
X148050000Y-110230000D01*
X148050000Y-107180000D02*
X148050000Y-108230000D01*
X141050000Y-111280000D02*
X148050000Y-111280000D01*
X141050000Y-110230000D02*
X141050000Y-111280000D01*
X141050000Y-108230000D02*
X141050000Y-107180000D01*
X141050000Y-107180000D02*
X148050000Y-107180000D01*
D19*
X139550000Y-109230000D02*
X139550000Y-109230000D01*
X139550000Y-109130000D02*
X139550000Y-109130000D01*
D14*
%TO.C,C10*%
X153504211Y-108703002D02*
X152595789Y-108703002D01*
X152595789Y-110756998D02*
X153504211Y-110756998D01*
D16*
%TO.C,R7*%
X121960436Y-109590000D02*
X125014564Y-109590000D01*
X121960436Y-106870000D02*
X125014564Y-106870000D01*
D14*
%TO.C,C9*%
X136095789Y-110256998D02*
X137004211Y-110256998D01*
X137004211Y-108203002D02*
X136095789Y-108203002D01*
D16*
%TO.C,TP19*%
X153062500Y-116430000D02*
X150662500Y-116430000D01*
X153062500Y-114030000D02*
X153062500Y-116430000D01*
X150662500Y-116430000D02*
X150662500Y-114030000D01*
X150662500Y-114030000D02*
X153062500Y-114030000D01*
%TO.C,TP44*%
X149000000Y-85180000D02*
X146600000Y-85180000D01*
X149000000Y-82780000D02*
X149000000Y-85180000D01*
X146600000Y-85180000D02*
X146600000Y-82780000D01*
X146600000Y-82780000D02*
X149000000Y-82780000D01*
%TO.C,TP22*%
X172000000Y-116430000D02*
X169600000Y-116430000D01*
X172000000Y-114030000D02*
X172000000Y-116430000D01*
X169600000Y-116430000D02*
X169600000Y-114030000D01*
X169600000Y-114030000D02*
X172000000Y-114030000D01*
%TO.C,TP43*%
X154000000Y-85180000D02*
X151600000Y-85180000D01*
X154000000Y-82780000D02*
X154000000Y-85180000D01*
X151600000Y-85180000D02*
X151600000Y-82780000D01*
X151600000Y-82780000D02*
X154000000Y-82780000D01*
%TO.C,TP11*%
X146750000Y-116430000D02*
X144350000Y-116430000D01*
X146750000Y-114030000D02*
X146750000Y-116430000D01*
X144350000Y-116430000D02*
X144350000Y-114030000D01*
X144350000Y-114030000D02*
X146750000Y-114030000D01*
%TO.C,TP21*%
X165687500Y-116430000D02*
X163287500Y-116430000D01*
X165687500Y-114030000D02*
X165687500Y-116430000D01*
X163287500Y-116430000D02*
X163287500Y-114030000D01*
X163287500Y-114030000D02*
X165687500Y-114030000D01*
%TO.C,TP37*%
X159500000Y-85180000D02*
X157100000Y-85180000D01*
X159500000Y-82780000D02*
X159500000Y-85180000D01*
X157100000Y-85180000D02*
X157100000Y-82780000D01*
X157100000Y-82780000D02*
X159500000Y-82780000D01*
%TO.C,TP20*%
X159375000Y-116430000D02*
X156975000Y-116430000D01*
X159375000Y-114030000D02*
X159375000Y-116430000D01*
X156975000Y-116430000D02*
X156975000Y-114030000D01*
X156975000Y-114030000D02*
X159375000Y-114030000D01*
%TO.C,TP34*%
X174250000Y-85180000D02*
X171850000Y-85180000D01*
X174250000Y-82780000D02*
X174250000Y-85180000D01*
X171850000Y-85180000D02*
X171850000Y-82780000D01*
X171850000Y-82780000D02*
X174250000Y-82780000D01*
%TO.C,TP36*%
X168500000Y-85180000D02*
X166100000Y-85180000D01*
X168500000Y-82780000D02*
X168500000Y-85180000D01*
X166100000Y-85180000D02*
X166100000Y-82780000D01*
X166100000Y-82780000D02*
X168500000Y-82780000D01*
%TD*%
M02*
